<?xml version="1.0" encoding="UTF-8" standalone="no"?>
<!DOCTYPE svg PUBLIC "-//W3C//DTD SVG 1.1//EN" "http://www.w3.org/Graphics/SVG/1.1/DTD/svg11.dtd">
<svg width="55mm" height="25mm" viewBox="-2 -2 219 83" xmlns="http://www.w3.org/2000/svg" xmlns:xlink="http://www.w3.org/1999/xlink">
  <!-- Copyright (C) 2020-2021 Rudy Matela -->
  <title>Add (cscx.org/add)</title>
  <desc>Add (cscx.org/add).  Copyright (C) 2020-2021 Rudy Matela  This image is available under the CC BY-SA 4.0 license.</desc>
  <g id="Background"/>
  <g id="Background">
    <text font-size="3.38667" style="fill: #f8f8f8; fill-opacity: 1; stroke: none;text-anchor:middle;font-family:sans-serif;font-style:normal;font-weight:normal" x="80" y="14.975">
      <tspan x="80" y="14.975">title: Add (cscx.org/add)</tspan>
      <tspan x="80" y="19.2083">Copyright (C) 2020-2021 Rudy Matela</tspan>
      <tspan x="80" y="23.4417">This image is available under the CC BY-SA 4.0 license.</tspan>
      <tspan x="80" y="27.675">Originally available on https://cscx.org/add.svg</tspan>
    </text>
    <ellipse style="fill: #ff8080; fill-opacity: 1; stroke-opacity: 1; stroke-width: 1; stroke: #000000" cx="130" cy="20" rx="20" ry="20"/>
    <polygon style="fill: #88cc88; fill-opacity: 1; stroke-opacity: 1; stroke-width: 1; stroke: #000000" fill-rule="evenodd" points="120,10 140,10 120,0 140,0 "/>
    <text font-size="27.0933" style="fill: #000000; fill-opacity: 1; stroke: none;text-anchor:middle;font-family:sans-serif;font-style:normal;font-weight:normal" x="80" y="50.525">
      <tspan x="80" y="50.525">+</tspan>
    </text>
    <g>
      <ellipse style="fill: #ffa040; fill-opacity: 1; stroke-opacity: 1; stroke-width: 1; stroke: #000000" cx="30" cy="30" rx="20" ry="20"/>
      <polygon style="fill: #88cc88; fill-opacity: 1; stroke-opacity: 1; stroke-width: 1; stroke: #000000" fill-rule="evenodd" points="40,20 30,0 50,10 60,30 "/>
      <line style="fill: none; stroke-opacity: 1; stroke-width: 1; stroke: #000000" x1="30" y1="20" x2="30" y2="0"/>
    </g>
    <g>
      <ellipse style="fill: #ffa040; fill-opacity: 1; stroke-opacity: 1; stroke-width: 1; stroke: #000000" cx="20" cy="60" rx="20" ry="20"/>
      <polygon style="fill: #88cc88; fill-opacity: 1; stroke-opacity: 1; stroke-width: 1; stroke: #000000" fill-rule="evenodd" points="30,50 20,30 40,40 50,60 "/>
      <line style="fill: none; stroke-opacity: 1; stroke-width: 1; stroke: #000000" x1="20" y1="50" x2="20" y2="30"/>
    </g>
    <ellipse style="fill: #ff8080; fill-opacity: 1; stroke-opacity: 1; stroke-width: 1; stroke: #000000" cx="120" cy="40" rx="20" ry="20"/>
    <polygon style="fill: #88cc88; fill-opacity: 1; stroke-opacity: 1; stroke-width: 1; stroke: #000000" fill-rule="evenodd" points="110,30 130,30 110,20 130,20 "/>
    <ellipse style="fill: #ff8080; fill-opacity: 1; stroke-opacity: 1; stroke-width: 1; stroke: #000000" cx="140" cy="60" rx="20" ry="20"/>
    <polygon style="fill: #88cc88; fill-opacity: 1; stroke-opacity: 1; stroke-width: 1; stroke: #000000" fill-rule="evenodd" points="130,50 150,50 130,40 150,40 "/>
    <text font-size="27.0933" style="fill: #000000; fill-opacity: 1; stroke: none;text-anchor:middle;font-family:sans-serif;font-style:normal;font-weight:normal" x="200" y="50.525">
      <tspan x="200" y="50.525">= ?</tspan>
    </text>
  </g>
</svg>
