<?xml version="1.0" encoding="UTF-8" standalone="no"?>
<!DOCTYPE svg PUBLIC "-//W3C//DTD SVG 1.1//EN" "http://www.w3.org/Graphics/SVG/1.1/DTD/svg11.dtd">
<svg width="115mm" height="50mm" viewBox="-2 3 447 190" xmlns="http://www.w3.org/2000/svg" xmlns:xlink="http://www.w3.org/1999/xlink">
  <!-- Copyright (C) 2022  Rudy Matela -->
  <title>Converting 10010 in binary to 18 in decimal</title>
  <desc>Converting 10010 in binary to 18 in decimal.  Copyright (C) 2022  Rudy Matela  This image is available under the CC BY-SA 4.0 license.</desc>
  <defs/>
  <g id="Background"/>
  <g id="Background">
    <text font-size="3.38667" style="fill: #eeeeee; fill-opacity: 1; stroke: none;text-anchor:middle;font-family:sans-serif;font-style:normal;font-weight:normal" x="380" y="83.975">
      <tspan x="380" y="83.975">title: Converting 10010 in binary to 18 in decimal</tspan>
      <tspan x="380" y="88.2083">Copyright (C) 2022  Rudy Matela</tspan>
      <tspan x="380" y="92.4417">This image is available under the CC BY-SA 4.0 license.</tspan>
      <tspan x="380" y="96.675">Originally available on https://cscx.org/bin2dec.svg</tspan>
    </text>
    <line style="fill: none; stroke-opacity: 1; stroke-width: 1; stroke-dasharray: 4; stroke: #999999" x1="20" y1="20" x2="20" y2="140"/>
    <line style="fill: none; stroke-opacity: 1; stroke-width: 1; stroke-dasharray: 4; stroke: #999999" x1="60" y1="20" x2="60" y2="140"/>
    <line style="fill: none; stroke-opacity: 1; stroke-width: 1; stroke-dasharray: 4; stroke: #999999" x1="100" y1="20" x2="100" y2="140"/>
    <line style="fill: none; stroke-opacity: 1; stroke-width: 1; stroke-dasharray: 4; stroke: #999999" x1="140" y1="20" x2="140" y2="140"/>
    <line style="fill: none; stroke-opacity: 1; stroke-width: 1; stroke-dasharray: 4; stroke: #999999" x1="180" y1="20" x2="180" y2="140"/>
    <line style="fill: none; stroke-opacity: 1; stroke-width: 1; stroke-dasharray: 4; stroke: #999999" x1="220" y1="20" x2="220" y2="140"/>
    <g>
      <polyline style="fill: none; stroke-opacity: 1; stroke-width: 1; stroke: #000000" points="10,60 20,60 20,40 40,40 40,60 60,60 60,40 80,40 80,60 100,60 100,40 120,40 120,60 140,60 140,40 160,40 160,60 180,60 180,40 200,40 200,60 220,60 220,40 230,40 "/>
      <line style="fill: none; stroke-opacity: 1; stroke-width: 1; stroke: #000000" x1="0" y1="60" x2="2" y2="60"/>
      <line style="fill: none; stroke-opacity: 1; stroke-width: 1; stroke: #000000" x1="3.33333" y1="60" x2="5.33333" y2="60"/>
      <line style="fill: none; stroke-opacity: 1; stroke-width: 1; stroke: #000000" x1="6.66667" y1="60" x2="8.66667" y2="60"/>
      <line style="fill: none; stroke-opacity: 1; stroke-width: 1; stroke: #000000" x1="240" y1="40" x2="238" y2="40"/>
      <line style="fill: none; stroke-opacity: 1; stroke-width: 1; stroke: #000000" x1="236.667" y1="40" x2="234.667" y2="40"/>
      <line style="fill: none; stroke-opacity: 1; stroke-width: 1; stroke: #000000" x1="233.333" y1="40" x2="231.333" y2="40"/>
    </g>
    <text font-size="12.8" style="fill: #000000; fill-opacity: 1; stroke: none;text-anchor:middle;font-family:sans-serif;font-style:normal;font-weight:normal" x="80" y="114.95">
      <tspan x="80" y="114.95">0</tspan>
    </text>
    <text font-size="12.8" style="fill: #000000; fill-opacity: 1; stroke: none;text-anchor:middle;font-family:sans-serif;font-style:normal;font-weight:normal" x="40" y="114.95">
      <tspan x="40" y="114.95">1</tspan>
    </text>
    <g>
      <polyline style="fill: none; stroke-opacity: 1; stroke-width: 1; stroke: #000000" points="10,120 20,120 20,100 60,100 60,120 100,120 140,120 140,100 180,100 180,120 220,120 230,120 "/>
      <line style="fill: none; stroke-opacity: 1; stroke-width: 1; stroke: #000000" x1="0" y1="120" x2="2" y2="120"/>
      <line style="fill: none; stroke-opacity: 1; stroke-width: 1; stroke: #000000" x1="3.33333" y1="120" x2="5.33333" y2="120"/>
      <line style="fill: none; stroke-opacity: 1; stroke-width: 1; stroke: #000000" x1="6.66667" y1="120" x2="8.66667" y2="120"/>
      <line style="fill: none; stroke-opacity: 1; stroke-width: 1; stroke: #000000" x1="240" y1="120" x2="238" y2="120"/>
      <line style="fill: none; stroke-opacity: 1; stroke-width: 1; stroke: #000000" x1="236.667" y1="120" x2="234.667" y2="120"/>
      <line style="fill: none; stroke-opacity: 1; stroke-width: 1; stroke: #000000" x1="233.333" y1="120" x2="231.333" y2="120"/>
    </g>
    <g>
      <rect style="fill: #ffeedd; fill-opacity: 1; stroke-opacity: 1; stroke-width: 1; stroke: #000000" x="315" y="4" width="130" height="170" rx="0" ry="0"/>
      <rect style="fill: #ffffff; fill-opacity: 1; stroke-opacity: 1; stroke-width: 1; stroke: #000000" x="320" y="9" width="120" height="48" rx="0" ry="0"/>
      <rect style="fill: #ffffff; fill-opacity: 1; stroke-opacity: 1; stroke-width: 1; stroke: #000000" x="320" y="61" width="120" height="108" rx="0" ry="0"/>
      <line style="fill: none; stroke-opacity: 1; stroke-width: 1; stroke: #000000" x1="340" y1="9" x2="340" y2="169"/>
      <line style="fill: none; stroke-opacity: 1; stroke-width: 1; stroke: #000000" x1="380" y1="9" x2="380" y2="169"/>
      <line style="fill: none; stroke-opacity: 1; stroke-width: 1; stroke: #000000" x1="420" y1="9" x2="420" y2="169"/>
      <rect style="fill: #ffeedd; fill-opacity: 1; stroke-opacity: 1; stroke-width: 1; stroke-linejoin: round; stroke: #000000" x="410" y="89" width="20" height="10" rx="4" ry="4"/>
      <rect style="fill: #ffeedd; fill-opacity: 1; stroke-opacity: 1; stroke-width: 1; stroke-linejoin: round; stroke: #000000" x="410" y="39" width="20" height="10" rx="4" ry="4"/>
      <rect style="fill: #ffeedd; fill-opacity: 1; stroke-opacity: 1; stroke-width: 1; stroke-linejoin: round; stroke: #000000" x="410" y="69" width="20" height="10" rx="4" ry="4"/>
      <rect style="fill: #ffeedd; fill-opacity: 1; stroke-opacity: 1; stroke-width: 1; stroke-linejoin: round; stroke: #000000" x="410" y="109" width="20" height="10" rx="4" ry="4"/>
      <rect style="fill: #ffeedd; fill-opacity: 1; stroke-opacity: 1; stroke-width: 1; stroke-linejoin: round; stroke: #000000" x="410" y="149" width="20" height="10" rx="4" ry="4"/>
      <rect style="fill: #ffeedd; fill-opacity: 1; stroke-opacity: 1; stroke-width: 1; stroke-linejoin: round; stroke: #000000" x="370" y="69" width="20" height="10" rx="4" ry="4"/>
      <rect style="fill: #ffeedd; fill-opacity: 1; stroke-opacity: 1; stroke-width: 1; stroke-linejoin: round; stroke: #000000" x="370" y="19" width="20" height="10" rx="4" ry="4"/>
      <rect style="fill: #ffeedd; fill-opacity: 1; stroke-opacity: 1; stroke-width: 1; stroke-linejoin: round; stroke: #000000" x="370" y="129" width="20" height="10" rx="4" ry="4"/>
      <rect style="fill: #ffeedd; fill-opacity: 1; stroke-opacity: 1; stroke-width: 1; stroke-linejoin: round; stroke: #000000" x="370" y="109" width="20" height="10" rx="4" ry="4"/>
      <rect style="fill: #ffeedd; fill-opacity: 1; stroke-opacity: 1; stroke-width: 1; stroke-linejoin: round; stroke: #000000" x="330" y="19" width="20" height="10" rx="4" ry="4"/>
      <rect style="fill: #ffeedd; fill-opacity: 1; stroke-opacity: 1; stroke-width: 1; stroke-linejoin: round; stroke: #000000" x="330" y="149" width="20" height="10" rx="4" ry="4"/>
      <rect style="fill: #ffeedd; fill-opacity: 1; stroke-opacity: 1; stroke-width: 1; stroke-linejoin: round; stroke: #000000" x="330" y="129" width="20" height="10" rx="4" ry="4"/>
      <rect style="fill: #ffeedd; fill-opacity: 1; stroke-opacity: 1; stroke-width: 1; stroke-linejoin: round; stroke: #000000" x="330" y="109" width="20" height="10" rx="4" ry="4"/>
      <rect style="fill: #ffeedd; fill-opacity: 1; stroke-opacity: 1; stroke-width: 1; stroke-linejoin: round; stroke: #000000" x="330" y="89" width="20" height="10" rx="4" ry="4"/>
      <rect style="fill: #ffeedd; fill-opacity: 1; stroke-opacity: 1; stroke-width: 1; stroke-linejoin: round; stroke: #000000" x="370" y="149" width="20" height="10" rx="4" ry="4"/>
    </g>
    <polygon style="fill: #ddeeff; fill-opacity: 1; stroke-opacity: 1; stroke-width: 1; stroke: #000000" fill-rule="evenodd" points="260,70 280,70 280,60 300,80 280,100 280,90 260,90 "/>
    <text font-size="12.8" style="fill: #000000; fill-opacity: 1; stroke: none;text-anchor:middle;font-family:sans-serif;font-style:normal;font-weight:normal" x="120" y="114.95">
      <tspan x="120" y="114.95">0</tspan>
    </text>
    <text font-size="12.8" style="fill: #000000; fill-opacity: 1; stroke: none;text-anchor:middle;font-family:sans-serif;font-style:normal;font-weight:normal" x="160" y="114.95">
      <tspan x="160" y="114.95">1</tspan>
    </text>
    <text font-size="12.8" style="fill: #000000; fill-opacity: 1; stroke: none;text-anchor:middle;font-family:sans-serif;font-style:normal;font-weight:normal" x="200" y="114.95">
      <tspan x="200" y="114.95">0</tspan>
    </text>
    <text font-size="12.8" style="fill: #000000; fill-opacity: 1; stroke: none;text-anchor:middle;font-family:sans-serif;font-style:normal;font-weight:normal" x="340" y="188.95">
      <tspan x="340" y="188.95">0</tspan>
    </text>
    <text font-size="12.8" style="fill: #000000; fill-opacity: 1; stroke: none;text-anchor:middle;font-family:sans-serif;font-style:normal;font-weight:normal" x="380" y="188.95">
      <tspan x="380" y="188.95">1</tspan>
    </text>
    <text font-size="12.8" style="fill: #000000; fill-opacity: 1; stroke: none;text-anchor:middle;font-family:sans-serif;font-style:normal;font-weight:normal" x="420" y="188.95">
      <tspan x="420" y="188.95">8</tspan>
    </text>
  </g>
</svg>
