<?xml version="1.0" encoding="UTF-8" standalone="no"?>
<!DOCTYPE svg PUBLIC "-//W3C//DTD SVG 1.1//EN" "http://www.w3.org/Graphics/SVG/1.1/DTD/svg11.dtd">
<svg width="40mm" height="10mm" viewBox="-1 1 142 40" xmlns="http://www.w3.org/2000/svg" xmlns:xlink="http://www.w3.org/1999/xlink">
  <!-- Copyright (C) 2022 Rudy Matela -->
  <title>graphical representation of conjunction and disjunction (cscx.org/bool-and-or)</title>
  <desc>graphical representation of conjunction and disjunction (cscx.org/bool-and-or).  Copyright (C) 2022 Rudy Matela  This image is available under the CC BY-SA 4.0 license.</desc>
  <defs/>
  <g id="Background"/>
  <g id="Background">
    <g>
      <path style="fill: #ffffff; fill-opacity: 1; stroke-opacity: 1; stroke-width: 2; stroke: #000000" fill-rule="evenodd" d="M 30 20 C 44,20 44,40 30,40 C 16,40 20,40 20,40 C 20,40 20,20 20,20 C 20,20 16,20 30,20z"/>
      <line style="fill: none; stroke-opacity: 1; stroke-width: 2; stroke: #000000" x1="0" y1="24" x2="20" y2="24"/>
      <line style="fill: none; stroke-opacity: 1; stroke-width: 2; stroke: #000000" x1="0" y1="36" x2="20" y2="36"/>
      <line style="fill: none; stroke-opacity: 1; stroke-width: 2; stroke: #000000" x1="40.5" y1="30" x2="60" y2="30"/>
      <text font-size="12.8" style="fill: #000000; fill-opacity: 1; stroke: none;text-anchor:middle;font-family:sans-serif;font-style:normal;font-weight:normal" x="30" y="34.425">
        <tspan x="30" y="34.425">∧</tspan>
      </text>
    </g>
    <g>
      <path style="fill: #ffffff; fill-opacity: 1; stroke-opacity: 1; stroke-width: 2; stroke: #000000" fill-rule="evenodd" d="M 110 20 C 124,20 124,40 110,40 C 96,40 100,40 100,40 C 100,40 104,38 104,30 C 104,22 100,20 100,20 C 100,20 96,20 110,20z"/>
      <line style="fill: none; stroke-opacity: 1; stroke-width: 2; stroke: #000000" x1="80" y1="24" x2="103" y2="24"/>
      <line style="fill: none; stroke-opacity: 1; stroke-width: 2; stroke: #000000" x1="80" y1="36" x2="103" y2="36"/>
      <line style="fill: none; stroke-opacity: 1; stroke-width: 2; stroke: #000000" x1="120.5" y1="30" x2="140" y2="30"/>
      <text font-size="12.8" style="fill: #000000; fill-opacity: 1; stroke: none;text-anchor:middle;font-family:sans-serif;font-style:normal;font-weight:normal" x="110" y="34.425">
        <tspan x="110" y="34.425">∨</tspan>
      </text>
    </g>
    <text font-size="12.8" style="fill: #000000; fill-opacity: 1; stroke: none;text-anchor:middle;font-family:sans-serif;font-style:normal;font-weight:normal" x="30" y="14.95">
      <tspan x="30" y="14.95">P ∧ Q</tspan>
    </text>
    <text font-size="12.8" style="fill: #000000; fill-opacity: 1; stroke: none;text-anchor:middle;font-family:sans-serif;font-style:normal;font-weight:normal" x="110" y="14.95">
      <tspan x="110" y="14.95">P ∨ Q</tspan>
    </text>
    <text font-size="1.69333" style="fill: #eeeeee; fill-opacity: 1; stroke: none;text-anchor:middle;font-family:sans-serif;font-style:normal;font-weight:normal" x="68" y="17.5">
      <tspan x="68" y="17.5">title: graphical representation of conjunction and disjunction (cscx.org/bool-and-or)</tspan>
      <tspan x="68" y="19.6167">Copyright (C) 2022 Rudy Matela</tspan>
      <tspan x="68" y="21.7333">This image is available under the CC BY-SA 4.0 license.</tspan>
      <tspan x="68" y="23.85">Originally available on https://cscx.org/bool-and-or.svg</tspan>
    </text>
  </g>
</svg>
