<?xml version="1.0" encoding="UTF-8" standalone="no"?>
<!DOCTYPE svg PUBLIC "-//W3C//DTD SVG 1.1//EN" "http://www.w3.org/Graphics/SVG/1.1/DTD/svg11.dtd">
<svg width="50mm" height="35mm" viewBox="4 4 200 123" xmlns="http://www.w3.org/2000/svg" xmlns:xlink="http://www.w3.org/1999/xlink">
  <!-- Copyright (C) 2020-2021 Rudy Matela -->
  <title>Julius Caesar reading an encrypted scroll</title>
  <desc>Julius Caesar reading an encrypted scroll.  Copyright (C) 2020-2021 Rudy Matela  This image is available under the CC BY-SA 4.0 license.</desc>
  <defs/>
  <g id="Background"/>
  <g id="Background">
    <text font-size="2.25778" style="fill: #cccccc; fill-opacity: 1; stroke: none;text-anchor:middle;font-family:sans-serif;font-style:normal;font-weight:normal" x="52" y="32.6417">
      <tspan x="52" y="32.6417">title: Julius Caesar reading an encrypted scroll</tspan>
      <tspan x="52" y="35.4639">Copyright (C) 2020-2021 Rudy Matela</tspan>
      <tspan x="52" y="38.2861">This image is available under the CC BY-SA 4.0 license.</tspan>
      <tspan x="52" y="41.1083">Originally available on https://cscx.org/caesar.svg</tspan>
    </text>
    <ellipse style="fill: #ffc080; fill-opacity: 1; stroke-opacity: 1; stroke-width: 1; stroke: #000000" cx="94" cy="36" rx="4" ry="4"/>
    <rect style="fill: #ffc080; fill-opacity: 1; stroke-opacity: 1; stroke-width: 1; stroke-linejoin: round; stroke: #000000" x="10" y="32" width="84" height="8" rx="5" ry="5"/>
    <polygon style="fill: none; stroke-opacity: 1; stroke-width: 1; stroke: #000000" points="140,90 134.544,68.406 126,64 136,48 136,36 140,24 160,14 176,16 192,22 200,36 204,50 200,60 196,64 192,70 190,78 184,86 192,112 162,126 151.889,89.8036 "/>
    <polygon style="fill: none; stroke-opacity: 1; stroke-width: 1; stroke: #000000" points="144,48 152,52 144,54 "/>
    <polygon style="fill: #004422; fill-opacity: 1; stroke-opacity: 1; stroke-width: 1; stroke: #000000" fill-rule="evenodd" points="150,14 152,6 156,14 154,20 "/>
    <polygon style="fill: #004422; fill-opacity: 1; stroke-opacity: 1; stroke-width: 1; stroke: #000000" fill-rule="evenodd" points="144,22 138,12 148,16 154,24 "/>
    <polygon style="fill: #004422; fill-opacity: 1; stroke-opacity: 1; stroke-width: 1; stroke: #000000" fill-rule="evenodd" points="154,18 156,10 160,18 158,24 "/>
    <polygon style="fill: #004422; fill-opacity: 1; stroke-opacity: 1; stroke-width: 1; stroke: #000000" fill-rule="evenodd" points="160,24 162,16 166,24 164,30 "/>
    <polygon style="fill: #004422; fill-opacity: 1; stroke-opacity: 1; stroke-width: 1; stroke: #000000" fill-rule="evenodd" points="166,30 168,22 172,30 170,36 "/>
    <polygon style="fill: #004422; fill-opacity: 1; stroke-opacity: 1; stroke-width: 1; stroke: #000000" fill-rule="evenodd" points="172,38 174,30 178,38 176,44 "/>
    <polygon style="fill: #004422; fill-opacity: 1; stroke-opacity: 1; stroke-width: 1; stroke: #000000" fill-rule="evenodd" points="178,48 180,40 184,48 182,54 "/>
    <polygon style="fill: #004422; fill-opacity: 1; stroke-opacity: 1; stroke-width: 1; stroke: #000000" fill-rule="evenodd" points="184,58 186,50 190,58 188,64 "/>
    <polygon style="fill: #004422; fill-opacity: 1; stroke-opacity: 1; stroke-width: 1; stroke: #000000" fill-rule="evenodd" points="154,34 148,24 158,28 164,36 "/>
    <polygon style="fill: #004422; fill-opacity: 1; stroke-opacity: 1; stroke-width: 1; stroke: #000000" fill-rule="evenodd" points="164,46 158,36 168,40 174,48 "/>
    <polygon style="fill: #004422; fill-opacity: 1; stroke-opacity: 1; stroke-width: 1; stroke: #000000" fill-rule="evenodd" points="172,58 166,48 176,52 182,60 "/>
    <polygon style="fill: #004422; fill-opacity: 1; stroke-opacity: 1; stroke-width: 1; stroke: #000000" fill-rule="evenodd" points="180,70 174,60 184,64 190,72 "/>
    <line style="fill: none; stroke-opacity: 1; stroke-width: 1; stroke: #000000" x1="137.272" y1="79.203" x2="146" y2="78"/>
    <path style="fill: #ffffff; fill-opacity: 1; stroke-opacity: 1; stroke-width: 1; stroke: #000000" fill-rule="evenodd" d="M 10 30 C 10,30 80,30 80,30 C 80,30 90,30 90,40 C 90,50 82,63.3334 82,80 C 82,96.6666 90,120 90,120 C 90,120 20,120 20,120 C 20,120 14,100 14,80 C 14,60 20,50 20,40 C 20,30 10,30 10,30z"/>
    <ellipse style="fill: #ffc080; fill-opacity: 1; stroke-opacity: 1; stroke-width: 1; stroke: #000000" cx="10" cy="36" rx="4" ry="4"/>
    <text font-size="10.16" style="fill: #000000; fill-opacity: 1; stroke: none;text-anchor:middle;font-family:serif;font-style:normal;font-weight:normal" x="50" y="40.85">
      <tspan x="50" y="40.85">Ohw xv</tspan>
      <tspan x="50" y="53.55">phhw</tspan>
      <tspan x="50" y="66.25">qhdu wkh</tspan>
      <tspan x="50" y="78.95">Wkhdwuh</tspan>
      <tspan x="50" y="91.65">ri Srpshb.</tspan>
      <tspan x="50" y="104.35">Dyh</tspan>
      <tspan x="50" y="117.05">Fdhvdu!</tspan>
    </text>
  </g>
</svg>
