<?xml version="1.0" encoding="UTF-8" standalone="no"?>
<!DOCTYPE svg PUBLIC "-//W3C//DTD SVG 1.1//EN" "http://www.w3.org/Graphics/SVG/1.1/DTD/svg11.dtd">
<svg width="100mm" height="30mm" viewBox="-1 -1 392 112" xmlns="http://www.w3.org/2000/svg" xmlns:xlink="http://www.w3.org/1999/xlink">
  <!-- Copyright (C) 2020-2021 Rudy Matela -->
  <title>Banknotes of an imaginary currency (cscx.org/cash)</title>
  <desc>Banknotes of an imaginary currency (cscx.org/cash).  Copyright (C) 2020-2021 Rudy Matela  This image is available under the CC BY-SA 4.0 license.</desc>
  <defs/>
  <g id="Background"/>
  <g id="Background">
    <rect style="fill: #ffffff; fill-opacity: 1; stroke-opacity: 1; stroke-width: 1; stroke: #000000" x="342" y="24" width="34" height="22" rx="0" ry="0"/>
    <rect style="fill: #eeffff; fill-opacity: 1; stroke-opacity: 1; stroke-width: 1; stroke: #000000" x="0" y="0" width="130" height="90" rx="0" ry="0"/>
    <text font-size="12.8" style="fill: #000000; fill-opacity: 1; stroke: none;text-anchor:middle;font-family:sans-serif;font-style:normal;font-weight:normal" x="20" y="16.2">
      <tspan x="20" y="16.2">$100</tspan>
    </text>
    <line style="fill: none; stroke-opacity: 1; stroke-width: 1; stroke: #000000" x1="100" y1="10" x2="80" y2="50"/>
    <line style="fill: none; stroke-opacity: 1; stroke-width: 1; stroke: #000000" x1="120" y1="10" x2="100" y2="50"/>
    <text font-size="3.38667" style="fill: #cccccc; fill-opacity: 1; stroke: none;text-anchor:middle;font-family:sans-serif;font-style:normal;font-weight:normal" x="65" y="39.975">
      <tspan x="65" y="39.975">title: Banknotes of an imaginary currency (cscx.org/cash)</tspan>
      <tspan x="65" y="44.2083">Copyright (C) 2020-2021 Rudy Matela</tspan>
      <tspan x="65" y="48.4417">This image is available under the CC BY-SA 4.0 license.</tspan>
      <tspan x="65" y="52.675">Originally available on https://cscx.org/cash.svg</tspan>
    </text>
    <rect style="fill: #ffeedd; fill-opacity: 1; stroke-opacity: 1; stroke-width: 1; stroke: #000000" x="20" y="20" width="120" height="80" rx="0" ry="0"/>
    <text font-size="12.8" style="fill: #000000; fill-opacity: 1; stroke: none;text-anchor:middle;font-family:sans-serif;font-style:normal;font-weight:normal" x="40" y="36.2">
      <tspan x="40" y="36.2">$50</tspan>
    </text>
    <line style="fill: none; stroke-opacity: 1; stroke-width: 1; stroke: #000000" x1="110" y1="30" x2="90" y2="70"/>
    <line style="fill: none; stroke-opacity: 1; stroke-width: 1; stroke: #000000" x1="130" y1="30" x2="110" y2="70"/>
    <rect style="fill: #ffffee; fill-opacity: 1; stroke-opacity: 1; stroke-width: 1; stroke: #000000" x="40" y="40" width="110" height="70" rx="0" ry="0"/>
    <text font-size="12.8" style="fill: #000000; fill-opacity: 1; stroke: none;text-anchor:middle;font-family:sans-serif;font-style:normal;font-weight:normal" x="60" y="56.2">
      <tspan x="60" y="56.2">$20</tspan>
    </text>
    <rect style="fill: #ffeeee; fill-opacity: 1; stroke-opacity: 1; stroke-width: 1; stroke: #000000" x="160" y="0" width="100" height="60" rx="0" ry="0"/>
    <text font-size="12.8" style="fill: #000000; fill-opacity: 1; stroke: none;text-anchor:middle;font-family:sans-serif;font-style:normal;font-weight:normal" x="180" y="16.2">
      <tspan x="180" y="16.2">$10</tspan>
    </text>
    <line style="fill: none; stroke-opacity: 1; stroke-width: 1; stroke: #000000" x1="240" y1="10" x2="230" y2="30"/>
    <line style="fill: none; stroke-opacity: 1; stroke-width: 1; stroke: #000000" x1="250" y1="10" x2="240" y2="30"/>
    <rect style="fill: #ffeeff; fill-opacity: 1; stroke-opacity: 1; stroke-width: 1; stroke: #000000" x="190" y="20" width="80" height="50" rx="0" ry="0"/>
    <text font-size="12.8" style="fill: #000000; fill-opacity: 1; stroke: none;text-anchor:middle;font-family:sans-serif;font-style:normal;font-weight:normal" x="210" y="36.2">
      <tspan x="210" y="36.2">$5</tspan>
    </text>
    <line style="fill: none; stroke-opacity: 1; stroke-width: 1; stroke: #000000" x1="250" y1="30" x2="240" y2="50"/>
    <line style="fill: none; stroke-opacity: 1; stroke-width: 1; stroke: #000000" x1="260" y1="30" x2="250" y2="50"/>
    <rect style="fill: #eeeeff; fill-opacity: 1; stroke-opacity: 1; stroke-width: 1; stroke: #000000" x="210" y="40" width="70" height="40" rx="0" ry="0"/>
    <text font-size="12.8" style="fill: #000000; fill-opacity: 1; stroke: none;text-anchor:middle;font-family:sans-serif;font-style:normal;font-weight:normal" x="230" y="56.2">
      <tspan x="230" y="56.2">$2</tspan>
    </text>
    <line style="fill: none; stroke-opacity: 1; stroke-width: 1; stroke: #000000" x1="260" y1="50" x2="250" y2="70"/>
    <line style="fill: none; stroke-opacity: 1; stroke-width: 1; stroke: #000000" x1="270" y1="50" x2="260" y2="70"/>
    <rect style="fill: #eeffee; fill-opacity: 1; stroke-opacity: 1; stroke-width: 1; stroke: #000000" x="230" y="60" width="60" height="40" rx="0" ry="0"/>
    <text font-size="12.8" style="fill: #000000; fill-opacity: 1; stroke: none;text-anchor:middle;font-family:sans-serif;font-style:normal;font-weight:normal" x="250" y="76.2">
      <tspan x="250" y="76.2">$1</tspan>
    </text>
    <line style="fill: none; stroke-opacity: 1; stroke-width: 1; stroke: #000000" x1="270" y1="70" x2="260" y2="90"/>
    <line style="fill: none; stroke-opacity: 1; stroke-width: 1; stroke: #000000" x1="280" y1="70" x2="270" y2="90"/>
    <line style="fill: none; stroke-opacity: 1; stroke-width: 1; stroke: #000000" x1="120" y1="50" x2="100" y2="90"/>
    <line style="fill: none; stroke-opacity: 1; stroke-width: 1; stroke: #000000" x1="140" y1="50" x2="120" y2="90"/>
    <line style="fill: none; stroke-opacity: 1; stroke-width: 1; stroke: #000000" x1="320" y1="60" x2="320" y2="110"/>
    <line style="fill: none; stroke-opacity: 1; stroke-width: 1; stroke: #000000" x1="320" y1="0" x2="320" y2="20"/>
    <line style="fill: none; stroke-opacity: 1; stroke-width: 1; stroke: #000000" x1="370" y1="0" x2="370" y2="20"/>
    <line style="fill: none; stroke-opacity: 1; stroke-width: 1; stroke: #000000" x1="370" y1="60" x2="370" y2="110"/>
    <line style="fill: none; stroke-opacity: 1; stroke-width: 1; stroke: #000000" x1="320" y1="20" x2="370" y2="20"/>
    <line style="fill: none; stroke-opacity: 1; stroke-width: 1; stroke: #000000" x1="370" y1="60" x2="320" y2="60"/>
    <line style="fill: none; stroke-opacity: 1; stroke-width: 1; stroke: #000000" x1="380" y1="50" x2="370" y2="60"/>
    <line style="fill: none; stroke-opacity: 1; stroke-width: 1; stroke: #000000" x1="330" y1="50" x2="320" y2="60"/>
    <line style="fill: none; stroke-opacity: 1; stroke-width: 1; stroke: #000000" x1="370" y1="110" x2="320" y2="110"/>
    <line style="fill: none; stroke-opacity: 1; stroke-width: 1; stroke: #000000" x1="370" y1="0" x2="320" y2="0"/>
    <line style="fill: none; stroke-opacity: 1; stroke-width: 1; stroke: #000000" x1="380" y1="50" x2="380" y2="20"/>
    <line style="fill: none; stroke-opacity: 1; stroke-width: 1; stroke: #000000" x1="370" y1="20" x2="380" y2="20"/>
    <line style="fill: none; stroke-opacity: 1; stroke-width: 1; stroke: #000000" x1="370" y1="0" x2="390" y2="0"/>
    <line style="fill: none; stroke-opacity: 1; stroke-width: 1; stroke: #000000" x1="390" y1="0" x2="390" y2="90"/>
    <line style="fill: none; stroke-opacity: 1; stroke-width: 1; stroke: #000000" x1="390" y1="90" x2="370" y2="110"/>
    <line style="fill: none; stroke-opacity: 1; stroke-width: 1; stroke: #000000" x1="330" y1="20" x2="330" y2="50"/>
    <line style="fill: none; stroke-opacity: 1; stroke-width: 1; stroke: #000000" x1="330" y1="50" x2="380" y2="50"/>
    <line style="fill: none; stroke-opacity: 1; stroke-width: 1; stroke: #000000" x1="348" y1="40" x2="358" y2="30"/>
    <line style="fill: none; stroke-opacity: 1; stroke-width: 1; stroke: #000000" x1="358" y1="40" x2="368" y2="30"/>
    <text font-size="12.8" style="fill: #000000; fill-opacity: 1; stroke: none;text-anchor:middle;font-family:sans-serif;font-style:normal;font-weight:normal" x="346" y="14.95">
      <tspan x="346" y="14.95">Cash</tspan>
    </text>
    <rect style="fill: #ffffff; fill-opacity: 1; stroke-opacity: 1; stroke-width: 1; stroke: #000000" x="328" y="68" width="32" height="4" rx="0" ry="0"/>
    <line style="fill: none; stroke-opacity: 1; stroke-width: 1; stroke: #000000" x1="342" y1="60" x2="352" y2="50"/>
    <line style="fill: none; stroke-opacity: 1; stroke-width: 1; stroke: #000000" x1="346" y1="60" x2="356" y2="50"/>
    <line style="fill: none; stroke-opacity: 1; stroke-width: 1; stroke: #000000" x1="350" y1="60" x2="360" y2="50"/>
    <line style="fill: none; stroke-opacity: 1; stroke-width: 1; stroke: #000000" x1="338" y1="60" x2="348" y2="50"/>
    <line style="fill: none; stroke-opacity: 1; stroke-width: 1; stroke: #000000" x1="343" y1="55" x2="355" y2="55"/>
    <line style="fill: none; stroke-opacity: 1; stroke-width: 1; stroke: #000000" x1="346" y1="52" x2="358" y2="52"/>
    <line style="fill: none; stroke-opacity: 1; stroke-width: 1; stroke: #000000" x1="343" y1="55" x2="355" y2="55"/>
    <line style="fill: none; stroke-opacity: 1; stroke-width: 1; stroke: #000000" x1="340" y1="58" x2="352" y2="58"/>
    <rect style="fill: #ffffff; fill-opacity: 1; stroke-opacity: 1; stroke-width: 1; stroke: #000000" x="334" y="24" width="4" height="4" rx="0" ry="0"/>
    <rect style="fill: #ffffff; fill-opacity: 1; stroke-opacity: 1; stroke-width: 1; stroke: #000000" x="334" y="32" width="4" height="4" rx="0" ry="0"/>
    <rect style="fill: #ffffff; fill-opacity: 1; stroke-opacity: 1; stroke-width: 1; stroke: #000000" x="334" y="40" width="4" height="4" rx="0" ry="0"/>
  </g>
</svg>
