<?xml version="1.0" encoding="UTF-8" standalone="no"?>
<!DOCTYPE svg PUBLIC "-//W3C//DTD SVG 1.1//EN" "http://www.w3.org/Graphics/SVG/1.1/DTD/svg11.dtd">
<svg width="130mm" height="50mm" viewBox="3 -1 518 195" xmlns="http://www.w3.org/2000/svg" xmlns:xlink="http://www.w3.org/1999/xlink">
  <!-- Copyright (C) 2022  Rudy Matela -->
  <title>Decimal do hexadecimal (cscx.org/dec2hex)</title>
  <desc>Decimal do hexadecimal (cscx.org/dec2hex).  Copyright (C) 2022  Rudy Matela  This image is available under the CC BY-SA 4.0 license.</desc>
  <defs/>
  <g id="Background"/>
  <g id="Background">
    <polygon style="fill: #ddeeff; fill-opacity: 1; stroke-opacity: 1; stroke-width: 1; stroke: #000000" fill-rule="evenodd" points="200,50 220,50 220,40 240,60 220,80 220,70 200,70 "/>
    <g>
      <text font-size="3.38667" style="fill: #eeeeee; fill-opacity: 1; stroke: none;text-anchor:middle;font-family:sans-serif;font-style:normal;font-weight:normal" x="90" y="84.975">
        <tspan x="90" y="84.975">title: Decimal do hexadecimal (cscx.org/dec2hex)</tspan>
        <tspan x="90" y="89.2083">Copyright (C) 2022  Rudy Matela</tspan>
        <tspan x="90" y="93.4417">This image is available under the CC BY-SA 4.0 license.</tspan>
        <tspan x="90" y="97.675">Originally available on https://cscx.org/dec2hex.svg</tspan>
      </text>
      <rect style="fill: #ffeedd; fill-opacity: 1; stroke-opacity: 1; stroke-width: 1; stroke: #000000" x="4" y="5" width="172" height="170" rx="0" ry="0"/>
      <rect style="fill: #ffffff; fill-opacity: 1; stroke-opacity: 1; stroke-width: 1; stroke: #000000" x="9" y="10" width="162" height="48" rx="0" ry="0"/>
      <rect style="fill: #ffffff; fill-opacity: 1; stroke-opacity: 1; stroke-width: 1; stroke: #000000" x="9" y="62" width="162" height="108" rx="0" ry="0"/>
      <line style="fill: none; stroke-opacity: 1; stroke-width: 1; stroke: #000000" x1="29" y1="10" x2="29" y2="170"/>
      <line style="fill: none; stroke-opacity: 1; stroke-width: 1; stroke: #000000" x1="69" y1="10" x2="69" y2="170"/>
      <line style="fill: none; stroke-opacity: 1; stroke-width: 1; stroke: #000000" x1="109" y1="10" x2="109" y2="170"/>
      <rect style="fill: #ffeedd; fill-opacity: 1; stroke-opacity: 1; stroke-width: 1; stroke-linejoin: round; stroke: #000000" x="99" y="89" width="20" height="10" rx="4" ry="4"/>
      <rect style="fill: #ffeedd; fill-opacity: 1; stroke-opacity: 1; stroke-width: 1; stroke-linejoin: round; stroke: #000000" x="99" y="43" width="20" height="10" rx="4" ry="4"/>
      <rect style="fill: #ffeedd; fill-opacity: 1; stroke-opacity: 1; stroke-width: 1; stroke-linejoin: round; stroke: #000000" x="99" y="69" width="20" height="10" rx="4" ry="4"/>
      <rect style="fill: #ffeedd; fill-opacity: 1; stroke-opacity: 1; stroke-width: 1; stroke-linejoin: round; stroke: #000000" x="99" y="109" width="20" height="10" rx="4" ry="4"/>
      <rect style="fill: #ffeedd; fill-opacity: 1; stroke-opacity: 1; stroke-width: 1; stroke-linejoin: round; stroke: #000000" x="99" y="155" width="20" height="10" rx="4" ry="4"/>
      <rect style="fill: #ffeedd; fill-opacity: 1; stroke-opacity: 1; stroke-width: 1; stroke-linejoin: round; stroke: #000000" x="59" y="69" width="20" height="10" rx="4" ry="4"/>
      <rect style="fill: #ffeedd; fill-opacity: 1; stroke-opacity: 1; stroke-width: 1; stroke-linejoin: round; stroke: #000000" x="59" y="43" width="20" height="10" rx="4" ry="4"/>
      <rect style="fill: #ffeedd; fill-opacity: 1; stroke-opacity: 1; stroke-width: 1; stroke-linejoin: round; stroke: #000000" x="59" y="109" width="20" height="10" rx="4" ry="4"/>
      <rect style="fill: #ffeedd; fill-opacity: 1; stroke-opacity: 1; stroke-width: 1; stroke-linejoin: round; stroke: #000000" x="59" y="89" width="20" height="10" rx="4" ry="4"/>
      <rect style="fill: #ffeedd; fill-opacity: 1; stroke-opacity: 1; stroke-width: 1; stroke-linejoin: round; stroke: #000000" x="19" y="15" width="20" height="10" rx="4" ry="4"/>
      <rect style="fill: #ffeedd; fill-opacity: 1; stroke-opacity: 1; stroke-width: 1; stroke-linejoin: round; stroke: #000000" x="19" y="155" width="20" height="10" rx="4" ry="4"/>
      <rect style="fill: #ffeedd; fill-opacity: 1; stroke-opacity: 1; stroke-width: 1; stroke-linejoin: round; stroke: #000000" x="19" y="135" width="20" height="10" rx="4" ry="4"/>
      <rect style="fill: #ffeedd; fill-opacity: 1; stroke-opacity: 1; stroke-width: 1; stroke-linejoin: round; stroke: #000000" x="19" y="89" width="20" height="10" rx="4" ry="4"/>
      <rect style="fill: #ffeedd; fill-opacity: 1; stroke-opacity: 1; stroke-width: 1; stroke-linejoin: round; stroke: #000000" x="19" y="69" width="20" height="10" rx="4" ry="4"/>
      <rect style="fill: #ffeedd; fill-opacity: 1; stroke-opacity: 1; stroke-width: 1; stroke-linejoin: round; stroke: #000000" x="59" y="129" width="20" height="10" rx="4" ry="4"/>
      <text font-size="12.8" style="fill: #000000; fill-opacity: 1; stroke: none;text-anchor:middle;font-family:sans-serif;font-style:normal;font-weight:normal" x="29" y="189.95">
        <tspan x="29" y="189.95">2</tspan>
      </text>
      <text font-size="12.8" style="fill: #000000; fill-opacity: 1; stroke: none;text-anchor:middle;font-family:sans-serif;font-style:normal;font-weight:normal" x="69" y="189.95">
        <tspan x="69" y="189.95">9</tspan>
      </text>
      <text font-size="12.8" style="fill: #000000; fill-opacity: 1; stroke: none;text-anchor:middle;font-family:sans-serif;font-style:normal;font-weight:normal" x="109" y="189.95">
        <tspan x="109" y="189.95">8</tspan>
      </text>
      <text font-size="12.8" style="fill: #000000; fill-opacity: 1; stroke: none;text-anchor:middle;font-family:sans-serif;font-style:normal;font-weight:normal" x="149" y="189.95">
        <tspan x="149" y="189.95">9</tspan>
      </text>
      <line style="fill: none; stroke-opacity: 1; stroke-width: 1; stroke-linejoin: round; stroke: #000000" x1="149" y1="10" x2="149" y2="170"/>
      <rect style="fill: #ffeedd; fill-opacity: 1; stroke-opacity: 1; stroke-width: 1; stroke-linejoin: round; stroke: #000000" x="139" y="89" width="20" height="10" rx="4" ry="4"/>
      <rect style="fill: #ffeedd; fill-opacity: 1; stroke-opacity: 1; stroke-width: 1; stroke-linejoin: round; stroke: #000000" x="139" y="43" width="20" height="10" rx="4" ry="4"/>
      <rect style="fill: #ffeedd; fill-opacity: 1; stroke-opacity: 1; stroke-width: 1; stroke-linejoin: round; stroke: #000000" x="139" y="69" width="20" height="10" rx="4" ry="4"/>
      <rect style="fill: #ffeedd; fill-opacity: 1; stroke-opacity: 1; stroke-width: 1; stroke-linejoin: round; stroke: #000000" x="139" y="109" width="20" height="10" rx="4" ry="4"/>
      <rect style="fill: #ffeedd; fill-opacity: 1; stroke-opacity: 1; stroke-width: 1; stroke-linejoin: round; stroke: #000000" x="139" y="129" width="20" height="10" rx="4" ry="4"/>
    </g>
    <line style="fill: none; stroke-opacity: 1; stroke-width: 1; stroke-linejoin: round; stroke-dasharray: 4; stroke: #999999" x1="270" y1="0" x2="270" y2="120"/>
    <line style="fill: none; stroke-opacity: 1; stroke-width: 1; stroke-linejoin: round; stroke-dasharray: 4; stroke: #999999" x1="350" y1="0" x2="350" y2="120"/>
    <line style="fill: none; stroke-opacity: 1; stroke-width: 1; stroke-linejoin: round; stroke-dasharray: 4; stroke: #999999" x1="430" y1="0" x2="430" y2="120"/>
    <line style="fill: none; stroke-opacity: 1; stroke-width: 1; stroke-linejoin: round; stroke-dasharray: 4; stroke: #999999" x1="510" y1="0" x2="510" y2="120"/>
    <g>
      <polyline style="fill: none; stroke-opacity: 1; stroke-width: 1; stroke: #000000" points="270,40 270,40 270,20 280,20 280,40 290,40 290,20 300,20 300,40 310,40 310,20 320,20 320,40 330,40 330,20 340,20 340,40 350,40 350,20 360,20 360,40 370,40 370,20 380,20 380,40 390,40 390,20 400,20 400,40 410,40 410,20 420,20 420,40 430,40 430,20 440,20 440,40 450,40 450,20 460,20 460,40 470,40 470,20 480,20 480,40 490,40 490,20 500,20 500,40 510,40 510,20 510,20 "/>
      <line style="fill: none; stroke-opacity: 1; stroke-width: 1; stroke: #000000" x1="260" y1="40" x2="262" y2="40"/>
      <line style="fill: none; stroke-opacity: 1; stroke-width: 1; stroke: #000000" x1="263.333" y1="40" x2="265.333" y2="40"/>
      <line style="fill: none; stroke-opacity: 1; stroke-width: 1; stroke: #000000" x1="266.667" y1="40" x2="268.667" y2="40"/>
      <line style="fill: none; stroke-opacity: 1; stroke-width: 1; stroke: #000000" x1="520" y1="20" x2="518" y2="20"/>
      <line style="fill: none; stroke-opacity: 1; stroke-width: 1; stroke: #000000" x1="516.667" y1="20" x2="514.667" y2="20"/>
      <line style="fill: none; stroke-opacity: 1; stroke-width: 1; stroke: #000000" x1="513.333" y1="20" x2="511.333" y2="20"/>
    </g>
    <text font-size="12.8" style="fill: #999999; fill-opacity: 1; stroke: none;text-anchor:middle;font-family:sans-serif;font-style:normal;font-weight:normal" x="300" y="94.95">
      <tspan x="300" y="94.95">0</tspan>
    </text>
    <text font-size="12.8" style="fill: #999999; fill-opacity: 1; stroke: none;text-anchor:middle;font-family:sans-serif;font-style:normal;font-weight:normal" x="280" y="94.95">
      <tspan x="280" y="94.95">1</tspan>
    </text>
    <g>
      <polyline style="fill: none; stroke-opacity: 1; stroke-width: 1; stroke: #000000" points="270,100 270,100 270,80 290,80 290,100 310,100 310,80 370,80 370,100 390,100 390,80 410,80 410,100 430,100 430,80 470,80 470,100 490,100 490,80 510,80 510,80 "/>
      <line style="fill: none; stroke-opacity: 1; stroke-width: 1; stroke: #000000" x1="260" y1="100" x2="262" y2="100"/>
      <line style="fill: none; stroke-opacity: 1; stroke-width: 1; stroke: #000000" x1="263.333" y1="100" x2="265.333" y2="100"/>
      <line style="fill: none; stroke-opacity: 1; stroke-width: 1; stroke: #000000" x1="266.667" y1="100" x2="268.667" y2="100"/>
      <line style="fill: none; stroke-opacity: 1; stroke-width: 1; stroke: #000000" x1="520" y1="80" x2="518" y2="80"/>
      <line style="fill: none; stroke-opacity: 1; stroke-width: 1; stroke: #000000" x1="516.667" y1="80" x2="514.667" y2="80"/>
      <line style="fill: none; stroke-opacity: 1; stroke-width: 1; stroke: #000000" x1="513.333" y1="80" x2="511.333" y2="80"/>
    </g>
    <text font-size="12.8" style="fill: #999999; fill-opacity: 1; stroke: none;text-anchor:middle;font-family:sans-serif;font-style:normal;font-weight:normal" x="380" y="94.95">
      <tspan x="380" y="94.95">0</tspan>
    </text>
    <text font-size="12.8" style="fill: #999999; fill-opacity: 1; stroke: none;text-anchor:middle;font-family:sans-serif;font-style:normal;font-weight:normal" x="320" y="94.95">
      <tspan x="320" y="94.95">1</tspan>
    </text>
    <text font-size="12.8" style="fill: #999999; fill-opacity: 1; stroke: none;text-anchor:middle;font-family:sans-serif;font-style:normal;font-weight:normal" x="480" y="94.95">
      <tspan x="480" y="94.95">0</tspan>
    </text>
    <text font-size="12.8" style="fill: #999999; fill-opacity: 1; stroke: none;text-anchor:middle;font-family:sans-serif;font-style:normal;font-weight:normal" x="340" y="94.95">
      <tspan x="340" y="94.95">1</tspan>
    </text>
    <text font-size="12.8" style="fill: #999999; fill-opacity: 1; stroke: none;text-anchor:middle;font-family:sans-serif;font-style:normal;font-weight:normal" x="360" y="94.95">
      <tspan x="360" y="94.95">1</tspan>
    </text>
    <text font-size="12.8" style="fill: #999999; fill-opacity: 1; stroke: none;text-anchor:middle;font-family:sans-serif;font-style:normal;font-weight:normal" x="400" y="94.95">
      <tspan x="400" y="94.95">1</tspan>
    </text>
    <text font-size="12.8" style="fill: #999999; fill-opacity: 1; stroke: none;text-anchor:middle;font-family:sans-serif;font-style:normal;font-weight:normal" x="420" y="94.95">
      <tspan x="420" y="94.95">0</tspan>
    </text>
    <text font-size="12.8" style="fill: #999999; fill-opacity: 1; stroke: none;text-anchor:middle;font-family:sans-serif;font-style:normal;font-weight:normal" x="500" y="94.95">
      <tspan x="500" y="94.95">1</tspan>
    </text>
    <text font-size="12.8" style="fill: #999999; fill-opacity: 1; stroke: none;text-anchor:middle;font-family:sans-serif;font-style:normal;font-weight:normal" x="440" y="94.95">
      <tspan x="440" y="94.95">1</tspan>
    </text>
    <text font-size="12.8" style="fill: #999999; fill-opacity: 1; stroke: none;text-anchor:middle;font-family:sans-serif;font-style:normal;font-weight:normal" x="460" y="94.95">
      <tspan x="460" y="94.95">1</tspan>
    </text>
    <text font-size="18.6267" style="fill: #000000; fill-opacity: 1; stroke: none;text-anchor:middle;font-family:sans-serif;font-style:normal;font-weight:normal" x="310" y="67.225">
      <tspan x="310" y="67.225">b</tspan>
    </text>
    <text font-size="18.6267" style="fill: #000000; fill-opacity: 1; stroke: none;text-anchor:middle;font-family:sans-serif;font-style:normal;font-weight:normal" x="390" y="67.225">
      <tspan x="390" y="67.225">a</tspan>
    </text>
    <text font-size="18.6267" style="fill: #000000; fill-opacity: 1; stroke: none;text-anchor:middle;font-family:sans-serif;font-style:normal;font-weight:normal" x="470" y="67.225">
      <tspan x="470" y="67.225">d</tspan>
    </text>
  </g>
</svg>
