<?xml version="1.0" encoding="UTF-8" standalone="no"?>
<!DOCTYPE svg PUBLIC "-//W3C//DTD SVG 1.1//EN" "http://www.w3.org/Graphics/SVG/1.1/DTD/svg11.dtd">
<svg width="105mm" height="20mm" viewBox="-1 -1 402 62" xmlns="http://www.w3.org/2000/svg" xmlns:xlink="http://www.w3.org/1999/xlink">
  <!-- Copyright (C) 2022 Rudy Matela -->
  <title>A train offering fare discounts (cscx.org/discount)</title>
  <desc>A train offering fare discounts (cscx.org/discount).  Copyright (C) 2022 Rudy Matela  This image is available under the CC BY-SA 4.0 license.</desc>
  <defs/>
  <g id="Background"/>
  <g id="Background">
    <text font-size="3.38667" style="fill: #000000; fill-opacity: 1; stroke: none;text-anchor:middle;font-family:sans-serif;font-style:normal;font-weight:normal" x="200" y="24.975">
      <tspan x="200" y="24.975">title: A train offering fare discounts (cscx.org/discount)</tspan>
      <tspan x="200" y="29.2083">Copyright (C) 2022 Rudy Matela</tspan>
      <tspan x="200" y="33.4417">This image is available under the CC BY-SA 4.0 license.</tspan>
      <tspan x="200" y="37.675">Originally available on https://cscx.org/discount.svg</tspan>
    </text>
    <ellipse style="fill: #aaaaaa; fill-opacity: 1; stroke-opacity: 1; stroke-width: 1; stroke: #000000" cx="70" cy="50" rx="10" ry="10"/>
    <ellipse style="fill: #aaaaaa; fill-opacity: 1; stroke-opacity: 1; stroke-width: 1; stroke: #000000" cx="110" cy="50" rx="10" ry="10"/>
    <ellipse style="fill: #aaaaaa; fill-opacity: 1; stroke-opacity: 1; stroke-width: 1; stroke: #000000" cx="160" cy="50" rx="10" ry="10"/>
    <ellipse style="fill: #aaaaaa; fill-opacity: 1; stroke-opacity: 1; stroke-width: 1; stroke: #000000" cx="240" cy="50" rx="10" ry="10"/>
    <ellipse style="fill: #aaaaaa; fill-opacity: 1; stroke-opacity: 1; stroke-width: 1; stroke: #000000" cx="290" cy="50" rx="10" ry="10"/>
    <ellipse style="fill: #aaaaaa; fill-opacity: 1; stroke-opacity: 1; stroke-width: 1; stroke: #000000" cx="370" cy="50" rx="10" ry="10"/>
    <ellipse style="fill: #aaaaaa; fill-opacity: 1; stroke-opacity: 1; stroke-width: 1; stroke: #000000" cx="30" cy="50" rx="10" ry="10"/>
    <rect style="fill: #ffaa66; fill-opacity: 1; stroke-opacity: 1; stroke-width: 1; stroke: #000000" x="140" y="10" width="120" height="40" rx="0" ry="0"/>
    <rect style="fill: #ffaa66; fill-opacity: 1; stroke-opacity: 1; stroke-width: 1; stroke: #000000" x="270" y="10" width="120" height="40" rx="0" ry="0"/>
    <polygon style="fill: #ffaa66; fill-opacity: 1; stroke-opacity: 1; stroke-width: 1; stroke: #000000" fill-rule="evenodd" points="10,50 10,30 20,10 130,10 130,50 "/>
    <polygon style="fill: #aaddff; fill-opacity: 1; stroke-opacity: 1; stroke-width: 1; stroke: #000000" fill-rule="evenodd" points="18,14 30,20 30,30 10,30 "/>
    <rect style="fill: #aaddff; fill-opacity: 1; stroke-opacity: 1; stroke-width: 1; stroke: #000000" x="150" y="20" width="30" height="10" rx="0" ry="0"/>
    <rect style="fill: #aaddff; fill-opacity: 1; stroke-opacity: 1; stroke-width: 1; stroke: #000000" x="190" y="20" width="20" height="10" rx="0" ry="0"/>
    <rect style="fill: #aaddff; fill-opacity: 1; stroke-opacity: 1; stroke-width: 1; stroke: #000000" x="220" y="20" width="30" height="10" rx="0" ry="0"/>
    <rect style="fill: #aaddff; fill-opacity: 1; stroke-opacity: 1; stroke-width: 1; stroke: #000000" x="280" y="20" width="30" height="10" rx="0" ry="0"/>
    <rect style="fill: #aaddff; fill-opacity: 1; stroke-opacity: 1; stroke-width: 1; stroke: #000000" x="320" y="20" width="20" height="10" rx="0" ry="0"/>
    <rect style="fill: #aaddff; fill-opacity: 1; stroke-opacity: 1; stroke-width: 1; stroke: #000000" x="350" y="20" width="30" height="10" rx="0" ry="0"/>
    <rect style="fill: #ffaa66; fill-opacity: 1; stroke-opacity: 1; stroke-width: 1; stroke: #000000" x="130" y="40" width="10" height="4" rx="0" ry="0"/>
    <rect style="fill: #ffaa66; fill-opacity: 1; stroke-opacity: 1; stroke-width: 1; stroke: #000000" x="260" y="40" width="10" height="4" rx="0" ry="0"/>
    <rect style="fill: none; stroke-opacity: 1; stroke-width: 1; stroke: #000000" x="110" y="20" width="10" height="20" rx="0" ry="0"/>
    <rect style="fill: none; stroke-opacity: 1; stroke-width: 1; stroke: #000000" x="90" y="20" width="10" height="20" rx="0" ry="0"/>
    <rect style="fill: none; stroke-opacity: 1; stroke-width: 1; stroke: #000000" x="70" y="20" width="10" height="20" rx="0" ry="0"/>
    <rect style="fill: none; stroke-opacity: 1; stroke-width: 1; stroke: #000000" x="50" y="20" width="10" height="20" rx="0" ry="0"/>
    <line style="fill: none; stroke-opacity: 1; stroke-width: 1; stroke: #000000" x1="50" y1="10" x2="60" y2="0"/>
    <line style="fill: none; stroke-opacity: 1; stroke-width: 1; stroke: #000000" x1="100" y1="10" x2="110" y2="0"/>
    <line style="fill: none; stroke-opacity: 1; stroke-width: 1; stroke: #000000" x1="50" y1="0" x2="70" y2="0"/>
    <line style="fill: none; stroke-opacity: 1; stroke-width: 1; stroke: #000000" x1="100" y1="0" x2="120" y2="0"/>
    <line style="fill: none; stroke-opacity: 1; stroke-width: 2; stroke: #000000" x1="0" y1="60" x2="400" y2="60"/>
  </g>
</svg>
