<?xml version="1.0" encoding="UTF-8" standalone="no"?>
<!DOCTYPE svg PUBLIC "-//W3C//DTD SVG 1.1//EN" "http://www.w3.org/Graphics/SVG/1.1/DTD/svg11.dtd">
<svg width="35mm" height="65mm" viewBox="-1 -1 132 259" xmlns="http://www.w3.org/2000/svg" xmlns:xlink="http://www.w3.org/1999/xlink">
  <!-- Copyright (C) 2020-2022 Rudy Matela -->
  <title>Factorial (cscx.org/factorial)</title>
  <desc>Factorial (cscx.org/factorial).  Copyright (C) 2020-2022 Rudy Matela  This image is available under the CC BY-SA 4.0 license.</desc>
  <defs/>
  <g id="Background"/>
  <g id="Background">
    <text font-size="2.25778" style="fill: #eeeeee; fill-opacity: 1; stroke: none;text-anchor:middle;font-family:sans-serif;font-style:normal;font-weight:normal" x="50" y="156.642">
      <tspan x="50" y="156.642">title: Factorial (cscx.org/factorial)</tspan>
      <tspan x="50" y="159.464">Copyright (C) 2020-2022 Rudy Matela</tspan>
      <tspan x="50" y="162.286">This image is available under the CC BY-SA 4.0 license.</tspan>
      <tspan x="50" y="165.108">Originally available on https://cscx.org/factorial.svg</tspan>
    </text>
    <rect style="fill: #ffffff; fill-opacity: 1; stroke-opacity: 1; stroke-width: 1; stroke: #000000" x="0" y="230" width="10" height="10" rx="0" ry="0"/>
    <rect style="fill: #ffffff; fill-opacity: 1; stroke-opacity: 1; stroke-width: 1; stroke: #000000" x="30" y="230" width="10" height="10" rx="0" ry="0"/>
    <rect style="fill: #ffffff; fill-opacity: 1; stroke-opacity: 1; stroke-width: 1; stroke: #000000" x="60" y="220" width="10" height="20" rx="0" ry="0"/>
    <rect style="fill: #ffffff; fill-opacity: 1; stroke-opacity: 1; stroke-width: 1; stroke: #000000" x="90" y="180" width="10" height="60" rx="0" ry="0"/>
    <rect style="fill: #ffffff; fill-opacity: 1; stroke-opacity: 1; stroke-width: 1; stroke: #000000" x="120" y="0" width="10" height="240" rx="0" ry="0"/>
    <line style="fill: none; stroke-opacity: 1; stroke-width: 1; stroke: #888888" x1="60" y1="230" x2="65" y2="230"/>
    <line style="fill: none; stroke-opacity: 1; stroke-width: 1; stroke: #888888" x1="90" y1="230" x2="92" y2="230"/>
    <line style="fill: none; stroke-opacity: 1; stroke-width: 1; stroke: #888888" x1="90" y1="220" x2="95" y2="220"/>
    <line style="fill: none; stroke-opacity: 1; stroke-width: 1; stroke: #888888" x1="90" y1="200" x2="95" y2="200"/>
    <line style="fill: none; stroke-opacity: 1; stroke-width: 1; stroke: #888888" x1="90" y1="190" x2="92" y2="190"/>
    <line style="fill: none; stroke-opacity: 1; stroke-width: 1; stroke: #888888" x1="120" y1="230" x2="122" y2="230"/>
    <line style="fill: none; stroke-opacity: 1; stroke-width: 1; stroke: #888888" x1="120" y1="210" x2="122" y2="210"/>
    <line style="fill: none; stroke-opacity: 1; stroke-width: 1; stroke: #888888" x1="120" y1="220" x2="122" y2="220"/>
    <line style="fill: none; stroke-opacity: 1; stroke-width: 1; stroke: #888888" x1="120" y1="200" x2="122" y2="200"/>
    <line style="fill: none; stroke-opacity: 1; stroke-width: 1; stroke: #888888" x1="120" y1="190" x2="122" y2="190"/>
    <line style="fill: none; stroke-opacity: 1; stroke-width: 1; stroke: #888888" x1="120" y1="180" x2="125" y2="180"/>
    <line style="fill: none; stroke-opacity: 1; stroke-width: 1; stroke: #888888" x1="120" y1="160" x2="122" y2="160"/>
    <line style="fill: none; stroke-opacity: 1; stroke-width: 1; stroke: #888888" x1="120" y1="170" x2="122" y2="170"/>
    <line style="fill: none; stroke-opacity: 1; stroke-width: 1; stroke: #888888" x1="120" y1="150" x2="122" y2="150"/>
    <line style="fill: none; stroke-opacity: 1; stroke-width: 1; stroke: #888888" x1="120" y1="140" x2="122" y2="140"/>
    <line style="fill: none; stroke-opacity: 1; stroke-width: 1; stroke: #888888" x1="120" y1="130" x2="122" y2="130"/>
    <line style="fill: none; stroke-opacity: 1; stroke-width: 1; stroke: #888888" x1="120" y1="110" x2="122" y2="110"/>
    <line style="fill: none; stroke-opacity: 1; stroke-width: 1; stroke: #888888" x1="120" y1="120" x2="125" y2="120"/>
    <line style="fill: none; stroke-opacity: 1; stroke-width: 1; stroke: #888888" x1="120" y1="100" x2="122" y2="100"/>
    <line style="fill: none; stroke-opacity: 1; stroke-width: 1; stroke: #888888" x1="120" y1="90" x2="122" y2="90"/>
    <line style="fill: none; stroke-opacity: 1; stroke-width: 1; stroke: #888888" x1="120" y1="80" x2="122" y2="80"/>
    <line style="fill: none; stroke-opacity: 1; stroke-width: 1; stroke: #888888" x1="120" y1="60" x2="125" y2="60"/>
    <line style="fill: none; stroke-opacity: 1; stroke-width: 1; stroke: #888888" x1="120" y1="70" x2="122" y2="70"/>
    <line style="fill: none; stroke-opacity: 1; stroke-width: 1; stroke: #888888" x1="120" y1="50" x2="122" y2="50"/>
    <line style="fill: none; stroke-opacity: 1; stroke-width: 1; stroke: #888888" x1="120" y1="40" x2="122" y2="40"/>
    <line style="fill: none; stroke-opacity: 1; stroke-width: 1; stroke: #888888" x1="120" y1="30" x2="122" y2="30"/>
    <line style="fill: none; stroke-opacity: 1; stroke-width: 1; stroke: #888888" x1="120" y1="10" x2="122" y2="10"/>
    <line style="fill: none; stroke-opacity: 1; stroke-width: 1; stroke: #888888" x1="120" y1="20" x2="122" y2="20"/>
    <text font-size="12.8" style="fill: #000000; fill-opacity: 1; stroke: none;text-anchor:middle;font-family:sans-serif;font-style:normal;font-weight:normal" x="5" y="253.7">
      <tspan x="5" y="253.7">0!</tspan>
    </text>
    <text font-size="12.8" style="fill: #000000; fill-opacity: 1; stroke: none;text-anchor:middle;font-family:sans-serif;font-style:normal;font-weight:normal" x="35" y="253.7">
      <tspan x="35" y="253.7">1!</tspan>
    </text>
    <text font-size="12.8" style="fill: #000000; fill-opacity: 1; stroke: none;text-anchor:middle;font-family:sans-serif;font-style:normal;font-weight:normal" x="65" y="253.7">
      <tspan x="65" y="253.7">2!</tspan>
    </text>
    <text font-size="12.8" style="fill: #000000; fill-opacity: 1; stroke: none;text-anchor:middle;font-family:sans-serif;font-style:normal;font-weight:normal" x="95" y="253.7">
      <tspan x="95" y="253.7">3!</tspan>
    </text>
    <text font-size="12.8" style="fill: #000000; fill-opacity: 1; stroke: none;text-anchor:middle;font-family:sans-serif;font-style:normal;font-weight:normal" x="125" y="253.7">
      <tspan x="125" y="253.7">4!</tspan>
    </text>
    <line style="fill: none; stroke-opacity: 1; stroke-width: 1; stroke: #888888" x1="90" y1="210" x2="92" y2="210"/>
    <g>
      <path style="fill: none; stroke-opacity: 1; stroke-width: 1; stroke: #000000" d="M 8,212 A 178.5,178.5 0 0 0 99.7254,78.219"/>
      <polyline style="fill: none; stroke-opacity: 1; stroke-width: 1; stroke: #000000" points="103.67,87.6251 99.8697,77.1104 93.738,86.4593 "/>
    </g>
    <text font-size="24.8356" style="fill: #000000; fill-opacity: 1; stroke: none;text-anchor:middle;font-family:sans-serif;font-style:normal;font-weight:normal" x="56" y="153.625">
      <tspan x="56" y="153.625">!</tspan>
    </text>
  </g>
</svg>
