<?xml version="1.0" encoding="UTF-8" standalone="no"?>
<!DOCTYPE svg PUBLIC "-//W3C//DTD SVG 1.1//EN" "http://www.w3.org/Graphics/SVG/1.1/DTD/svg11.dtd">
<svg width="115mm" height="35mm" viewBox="-3 -3 445 124" xmlns="http://www.w3.org/2000/svg" xmlns:xlink="http://www.w3.org/1999/xlink">
  <!-- Copyright (C) 2020-2021  Rudy Matela -->
  <title>Good morning, good afternoon and good evening (cscx.org/good)</title>
  <desc>Good morning, good afternoon and good evening (cscx.org/good).  Copyright (C) 2020-2021  Rudy Matela  This image is available under the CC BY-SA 4.0 license.</desc>
  <defs/>
  <g id="Background"/>
  <g id="Background">
    <text font-size="3.38667" style="fill: #eeeeee; fill-opacity: 1; stroke: none;text-anchor:middle;font-family:sans-serif;font-style:normal;font-weight:normal" x="220" y="54.975">
      <tspan x="220" y="54.975">title: Good morning, good afternoon and good evening (cscx.org/good)</tspan>
      <tspan x="220" y="59.2083">Copyright (C) 2020-2021  Rudy Matela</tspan>
      <tspan x="220" y="63.4417">This image is available under the CC BY-SA 4.0 license.</tspan>
      <tspan x="220" y="67.675">Originally available on https://cscx.org/good.svg</tspan>
    </text>
    <ellipse style="fill: #f0f8ff; fill-opacity: 1; stroke-opacity: 1; stroke-width: 1; stroke: #000000" cx="220" cy="60" rx="60" ry="60"/>
    <text font-size="12.8" style="fill: #000000; fill-opacity: 1; stroke: none;text-anchor:middle;font-family:serif;font-style:normal;font-weight:normal" x="220" y="14.95">
      <tspan x="220" y="14.95">XII</tspan>
    </text>
    <text font-size="12.8" style="fill: #000000; fill-opacity: 1; stroke: none;text-anchor:middle;font-family:serif;font-style:normal;font-weight:normal" x="270" y="64.95">
      <tspan x="270" y="64.95">III</tspan>
    </text>
    <text font-size="12.8" style="fill: #000000; fill-opacity: 1; stroke: none;text-anchor:middle;font-family:serif;font-style:normal;font-weight:normal" x="220" y="114.95">
      <tspan x="220" y="114.95">VI</tspan>
    </text>
    <text font-size="12.8" style="fill: #000000; fill-opacity: 1; stroke: none;text-anchor:middle;font-family:serif;font-style:normal;font-weight:normal" x="170" y="64.95">
      <tspan x="170" y="64.95">IX</tspan>
    </text>
    <text font-size="12.8" style="fill: #000000; fill-opacity: 1; stroke: none;text-anchor:middle;font-family:serif;font-style:normal;font-weight:normal" x="176" y="38.95">
      <tspan x="176" y="38.95">X</tspan>
    </text>
    <text font-size="12.8" style="fill: #000000; fill-opacity: 1; stroke: none;text-anchor:middle;font-family:serif;font-style:normal;font-weight:normal" x="194" y="20.95">
      <tspan x="194" y="20.95">XI</tspan>
    </text>
    <text font-size="12.8" style="fill: #000000; fill-opacity: 1; stroke: none;text-anchor:middle;font-family:serif;font-style:normal;font-weight:normal" x="262" y="88.95">
      <tspan x="262" y="88.95">IIII</tspan>
    </text>
    <text font-size="12.8" style="fill: #000000; fill-opacity: 1; stroke: none;text-anchor:middle;font-family:serif;font-style:normal;font-weight:normal" x="246" y="108.95">
      <tspan x="246" y="108.95">V</tspan>
    </text>
    <text font-size="12.8" style="fill: #000000; fill-opacity: 1; stroke: none;text-anchor:middle;font-family:serif;font-style:normal;font-weight:normal" x="194" y="108.95">
      <tspan x="194" y="108.95">VII</tspan>
    </text>
    <text font-size="12.8" style="fill: #000000; fill-opacity: 1; stroke: none;text-anchor:middle;font-family:serif;font-style:normal;font-weight:normal" x="178" y="88.95">
      <tspan x="178" y="88.95">VIII</tspan>
    </text>
    <text font-size="12.8" style="fill: #000000; fill-opacity: 1; stroke: none;text-anchor:middle;font-family:serif;font-style:normal;font-weight:normal" x="264" y="36.95">
      <tspan x="264" y="36.95">II</tspan>
    </text>
    <text font-size="12.8" style="fill: #000000; fill-opacity: 1; stroke: none;text-anchor:middle;font-family:serif;font-style:normal;font-weight:normal" x="246" y="20.95">
      <tspan x="246" y="20.95">I</tspan>
    </text>
    <line style="fill: none; stroke-opacity: 1; stroke-width: 1; stroke: #000000" x1="220" y1="60" x2="256" y2="36"/>
    <line style="fill: none; stroke-opacity: 1; stroke-width: 1; stroke: #000000" x1="220" y1="60" x2="200" y2="48"/>
    <path style="fill: #ffffff; fill-opacity: 1; stroke-opacity: 1; stroke-width: 1; stroke: #000000" fill-rule="evenodd" d="M 350 40 C 370,40 386,40 390,50 C 394,60 394,60 390,70 C 386,80 370,80 350,80 C 330,80 314,80 310,70 C 306,60 290,60 290,60 C 290,60 306,60 310,50 C 314,40 330,40 350,40z"/>
    <text font-size="12.8" style="fill: #000000; fill-opacity: 1; stroke: none;text-anchor:middle;font-family:sans-serif;font-style:normal;font-weight:normal" x="350" y="56.95">
      <tspan x="350" y="56.95">Good</tspan>
      <tspan x="350" y="72.95">afternoon</tspan>
    </text>
    <path style="fill: #ffffff; fill-opacity: 1; stroke-opacity: 1; stroke-width: 1; stroke: #000000" fill-rule="evenodd" d="M 90 80 C 110,80 126,80 130,90 C 134,100 150,90 150,90 C 150,90 134,100 130,110 C 126,120 110,120 90,120 C 70,120 54,120 50,110 C 46,100 46,100 50,90 C 54,80 70,80 90,80z"/>
    <text font-size="12.8" style="fill: #000000; fill-opacity: 1; stroke: none;text-anchor:middle;font-family:sans-serif;font-style:normal;font-weight:normal" x="90" y="96.95">
      <tspan x="90" y="96.95">Good</tspan>
      <tspan x="90" y="112.95">evening</tspan>
    </text>
    <path style="fill: #ffffff; fill-opacity: 1; stroke-opacity: 1; stroke-width: 1; stroke: #000000" fill-rule="evenodd" d="M 90 0 C 110,0 126,0 130,10 C 134,20 150,30 150,30 C 150,30 134,20 130,30 C 126,40 110,40 90,40 C 70,40 54,40 50,30 C 46,20 46,20 50,10 C 54,0 70,0 90,0z"/>
    <text font-size="12.8" style="fill: #000000; fill-opacity: 1; stroke: none;text-anchor:middle;font-family:sans-serif;font-style:normal;font-weight:normal" x="90" y="16.95">
      <tspan x="90" y="16.95">Good</tspan>
      <tspan x="90" y="32.95">morning</tspan>
    </text>
    <path style="fill: #ffffcc; fill-opacity: 1; stroke-opacity: 1; stroke-width: 1; stroke: #000000" fill-rule="evenodd" d="M 20 80 C 20,80 10,80 10,100 C 10,120 20,120 20,120 C 20,120 0,120 0,100 C 0,80 20,80 20,80z"/>
    <g>
      <polygon style="fill: #ffffcc; fill-opacity: 1; stroke-opacity: 1; stroke-width: 1; stroke: #000000" fill-rule="evenodd" points="20,0 22.8571,5.71429 17.1429,5.71429 "/>
      <ellipse style="fill: #ffffcc; fill-opacity: 1; stroke-opacity: 1; stroke-width: 1; stroke: #000000" cx="20" cy="20" rx="11.4286" ry="11.4286"/>
      <polygon style="fill: #ffffcc; fill-opacity: 1; stroke-opacity: 1; stroke-width: 1; stroke: #000000" fill-rule="evenodd" points="20,40 22.8571,34.2857 17.1429,34.2857 "/>
      <polygon style="fill: #ffffcc; fill-opacity: 1; stroke-opacity: 1; stroke-width: 1; stroke: #000000" fill-rule="evenodd" points="0,20 5.71429,22.8571 5.71429,17.1429 "/>
      <polygon style="fill: #ffffcc; fill-opacity: 1; stroke-opacity: 1; stroke-width: 1; stroke: #000000" fill-rule="evenodd" points="40,20 34.2857,22.8571 34.2857,17.1429 "/>
      <polygon style="fill: #ffffcc; fill-opacity: 1; stroke-opacity: 1; stroke-width: 1; stroke: #000000" fill-rule="evenodd" points="11.4286,8.57143 8.57143,11.4286 5.71429,5.71429 "/>
      <polygon style="fill: #ffffcc; fill-opacity: 1; stroke-opacity: 1; stroke-width: 1; stroke: #000000" fill-rule="evenodd" points="31.4286,28.5714 28.5714,31.4286 34.2857,34.2857 "/>
      <polygon style="fill: #ffffcc; fill-opacity: 1; stroke-opacity: 1; stroke-width: 1; stroke: #000000" fill-rule="evenodd" points="31.4286,11.4286 28.5714,8.57143 34.2857,5.71429 "/>
      <polygon style="fill: #ffffcc; fill-opacity: 1; stroke-opacity: 1; stroke-width: 1; stroke: #000000" fill-rule="evenodd" points="11.4286,31.4286 8.57143,28.5714 5.71429,34.2857 "/>
    </g>
    <g>
      <polygon style="fill: #ffffcc; fill-opacity: 1; stroke-opacity: 1; stroke-width: 1; stroke: #000000" fill-rule="evenodd" points="420,40 422.857,45.7143 417.143,45.7143 "/>
      <ellipse style="fill: #ffffcc; fill-opacity: 1; stroke-opacity: 1; stroke-width: 1; stroke: #000000" cx="420" cy="60" rx="11.4286" ry="11.4286"/>
      <polygon style="fill: #ffffcc; fill-opacity: 1; stroke-opacity: 1; stroke-width: 1; stroke: #000000" fill-rule="evenodd" points="420,80 422.857,74.2857 417.143,74.2857 "/>
      <polygon style="fill: #ffffcc; fill-opacity: 1; stroke-opacity: 1; stroke-width: 1; stroke: #000000" fill-rule="evenodd" points="400,60 405.714,62.8571 405.714,57.1429 "/>
      <polygon style="fill: #ffffcc; fill-opacity: 1; stroke-opacity: 1; stroke-width: 1; stroke: #000000" fill-rule="evenodd" points="440,60 434.286,62.8571 434.286,57.1429 "/>
      <polygon style="fill: #ffffcc; fill-opacity: 1; stroke-opacity: 1; stroke-width: 1; stroke: #000000" fill-rule="evenodd" points="411.429,48.5714 408.571,51.4286 405.714,45.7143 "/>
      <polygon style="fill: #ffffcc; fill-opacity: 1; stroke-opacity: 1; stroke-width: 1; stroke: #000000" fill-rule="evenodd" points="431.429,68.5714 428.571,71.4286 434.286,74.2857 "/>
      <polygon style="fill: #ffffcc; fill-opacity: 1; stroke-opacity: 1; stroke-width: 1; stroke: #000000" fill-rule="evenodd" points="431.429,51.4286 428.571,48.5714 434.286,45.7143 "/>
      <polygon style="fill: #ffffcc; fill-opacity: 1; stroke-opacity: 1; stroke-width: 1; stroke: #000000" fill-rule="evenodd" points="411.429,71.4286 408.571,68.5714 405.714,74.2857 "/>
    </g>
  </g>
</svg>
