<?xml version="1.0" encoding="UTF-8" standalone="no"?>
<!DOCTYPE svg PUBLIC "-//W3C//DTD SVG 1.1//EN" "http://www.w3.org/Graphics/SVG/1.1/DTD/svg11.dtd">
<svg width="35mm" height="25mm" viewBox="-1 -1 122 81" xmlns="http://www.w3.org/2000/svg" xmlns:xlink="http://www.w3.org/1999/xlink">
  <!-- Copyright (C) 2020-2021 Rudy Matela -->
  <title>Hello, You! (cscx.org/hi1, cscx.org/hi)</title>
  <desc>Hello, You! (cscx.org/hi1, cscx.org/hi).  Copyright (C) 2020-2021 Rudy Matela  This image is available under the CC BY-SA 4.0 license.</desc>
  <defs/>
  <g id="Background"/>
  <g id="Background">
    <text font-size="2.25778" style="fill: #eeeeee; fill-opacity: 1; stroke: none;text-anchor:middle;font-family:sans-serif;font-style:normal;font-weight:normal" x="60" y="36.6417">
      <tspan x="60" y="36.6417">title: Hello, You! (cscx.org/hi1, cscx.org/hi)</tspan>
      <tspan x="60" y="39.4639">Copyright (C) 2020-2021 Rudy Matela</tspan>
      <tspan x="60" y="42.2861">This image is available under the CC BY-SA 4.0 license.</tspan>
      <tspan x="60" y="45.1083">Originally available on https://cscx.org/hello-you.svg</tspan>
    </text>
    <path style="fill: #ffffff; fill-opacity: 1; stroke-opacity: 1; stroke-width: 1; stroke: #000000" fill-rule="evenodd" d="M 40 0 C 60,0 60,0 80,0 C 100,0 120,10 120,30 C 120,50 100,60 80,60 C 60,60 70,80 70,80 C 70,80 60,60 40,60 C 20,60 0,50 0,30 C 0,10 20,0 40,0z"/>
    <text font-size="12.8" style="fill: #000000; fill-opacity: 1; stroke: none;text-anchor:middle;font-family:sans-serif;font-style:normal;font-weight:normal" x="60" y="34.95">
      <tspan x="60" y="34.95">Hello, &lt;You&gt;!</tspan>
    </text>
  </g>
</svg>
