<?xml version="1.0" encoding="UTF-8" standalone="no"?>
<!DOCTYPE svg PUBLIC "-//W3C//DTD SVG 1.1//EN" "http://www.w3.org/Graphics/SVG/1.1/DTD/svg11.dtd">
<svg width="130mm" height="50mm" viewBox="-2 -1 519 190" xmlns="http://www.w3.org/2000/svg" xmlns:xlink="http://www.w3.org/1999/xlink">
  <!-- Copyright (C) 2022  Rudy Matela -->
  <title>Converting 10010 in binary to 18 in decimal</title>
  <desc>Converting 10010 in binary to 18 in decimal.  Copyright (C) 2022  Rudy Matela  This image is available under the CC BY-SA 4.0 license.</desc>
  <defs/>
  <g id="Background"/>
  <g id="Background">
    <line style="fill: none; stroke-opacity: 1; stroke-width: 1; stroke-dasharray: 4; stroke: #999999" x1="10" y1="0" x2="10" y2="120"/>
    <line style="fill: none; stroke-opacity: 1; stroke-width: 1; stroke-dasharray: 4; stroke: #999999" x1="90" y1="0" x2="90" y2="120"/>
    <line style="fill: none; stroke-opacity: 1; stroke-width: 1; stroke-dasharray: 4; stroke: #999999" x1="170" y1="0" x2="170" y2="120"/>
    <line style="fill: none; stroke-opacity: 1; stroke-width: 1; stroke-dasharray: 4; stroke: #999999" x1="250" y1="0" x2="250" y2="120"/>
    <g>
      <polyline style="fill: none; stroke-opacity: 1; stroke-width: 1; stroke: #000000" points="10,40 10,40 10,20 20,20 20,40 30,40 30,20 40,20 40,40 50,40 50,20 60,20 60,40 70,40 70,20 80,20 80,40 90,40 90,20 100,20 100,40 110,40 110,20 120,20 120,40 130,40 130,20 140,20 140,40 150,40 150,20 160,20 160,40 170,40 170,20 180,20 180,40 190,40 190,20 200,20 200,40 210,40 210,20 220,20 220,40 230,40 230,20 240,20 240,40 250,40 250,20 250,20 "/>
      <line style="fill: none; stroke-opacity: 1; stroke-width: 1; stroke: #000000" x1="0" y1="40" x2="2" y2="40"/>
      <line style="fill: none; stroke-opacity: 1; stroke-width: 1; stroke: #000000" x1="3.33333" y1="40" x2="5.33333" y2="40"/>
      <line style="fill: none; stroke-opacity: 1; stroke-width: 1; stroke: #000000" x1="6.66667" y1="40" x2="8.66667" y2="40"/>
      <line style="fill: none; stroke-opacity: 1; stroke-width: 1; stroke: #000000" x1="260" y1="20" x2="258" y2="20"/>
      <line style="fill: none; stroke-opacity: 1; stroke-width: 1; stroke: #000000" x1="256.667" y1="20" x2="254.667" y2="20"/>
      <line style="fill: none; stroke-opacity: 1; stroke-width: 1; stroke: #000000" x1="253.333" y1="20" x2="251.333" y2="20"/>
    </g>
    <text font-size="12.8" style="fill: #999999; fill-opacity: 1; stroke: none;text-anchor:middle;font-family:sans-serif;font-style:normal;font-weight:normal" x="40" y="94.95">
      <tspan x="40" y="94.95">0</tspan>
    </text>
    <text font-size="12.8" style="fill: #999999; fill-opacity: 1; stroke: none;text-anchor:middle;font-family:sans-serif;font-style:normal;font-weight:normal" x="20" y="94.95">
      <tspan x="20" y="94.95">1</tspan>
    </text>
    <g>
      <polyline style="fill: none; stroke-opacity: 1; stroke-width: 1; stroke: #000000" points="10,100 10,100 10,80 30,80 30,100 50,100 50,80 110,80 110,100 130,100 130,80 150,80 150,100 170,100 170,80 210,80 210,100 230,100 230,80 250,80 250,80 "/>
      <line style="fill: none; stroke-opacity: 1; stroke-width: 1; stroke: #000000" x1="0" y1="100" x2="2" y2="100"/>
      <line style="fill: none; stroke-opacity: 1; stroke-width: 1; stroke: #000000" x1="3.33333" y1="100" x2="5.33333" y2="100"/>
      <line style="fill: none; stroke-opacity: 1; stroke-width: 1; stroke: #000000" x1="6.66667" y1="100" x2="8.66667" y2="100"/>
      <line style="fill: none; stroke-opacity: 1; stroke-width: 1; stroke: #000000" x1="260" y1="80" x2="258" y2="80"/>
      <line style="fill: none; stroke-opacity: 1; stroke-width: 1; stroke: #000000" x1="256.667" y1="80" x2="254.667" y2="80"/>
      <line style="fill: none; stroke-opacity: 1; stroke-width: 1; stroke: #000000" x1="253.333" y1="80" x2="251.333" y2="80"/>
    </g>
    <text font-size="12.8" style="fill: #999999; fill-opacity: 1; stroke: none;text-anchor:middle;font-family:sans-serif;font-style:normal;font-weight:normal" x="120" y="94.95">
      <tspan x="120" y="94.95">0</tspan>
    </text>
    <text font-size="12.8" style="fill: #999999; fill-opacity: 1; stroke: none;text-anchor:middle;font-family:sans-serif;font-style:normal;font-weight:normal" x="60" y="94.95">
      <tspan x="60" y="94.95">1</tspan>
    </text>
    <text font-size="12.8" style="fill: #999999; fill-opacity: 1; stroke: none;text-anchor:middle;font-family:sans-serif;font-style:normal;font-weight:normal" x="220" y="94.95">
      <tspan x="220" y="94.95">0</tspan>
    </text>
    <text font-size="12.8" style="fill: #999999; fill-opacity: 1; stroke: none;text-anchor:middle;font-family:sans-serif;font-style:normal;font-weight:normal" x="80" y="94.95">
      <tspan x="80" y="94.95">1</tspan>
    </text>
    <text font-size="12.8" style="fill: #999999; fill-opacity: 1; stroke: none;text-anchor:middle;font-family:sans-serif;font-style:normal;font-weight:normal" x="100" y="94.95">
      <tspan x="100" y="94.95">1</tspan>
    </text>
    <text font-size="12.8" style="fill: #999999; fill-opacity: 1; stroke: none;text-anchor:middle;font-family:sans-serif;font-style:normal;font-weight:normal" x="140" y="94.95">
      <tspan x="140" y="94.95">1</tspan>
    </text>
    <text font-size="12.8" style="fill: #999999; fill-opacity: 1; stroke: none;text-anchor:middle;font-family:sans-serif;font-style:normal;font-weight:normal" x="160" y="94.95">
      <tspan x="160" y="94.95">0</tspan>
    </text>
    <text font-size="12.8" style="fill: #999999; fill-opacity: 1; stroke: none;text-anchor:middle;font-family:sans-serif;font-style:normal;font-weight:normal" x="240" y="94.95">
      <tspan x="240" y="94.95">1</tspan>
    </text>
    <text font-size="12.8" style="fill: #999999; fill-opacity: 1; stroke: none;text-anchor:middle;font-family:sans-serif;font-style:normal;font-weight:normal" x="180" y="94.95">
      <tspan x="180" y="94.95">1</tspan>
    </text>
    <text font-size="12.8" style="fill: #999999; fill-opacity: 1; stroke: none;text-anchor:middle;font-family:sans-serif;font-style:normal;font-weight:normal" x="200" y="94.95">
      <tspan x="200" y="94.95">1</tspan>
    </text>
    <text font-size="18.6267" style="fill: #000000; fill-opacity: 1; stroke: none;text-anchor:middle;font-family:sans-serif;font-style:normal;font-weight:normal" x="50" y="67.225">
      <tspan x="50" y="67.225">b</tspan>
    </text>
    <text font-size="18.6267" style="fill: #000000; fill-opacity: 1; stroke: none;text-anchor:middle;font-family:sans-serif;font-style:normal;font-weight:normal" x="130" y="67.225">
      <tspan x="130" y="67.225">a</tspan>
    </text>
    <text font-size="18.6267" style="fill: #000000; fill-opacity: 1; stroke: none;text-anchor:middle;font-family:sans-serif;font-style:normal;font-weight:normal" x="210" y="67.225">
      <tspan x="210" y="67.225">d</tspan>
    </text>
    <polygon style="fill: #ddeeff; fill-opacity: 1; stroke-opacity: 1; stroke-width: 1; stroke: #000000" fill-rule="evenodd" points="280,50 300,50 300,40 320,60 300,80 300,70 280,70 "/>
    <g>
      <text font-size="3.38667" style="fill: #eeeeee; fill-opacity: 1; stroke: none;text-anchor:middle;font-family:sans-serif;font-style:normal;font-weight:normal" x="431" y="79.975">
        <tspan x="431" y="79.975">title: Converting 10010 in binary to 18 in decimal</tspan>
        <tspan x="431" y="84.2083">Copyright (C) 2022  Rudy Matela</tspan>
        <tspan x="431" y="88.4417">This image is available under the CC BY-SA 4.0 license.</tspan>
        <tspan x="431" y="92.675">Originally available on https://cscx.org/hex2dec.svg</tspan>
      </text>
      <rect style="fill: #ffeedd; fill-opacity: 1; stroke-opacity: 1; stroke-width: 1; stroke: #000000" x="345" y="0" width="172" height="170" rx="0" ry="0"/>
      <rect style="fill: #ffffff; fill-opacity: 1; stroke-opacity: 1; stroke-width: 1; stroke: #000000" x="350" y="5" width="162" height="48" rx="0" ry="0"/>
      <rect style="fill: #ffffff; fill-opacity: 1; stroke-opacity: 1; stroke-width: 1; stroke: #000000" x="350" y="57" width="162" height="108" rx="0" ry="0"/>
      <line style="fill: none; stroke-opacity: 1; stroke-width: 1; stroke: #000000" x1="370" y1="5" x2="370" y2="165"/>
      <line style="fill: none; stroke-opacity: 1; stroke-width: 1; stroke: #000000" x1="410" y1="5" x2="410" y2="165"/>
      <line style="fill: none; stroke-opacity: 1; stroke-width: 1; stroke: #000000" x1="450" y1="5" x2="450" y2="165"/>
      <rect style="fill: #ffeedd; fill-opacity: 1; stroke-opacity: 1; stroke-width: 1; stroke-linejoin: round; stroke: #000000" x="440" y="84" width="20" height="10" rx="4" ry="4"/>
      <rect style="fill: #ffeedd; fill-opacity: 1; stroke-opacity: 1; stroke-width: 1; stroke-linejoin: round; stroke: #000000" x="440" y="38" width="20" height="10" rx="4" ry="4"/>
      <rect style="fill: #ffeedd; fill-opacity: 1; stroke-opacity: 1; stroke-width: 1; stroke-linejoin: round; stroke: #000000" x="440" y="64" width="20" height="10" rx="4" ry="4"/>
      <rect style="fill: #ffeedd; fill-opacity: 1; stroke-opacity: 1; stroke-width: 1; stroke-linejoin: round; stroke: #000000" x="440" y="104" width="20" height="10" rx="4" ry="4"/>
      <rect style="fill: #ffeedd; fill-opacity: 1; stroke-opacity: 1; stroke-width: 1; stroke-linejoin: round; stroke: #000000" x="440" y="150" width="20" height="10" rx="4" ry="4"/>
      <rect style="fill: #ffeedd; fill-opacity: 1; stroke-opacity: 1; stroke-width: 1; stroke-linejoin: round; stroke: #000000" x="400" y="64" width="20" height="10" rx="4" ry="4"/>
      <rect style="fill: #ffeedd; fill-opacity: 1; stroke-opacity: 1; stroke-width: 1; stroke-linejoin: round; stroke: #000000" x="400" y="38" width="20" height="10" rx="4" ry="4"/>
      <rect style="fill: #ffeedd; fill-opacity: 1; stroke-opacity: 1; stroke-width: 1; stroke-linejoin: round; stroke: #000000" x="400" y="104" width="20" height="10" rx="4" ry="4"/>
      <rect style="fill: #ffeedd; fill-opacity: 1; stroke-opacity: 1; stroke-width: 1; stroke-linejoin: round; stroke: #000000" x="400" y="84" width="20" height="10" rx="4" ry="4"/>
      <rect style="fill: #ffeedd; fill-opacity: 1; stroke-opacity: 1; stroke-width: 1; stroke-linejoin: round; stroke: #000000" x="360" y="10" width="20" height="10" rx="4" ry="4"/>
      <rect style="fill: #ffeedd; fill-opacity: 1; stroke-opacity: 1; stroke-width: 1; stroke-linejoin: round; stroke: #000000" x="360" y="150" width="20" height="10" rx="4" ry="4"/>
      <rect style="fill: #ffeedd; fill-opacity: 1; stroke-opacity: 1; stroke-width: 1; stroke-linejoin: round; stroke: #000000" x="360" y="130" width="20" height="10" rx="4" ry="4"/>
      <rect style="fill: #ffeedd; fill-opacity: 1; stroke-opacity: 1; stroke-width: 1; stroke-linejoin: round; stroke: #000000" x="360" y="84" width="20" height="10" rx="4" ry="4"/>
      <rect style="fill: #ffeedd; fill-opacity: 1; stroke-opacity: 1; stroke-width: 1; stroke-linejoin: round; stroke: #000000" x="360" y="64" width="20" height="10" rx="4" ry="4"/>
      <rect style="fill: #ffeedd; fill-opacity: 1; stroke-opacity: 1; stroke-width: 1; stroke-linejoin: round; stroke: #000000" x="400" y="124" width="20" height="10" rx="4" ry="4"/>
      <text font-size="12.8" style="fill: #000000; fill-opacity: 1; stroke: none;text-anchor:middle;font-family:sans-serif;font-style:normal;font-weight:normal" x="370" y="184.95">
        <tspan x="370" y="184.95">2</tspan>
      </text>
      <text font-size="12.8" style="fill: #000000; fill-opacity: 1; stroke: none;text-anchor:middle;font-family:sans-serif;font-style:normal;font-weight:normal" x="410" y="184.95">
        <tspan x="410" y="184.95">9</tspan>
      </text>
      <text font-size="12.8" style="fill: #000000; fill-opacity: 1; stroke: none;text-anchor:middle;font-family:sans-serif;font-style:normal;font-weight:normal" x="450" y="184.95">
        <tspan x="450" y="184.95">8</tspan>
      </text>
      <text font-size="12.8" style="fill: #000000; fill-opacity: 1; stroke: none;text-anchor:middle;font-family:sans-serif;font-style:normal;font-weight:normal" x="490" y="184.95">
        <tspan x="490" y="184.95">9</tspan>
      </text>
      <line style="fill: none; stroke-opacity: 1; stroke-width: 1; stroke-linejoin: round; stroke: #000000" x1="490" y1="5" x2="490" y2="165"/>
      <rect style="fill: #ffeedd; fill-opacity: 1; stroke-opacity: 1; stroke-width: 1; stroke-linejoin: round; stroke: #000000" x="480" y="84" width="20" height="10" rx="4" ry="4"/>
      <rect style="fill: #ffeedd; fill-opacity: 1; stroke-opacity: 1; stroke-width: 1; stroke-linejoin: round; stroke: #000000" x="480" y="38" width="20" height="10" rx="4" ry="4"/>
      <rect style="fill: #ffeedd; fill-opacity: 1; stroke-opacity: 1; stroke-width: 1; stroke-linejoin: round; stroke: #000000" x="480" y="64" width="20" height="10" rx="4" ry="4"/>
      <rect style="fill: #ffeedd; fill-opacity: 1; stroke-opacity: 1; stroke-width: 1; stroke-linejoin: round; stroke: #000000" x="480" y="104" width="20" height="10" rx="4" ry="4"/>
      <rect style="fill: #ffeedd; fill-opacity: 1; stroke-opacity: 1; stroke-width: 1; stroke-linejoin: round; stroke: #000000" x="480" y="124" width="20" height="10" rx="4" ry="4"/>
    </g>
  </g>
</svg>
