<?xml version="1.0" encoding="UTF-8" standalone="no"?>
<!DOCTYPE svg PUBLIC "-//W3C//DTD SVG 1.1//EN" "http://www.w3.org/Graphics/SVG/1.1/DTD/svg11.dtd">
<svg width="50mm" height="20mm" viewBox="-2 -2 183 73" xmlns="http://www.w3.org/2000/svg" xmlns:xlink="http://www.w3.org/1999/xlink">
  <!-- Copyright (C) 2020-2022 Rudy Matela -->
  <title>Increment (cscx.org/inc)</title>
  <desc>Increment (cscx.org/inc).  Copyright (C) 2020-2022 Rudy Matela  This image is available under the CC BY-SA 4.0 license.</desc>
  <g id="Background"/>
  <g id="Background">
    <text font-size="2.25778" style="fill: #eeeeee; fill-opacity: 1; stroke: none;text-anchor:middle;font-family:sans-serif;font-style:normal;font-weight:normal" x="30" y="36.6417">
      <tspan x="30" y="36.6417">title: Increment (cscx.org/inc)</tspan>
      <tspan x="30" y="39.4639">Copyright (C) 2020-2022 Rudy Matela</tspan>
      <tspan x="30" y="42.2861">This image is available under the CC BY-SA 4.0 license.</tspan>
      <tspan x="30" y="45.1083">Originally available on https://cscx.org/inc.svg</tspan>
    </text>
    <g>
      <ellipse style="fill: #ffa040; fill-opacity: 1; stroke-opacity: 1; stroke-width: 1; stroke: #000000" cx="20" cy="30" rx="20" ry="20"/>
      <polygon style="fill: #88cc88; fill-opacity: 1; stroke-opacity: 1; stroke-width: 1; stroke: #000000" fill-rule="evenodd" points="30,20 20,0 40,10 50,30 "/>
      <line style="fill: none; stroke-opacity: 1; stroke-width: 1; stroke: #000000" x1="20" y1="20" x2="20" y2="0"/>
    </g>
    <g>
      <ellipse style="fill: #ff8080; fill-opacity: 1; stroke-opacity: 1; stroke-width: 1; stroke: #000000" cx="40" cy="50" rx="20" ry="20"/>
      <polygon style="fill: #88cc88; fill-opacity: 1; stroke-opacity: 1; stroke-width: 1; stroke: #000000" fill-rule="evenodd" points="30,40 50,40 30,30 50,30 "/>
    </g>
    <g>
      <ellipse style="fill: #ffa040; fill-opacity: 1; stroke-opacity: 1; stroke-width: 1; stroke: #000000" cx="150" cy="40" rx="20" ry="20"/>
      <polygon style="fill: #88cc88; fill-opacity: 1; stroke-opacity: 1; stroke-width: 1; stroke: #000000" fill-rule="evenodd" points="160,30 150,10 170,20 180,40 "/>
      <line style="fill: none; stroke-opacity: 1; stroke-width: 1; stroke: #000000" x1="150" y1="30" x2="150" y2="10"/>
    </g>
    <g>
      <path style="fill: none; stroke-opacity: 1; stroke-width: 1; stroke: #000000" d="M 120,30 A 50,50 0 0 0 67.2302,25.4856"/>
      <polygon style="fill: #000000; fill-opacity: 1; stroke-opacity: 1; stroke-width: 1; stroke: #000000" fill-rule="evenodd" points="60.8944,29.3292 65.8944,19.3292 66.8944,24.8292 71.8944,27.3292 "/>
    </g>
    <text font-size="27.0933" style="fill: #000000; fill-opacity: 1; stroke: none;text-anchor:middle;font-family:sans-serif;font-style:normal;font-weight:normal" x="90" y="50.525">
      <tspan x="90" y="50.525">+1</tspan>
    </text>
  </g>
</svg>
