<?xml version="1.0" encoding="UTF-8" standalone="no"?>
<!DOCTYPE svg PUBLIC "-//W3C//DTD SVG 1.1//EN" "http://www.w3.org/Graphics/SVG/1.1/DTD/svg11.dtd">
<svg width="115mm" height="115mm" viewBox="-2 -2 443 443" xmlns="http://www.w3.org/2000/svg" xmlns:xlink="http://www.w3.org/1999/xlink">
  <!-- Copyright (C) 2020-2021 Rudy Matela -->
  <title>examples of rectangle intersections on a place (cscx.org/intersect)</title>
  <desc>examples of rectangle intersections on a place (cscx.org/intersect).  Copyright (C) 2020-2021 Rudy Matela  This image is available under the CC BY-SA 4.0 license.</desc>
  <defs/>
  <g id="Background"/>
  <g id="Background">
    <text font-size="2.82222" style="fill: #cccccc; fill-opacity: 1; stroke: none;text-anchor:middle;font-family:sans-serif;font-style:normal;font-weight:normal" x="140" y="295.808">
      <tspan x="140" y="295.808">title: examples of rectangle intersections on a place (cscx.org/intersect)</tspan>
      <tspan x="140" y="299.336">Copyright (C) 2020-2021 Rudy Matela</tspan>
      <tspan x="140" y="302.864">This image is available under the CC BY-SA 4.0 license.</tspan>
      <tspan x="140" y="306.392">Originally available on https://cscx.org/intersect-examples.svg</tspan>
    </text>
    <rect style="fill: #ffffff; fill-opacity: 1; stroke-opacity: 1; stroke-width: 1; stroke: #000000" x="80" y="280" width="120" height="40" rx="0" ry="0"/>
    <rect style="fill: none; stroke-opacity: 1; stroke-width: 1; stroke: #000000" x="120" y="240" width="40" height="120" rx="0" ry="0"/>
    <text font-size="12.8" style="fill: #000000; fill-opacity: 1; stroke: none;text-anchor:middle;font-family:sans-serif;font-style:normal;font-weight:normal" x="80" y="333.7">
      <tspan x="80" y="333.7">(1,2)</tspan>
    </text>
    <text font-size="12.8" style="fill: #000000; fill-opacity: 1; stroke: none;text-anchor:middle;font-family:sans-serif;font-style:normal;font-weight:normal" x="200" y="276.2">
      <tspan x="200" y="276.2">(4,3)</tspan>
    </text>
    <text font-size="12.8" style="fill: #000000; fill-opacity: 1; stroke: none;text-anchor:middle;font-family:sans-serif;font-style:normal;font-weight:normal" x="160" y="236.2">
      <tspan x="160" y="236.2">(3,4)</tspan>
    </text>
    <text font-size="12.8" style="fill: #000000; fill-opacity: 1; stroke: none;text-anchor:middle;font-family:sans-serif;font-style:normal;font-weight:normal" x="120" y="373.7">
      <tspan x="120" y="373.7">(2,1)</tspan>
    </text>
    <g>
      <line style="fill: none; stroke-opacity: 1; stroke-width: 1; stroke: #000000" x1="20" y1="400" x2="420" y2="400"/>
      <line style="fill: none; stroke-opacity: 1; stroke-width: 1; stroke: #000000" x1="0" y1="400" x2="4" y2="400"/>
      <line style="fill: none; stroke-opacity: 1; stroke-width: 1; stroke: #000000" x1="6.66667" y1="400" x2="10.6667" y2="400"/>
      <line style="fill: none; stroke-opacity: 1; stroke-width: 1; stroke: #000000" x1="13.3333" y1="400" x2="17.3333" y2="400"/>
      <line style="fill: none; stroke-opacity: 1; stroke-width: 1; stroke: #000000" x1="440" y1="400" x2="436" y2="400"/>
      <line style="fill: none; stroke-opacity: 1; stroke-width: 1; stroke: #000000" x1="433.333" y1="400" x2="429.333" y2="400"/>
      <line style="fill: none; stroke-opacity: 1; stroke-width: 1; stroke: #000000" x1="426.667" y1="400" x2="422.667" y2="400"/>
    </g>
    <g>
      <line style="fill: none; stroke-opacity: 1; stroke-width: 1; stroke: #000000" x1="40" y1="420" x2="40" y2="20"/>
      <line style="fill: none; stroke-opacity: 1; stroke-width: 1; stroke: #000000" x1="40" y1="440" x2="40" y2="436"/>
      <line style="fill: none; stroke-opacity: 1; stroke-width: 1; stroke: #000000" x1="40" y1="433.333" x2="40" y2="429.333"/>
      <line style="fill: none; stroke-opacity: 1; stroke-width: 1; stroke: #000000" x1="40" y1="426.667" x2="40" y2="422.667"/>
      <line style="fill: none; stroke-opacity: 1; stroke-width: 1; stroke: #000000" x1="40" y1="0" x2="40" y2="4"/>
      <line style="fill: none; stroke-opacity: 1; stroke-width: 1; stroke: #000000" x1="40" y1="6.66667" x2="40" y2="10.6667"/>
      <line style="fill: none; stroke-opacity: 1; stroke-width: 1; stroke: #000000" x1="40" y1="13.3333" x2="40" y2="17.3333"/>
    </g>
    <line style="fill: none; stroke-opacity: 1; stroke-width: 1; stroke: #000000" x1="120" y1="410" x2="120" y2="390"/>
    <line style="fill: none; stroke-opacity: 1; stroke-width: 1; stroke: #000000" x1="160" y1="410" x2="160" y2="390"/>
    <line style="fill: none; stroke-opacity: 1; stroke-width: 1; stroke: #000000" x1="200" y1="410" x2="200" y2="390"/>
    <line style="fill: none; stroke-opacity: 1; stroke-width: 1; stroke: #000000" x1="50" y1="360" x2="30" y2="360"/>
    <line style="fill: none; stroke-opacity: 1; stroke-width: 1; stroke: #000000" x1="50" y1="320" x2="30" y2="320"/>
    <line style="fill: none; stroke-opacity: 1; stroke-width: 1; stroke: #000000" x1="50" y1="280" x2="30" y2="280"/>
    <line style="fill: none; stroke-opacity: 1; stroke-width: 1; stroke: #000000" x1="50" y1="240" x2="30" y2="240"/>
    <line style="fill: none; stroke-opacity: 1; stroke-width: 1; stroke: #000000" x1="80" y1="410" x2="80" y2="390"/>
    <text font-size="12.8" style="fill: #000000; fill-opacity: 1; stroke: none;text-anchor:middle;font-family:sans-serif;font-style:normal;font-weight:normal" x="80" y="423.7">
      <tspan x="80" y="423.7">1</tspan>
    </text>
    <text font-size="12.8" style="fill: #000000; fill-opacity: 1; stroke: none;text-anchor:middle;font-family:sans-serif;font-style:normal;font-weight:normal" x="120" y="423.7">
      <tspan x="120" y="423.7">2</tspan>
    </text>
    <text font-size="12.8" style="fill: #000000; fill-opacity: 1; stroke: none;text-anchor:middle;font-family:sans-serif;font-style:normal;font-weight:normal" x="160" y="423.7">
      <tspan x="160" y="423.7">3</tspan>
    </text>
    <text font-size="12.8" style="fill: #000000; fill-opacity: 1; stroke: none;text-anchor:middle;font-family:sans-serif;font-style:normal;font-weight:normal" x="200" y="423.7">
      <tspan x="200" y="423.7">4</tspan>
    </text>
    <text font-size="12.8" style="fill: #000000; fill-opacity: 1; stroke: none;text-anchor:end;font-family:sans-serif;font-style:normal;font-weight:normal" x="30" y="364.95">
      <tspan x="30" y="364.95">1</tspan>
    </text>
    <text font-size="12.8" style="fill: #000000; fill-opacity: 1; stroke: none;text-anchor:end;font-family:sans-serif;font-style:normal;font-weight:normal" x="30" y="324.95">
      <tspan x="30" y="324.95">2</tspan>
    </text>
    <text font-size="12.8" style="fill: #000000; fill-opacity: 1; stroke: none;text-anchor:end;font-family:sans-serif;font-style:normal;font-weight:normal" x="30" y="284.95">
      <tspan x="30" y="284.95">3</tspan>
    </text>
    <text font-size="12.8" style="fill: #000000; fill-opacity: 1; stroke: none;text-anchor:end;font-family:sans-serif;font-style:normal;font-weight:normal" x="30" y="244.95">
      <tspan x="30" y="244.95">4</tspan>
    </text>
    <text font-size="12.8" style="fill: #000000; fill-opacity: 1; stroke: none;text-anchor:end;font-family:sans-serif;font-style:normal;font-weight:normal" x="30" y="423.7">
      <tspan x="30" y="423.7">0</tspan>
    </text>
    <line style="fill: none; stroke-opacity: 1; stroke-width: 1; stroke: #000000" x1="280" y1="410" x2="280" y2="390"/>
    <line style="fill: none; stroke-opacity: 1; stroke-width: 1; stroke: #000000" x1="320" y1="410" x2="320" y2="390"/>
    <line style="fill: none; stroke-opacity: 1; stroke-width: 1; stroke: #000000" x1="360" y1="410" x2="360" y2="390"/>
    <line style="fill: none; stroke-opacity: 1; stroke-width: 1; stroke: #000000" x1="240" y1="410" x2="240" y2="390"/>
    <text font-size="12.8" style="fill: #000000; fill-opacity: 1; stroke: none;text-anchor:middle;font-family:sans-serif;font-style:normal;font-weight:normal" x="240" y="423.7">
      <tspan x="240" y="423.7">5</tspan>
    </text>
    <text font-size="12.8" style="fill: #000000; fill-opacity: 1; stroke: none;text-anchor:middle;font-family:sans-serif;font-style:normal;font-weight:normal" x="280" y="423.7">
      <tspan x="280" y="423.7">6</tspan>
    </text>
    <text font-size="12.8" style="fill: #000000; fill-opacity: 1; stroke: none;text-anchor:middle;font-family:sans-serif;font-style:normal;font-weight:normal" x="320" y="423.7">
      <tspan x="320" y="423.7">7</tspan>
    </text>
    <text font-size="12.8" style="fill: #000000; fill-opacity: 1; stroke: none;text-anchor:middle;font-family:sans-serif;font-style:normal;font-weight:normal" x="360" y="423.7">
      <tspan x="360" y="423.7">8</tspan>
    </text>
    <text font-size="12.8" style="fill: #000000; fill-opacity: 1; stroke: none;text-anchor:middle;font-family:sans-serif;font-style:normal;font-weight:normal" x="140" y="224.95">
      <tspan x="140" y="224.95">cross intersection</tspan>
    </text>
    <rect style="fill: none; stroke-opacity: 1; stroke-width: 1; stroke: #000000" x="160" y="80" width="40" height="80" rx="0" ry="0"/>
    <rect style="fill: none; stroke-opacity: 1; stroke-width: 1; stroke: #000000" x="80" y="40" width="80" height="80" rx="0" ry="0"/>
    <text font-size="12.8" style="fill: #000000; fill-opacity: 1; stroke: none;text-anchor:middle;font-family:sans-serif;font-style:normal;font-weight:normal" x="140" y="24.95">
      <tspan x="140" y="24.95">border intersection</tspan>
    </text>
    <text font-size="12.8" style="fill: #000000; fill-opacity: 1; stroke: none;text-anchor:middle;font-family:sans-serif;font-style:normal;font-weight:normal" x="340" y="24.95">
      <tspan x="340" y="24.95">point intersection</tspan>
    </text>
    <line style="fill: none; stroke-opacity: 1; stroke-width: 1; stroke: #000000" x1="50" y1="200" x2="30" y2="200"/>
    <line style="fill: none; stroke-opacity: 1; stroke-width: 1; stroke: #000000" x1="50" y1="160" x2="30" y2="160"/>
    <line style="fill: none; stroke-opacity: 1; stroke-width: 1; stroke: #000000" x1="50" y1="120" x2="30" y2="120"/>
    <line style="fill: none; stroke-opacity: 1; stroke-width: 1; stroke: #000000" x1="50" y1="80" x2="30" y2="80"/>
    <text font-size="12.8" style="fill: #000000; fill-opacity: 1; stroke: none;text-anchor:end;font-family:sans-serif;font-style:normal;font-weight:normal" x="30" y="204.95">
      <tspan x="30" y="204.95">5</tspan>
    </text>
    <text font-size="12.8" style="fill: #000000; fill-opacity: 1; stroke: none;text-anchor:end;font-family:sans-serif;font-style:normal;font-weight:normal" x="30" y="164.95">
      <tspan x="30" y="164.95">6</tspan>
    </text>
    <text font-size="12.8" style="fill: #000000; fill-opacity: 1; stroke: none;text-anchor:end;font-family:sans-serif;font-style:normal;font-weight:normal" x="30" y="124.95">
      <tspan x="30" y="124.95">7</tspan>
    </text>
    <text font-size="12.8" style="fill: #000000; fill-opacity: 1; stroke: none;text-anchor:end;font-family:sans-serif;font-style:normal;font-weight:normal" x="30" y="84.95">
      <tspan x="30" y="84.95">8</tspan>
    </text>
    <rect style="fill: none; stroke-opacity: 1; stroke-width: 1; stroke: #000000" x="360" y="80" width="40" height="80" rx="0" ry="0"/>
    <rect style="fill: none; stroke-opacity: 1; stroke-width: 1; stroke: #000000" x="280" y="40" width="80" height="40" rx="0" ry="0"/>
    <rect style="fill: none; stroke-opacity: 1; stroke-width: 1; stroke: #000000" x="320" y="240" width="80" height="120" rx="0" ry="0"/>
    <rect style="fill: none; stroke-opacity: 1; stroke-width: 1; stroke: #000000" x="280" y="280" width="80" height="40" rx="0" ry="0"/>
    <text font-size="12.8" style="fill: #000000; fill-opacity: 1; stroke: none;text-anchor:middle;font-family:sans-serif;font-style:normal;font-weight:normal" x="340" y="224.95">
      <tspan x="340" y="224.95">overlap intersection</tspan>
    </text>
    <line style="fill: none; stroke-opacity: 1; stroke-width: 1; stroke: #000000" x1="50" y1="40" x2="30" y2="40"/>
    <text font-size="12.8" style="fill: #000000; fill-opacity: 1; stroke: none;text-anchor:end;font-family:sans-serif;font-style:normal;font-weight:normal" x="30" y="44.95">
      <tspan x="30" y="44.95">9</tspan>
    </text>
    <line style="fill: none; stroke-opacity: 1; stroke-width: 1; stroke: #000000" x1="400" y1="410" x2="400" y2="390"/>
    <text font-size="12.8" style="fill: #000000; fill-opacity: 1; stroke: none;text-anchor:middle;font-family:sans-serif;font-style:normal;font-weight:normal" x="400" y="423.7">
      <tspan x="400" y="423.7">9</tspan>
    </text>
    <text font-size="12.8" style="fill: #000000; fill-opacity: 1; stroke: none;text-anchor:middle;font-family:sans-serif;font-style:normal;font-weight:normal" x="80" y="133.7">
      <tspan x="80" y="133.7">(1,7)</tspan>
    </text>
    <text font-size="12.8" style="fill: #000000; fill-opacity: 1; stroke: none;text-anchor:middle;font-family:sans-serif;font-style:normal;font-weight:normal" x="160" y="36.2">
      <tspan x="160" y="36.2">(3,9)</tspan>
    </text>
    <text font-size="12.8" style="fill: #000000; fill-opacity: 1; stroke: none;text-anchor:middle;font-family:sans-serif;font-style:normal;font-weight:normal" x="160" y="173.7">
      <tspan x="160" y="173.7">(3,6)</tspan>
    </text>
    <text font-size="12.8" style="fill: #000000; fill-opacity: 1; stroke: none;text-anchor:middle;font-family:sans-serif;font-style:normal;font-weight:normal" x="200" y="76.2">
      <tspan x="200" y="76.2">(4,8)</tspan>
    </text>
    <text font-size="12.8" style="fill: #000000; fill-opacity: 1; stroke: none;text-anchor:middle;font-family:sans-serif;font-style:normal;font-weight:normal" x="280" y="333.7">
      <tspan x="280" y="333.7">(6,2)</tspan>
    </text>
    <text font-size="12.8" style="fill: #000000; fill-opacity: 1; stroke: none;text-anchor:middle;font-family:sans-serif;font-style:normal;font-weight:normal" x="360" y="276.2">
      <tspan x="360" y="276.2">(8,3)</tspan>
    </text>
    <text font-size="12.8" style="fill: #000000; fill-opacity: 1; stroke: none;text-anchor:middle;font-family:sans-serif;font-style:normal;font-weight:normal" x="320" y="373.7">
      <tspan x="320" y="373.7">(7,1)</tspan>
    </text>
    <text font-size="12.8" style="fill: #000000; fill-opacity: 1; stroke: none;text-anchor:middle;font-family:sans-serif;font-style:normal;font-weight:normal" x="400" y="236.2">
      <tspan x="400" y="236.2">(9,4)</tspan>
    </text>
    <text font-size="12.8" style="fill: #000000; fill-opacity: 1; stroke: none;text-anchor:middle;font-family:sans-serif;font-style:normal;font-weight:normal" x="280" y="93.7">
      <tspan x="280" y="93.7">(6,8)</tspan>
    </text>
    <text font-size="12.8" style="fill: #000000; fill-opacity: 1; stroke: none;text-anchor:middle;font-family:sans-serif;font-style:normal;font-weight:normal" x="360" y="36.2">
      <tspan x="360" y="36.2">(8,9)</tspan>
    </text>
    <text font-size="12.8" style="fill: #000000; fill-opacity: 1; stroke: none;text-anchor:middle;font-family:sans-serif;font-style:normal;font-weight:normal" x="360" y="173.7">
      <tspan x="360" y="173.7">(8,6)</tspan>
    </text>
    <text font-size="12.8" style="fill: #000000; fill-opacity: 1; stroke: none;text-anchor:middle;font-family:sans-serif;font-style:normal;font-weight:normal" x="400" y="76.2">
      <tspan x="400" y="76.2">(9,8)</tspan>
    </text>
    <line style="fill: none; stroke-opacity: 1; stroke-width: 2; stroke: #000000" x1="160" y1="80" x2="160" y2="120"/>
    <rect style="fill: none; stroke-opacity: 1; stroke-width: 2; stroke: #000000" x="120" y="280" width="40" height="40" rx="0" ry="0"/>
    <rect style="fill: none; stroke-opacity: 1; stroke-width: 2; stroke: #000000" x="320" y="280" width="40" height="40" rx="0" ry="0"/>
    <line style="fill: none; stroke-opacity: 1; stroke-width: 2; stroke: #000000" x1="160" y1="280" x2="120" y2="320"/>
    <line style="fill: none; stroke-opacity: 1; stroke-width: 2; stroke: #000000" x1="160" y1="290" x2="130" y2="320"/>
    <line style="fill: none; stroke-opacity: 1; stroke-width: 2; stroke: #000000" x1="150" y1="280" x2="120" y2="310"/>
    <line style="fill: none; stroke-opacity: 1; stroke-width: 2; stroke: #000000" x1="140" y1="280" x2="120" y2="300"/>
    <line style="fill: none; stroke-opacity: 1; stroke-width: 2; stroke: #000000" x1="130" y1="280" x2="120" y2="290"/>
    <line style="fill: none; stroke-opacity: 1; stroke-width: 2; stroke: #000000" x1="160" y1="300" x2="140" y2="320"/>
    <line style="fill: none; stroke-opacity: 1; stroke-width: 2; stroke: #000000" x1="160" y1="310" x2="150" y2="320"/>
    <line style="fill: none; stroke-opacity: 1; stroke-width: 2; stroke: #000000" x1="360" y1="280" x2="320" y2="320"/>
    <line style="fill: none; stroke-opacity: 1; stroke-width: 2; stroke: #000000" x1="360" y1="290" x2="330" y2="320"/>
    <line style="fill: none; stroke-opacity: 1; stroke-width: 2; stroke: #000000" x1="350" y1="280" x2="320" y2="310"/>
    <line style="fill: none; stroke-opacity: 1; stroke-width: 2; stroke: #000000" x1="340" y1="280" x2="320" y2="300"/>
    <line style="fill: none; stroke-opacity: 1; stroke-width: 2; stroke: #000000" x1="330" y1="280" x2="320" y2="290"/>
    <line style="fill: none; stroke-opacity: 1; stroke-width: 2; stroke: #000000" x1="360" y1="300" x2="340" y2="320"/>
    <line style="fill: none; stroke-opacity: 1; stroke-width: 2; stroke: #000000" x1="360" y1="310" x2="350" y2="320"/>
    <polyline style="fill: none; stroke-opacity: 1; stroke-width: 2; stroke: #000000" points="162,78 158,82 162,86 158,90 162,94 158,98 162,102 158,106 162,110 158,114 162,118 158,122 "/>
    <line style="fill: none; stroke-opacity: 1; stroke-width: 2; stroke: #000000" x1="356" y1="84" x2="364" y2="76"/>
    <line style="fill: none; stroke-opacity: 1; stroke-width: 2; stroke: #000000" x1="356" y1="76" x2="364" y2="84"/>
  </g>
</svg>
