<?xml version="1.0" encoding="UTF-8" standalone="no"?>
<!DOCTYPE svg PUBLIC "-//W3C//DTD SVG 1.1//EN" "http://www.w3.org/Graphics/SVG/1.1/DTD/svg11.dtd">
<svg width="50mm" height="60mm" viewBox="2 0 181 233" xmlns="http://www.w3.org/2000/svg" xmlns:xlink="http://www.w3.org/1999/xlink">
  <!-- Copyright (C) 2020-2022 Rudy Matela -->
  <title>One tree with seven branches each with three leaves (cscx.org/mult)</title>
  <desc>One tree with seven branches each with three leaves (cscx.org/mult).  Copyright (C) 2020-2022 Rudy Matela  This image is available under the CC BY-SA 4.0 license.</desc>
  <g id="Background"/>
  <g id="Background">
    <text font-size="2.25778" style="fill: #eeeeee; fill-opacity: 1; stroke: none;text-anchor:middle;font-family:sans-serif;font-style:normal;font-weight:normal" x="80" y="156.642">
      <tspan x="80" y="156.642">title: One tree with seven branches each with three leaves (cscx.org/mult)</tspan>
      <tspan x="80" y="159.464">Copyright (C) 2020-2022 Rudy Matela</tspan>
      <tspan x="80" y="162.286">This image is available under the CC BY-SA 4.0 license.</tspan>
      <tspan x="80" y="165.108">Originally available on https://cscx.org/mult.svg</tspan>
    </text>
    <polygon style="fill: #ffa040; fill-opacity: 1; stroke-opacity: 1; stroke-width: 1; stroke: #000000" fill-rule="evenodd" points="76,124 32,102 32,92 80,108 80,80 52,62 52,52 82,62 84,24 92,24 96,52 122,42 122,52 100,68 100,96 142,82 142,92 104,112 104,148 152,132 152,142 112,162 112,232 72,232 72,172 32,152 32,142 76,156 "/>
    <polygon style="fill: #88cc88; fill-opacity: 1; stroke-opacity: 1; stroke-width: 1; stroke: #000000" fill-rule="evenodd" points="20,160 36,152 28,168 12,176 "/>
    <polygon style="fill: #88cc88; fill-opacity: 1; stroke-opacity: 1; stroke-width: 1; stroke: #000000" fill-rule="evenodd" points="24,140 16,124 32,132 40,148 "/>
    <polygon style="fill: #88cc88; fill-opacity: 1; stroke-opacity: 1; stroke-width: 1; stroke: #000000" fill-rule="evenodd" points="20,144 36,148 20,156 4,152 "/>
    <polygon style="fill: #88cc88; fill-opacity: 1; stroke-opacity: 1; stroke-width: 1; stroke: #000000" fill-rule="evenodd" points="20,108 36,100 28,116 12,124 "/>
    <polygon style="fill: #88cc88; fill-opacity: 1; stroke-opacity: 1; stroke-width: 1; stroke: #000000" fill-rule="evenodd" points="24,88 16,72 32,80 40,96 "/>
    <polygon style="fill: #88cc88; fill-opacity: 1; stroke-opacity: 1; stroke-width: 1; stroke: #000000" fill-rule="evenodd" points="20,92 36,96 20,104 4,100 "/>
    <polygon style="fill: #88cc88; fill-opacity: 1; stroke-opacity: 1; stroke-width: 1; stroke: #000000" fill-rule="evenodd" points="44,68 60,60 52,76 36,84 "/>
    <polygon style="fill: #88cc88; fill-opacity: 1; stroke-opacity: 1; stroke-width: 1; stroke: #000000" fill-rule="evenodd" points="44,52 36,36 52,44 60,60 "/>
    <polygon style="fill: #88cc88; fill-opacity: 1; stroke-opacity: 1; stroke-width: 1; stroke: #000000" fill-rule="evenodd" points="40,56 56,60 40,68 24,64 "/>
    <polygon style="fill: #88cc88; fill-opacity: 1; stroke-opacity: 1; stroke-width: 1; stroke: #000000" fill-rule="evenodd" points="70,20 62,4 78,12 86,28 "/>
    <polygon style="fill: #88cc88; fill-opacity: 1; stroke-opacity: 1; stroke-width: 1; stroke: #000000" fill-rule="evenodd" points="90,28 98,12 114,4 106,20 "/>
    <polygon style="fill: #88cc88; fill-opacity: 1; stroke-opacity: 1; stroke-width: 1; stroke: #000000" fill-rule="evenodd" points="86,2 92,16 88,28 84,16 "/>
    <polygon style="fill: #88cc88; fill-opacity: 1; stroke-opacity: 1; stroke-width: 1; stroke: #000000" fill-rule="evenodd" points="132,42 148,46 132,54 116,50 "/>
    <polygon style="fill: #88cc88; fill-opacity: 1; stroke-opacity: 1; stroke-width: 1; stroke: #000000" fill-rule="evenodd" points="122,32 138,24 130,40 114,48 "/>
    <polygon style="fill: #88cc88; fill-opacity: 1; stroke-opacity: 1; stroke-width: 1; stroke: #000000" fill-rule="evenodd" points="120,68 112,52 128,60 136,76 "/>
    <polygon style="fill: #88cc88; fill-opacity: 1; stroke-opacity: 1; stroke-width: 1; stroke: #000000" fill-rule="evenodd" points="154,82 170,86 154,94 138,90 "/>
    <polygon style="fill: #88cc88; fill-opacity: 1; stroke-opacity: 1; stroke-width: 1; stroke: #000000" fill-rule="evenodd" points="144,72 160,64 152,80 136,88 "/>
    <polygon style="fill: #88cc88; fill-opacity: 1; stroke-opacity: 1; stroke-width: 1; stroke: #000000" fill-rule="evenodd" points="142,108 134,92 150,100 158,116 "/>
    <polygon style="fill: #88cc88; fill-opacity: 1; stroke-opacity: 1; stroke-width: 1; stroke: #000000" fill-rule="evenodd" points="166,130 182,134 166,142 150,138 "/>
    <polygon style="fill: #88cc88; fill-opacity: 1; stroke-opacity: 1; stroke-width: 1; stroke: #000000" fill-rule="evenodd" points="156,120 172,112 164,128 148,136 "/>
    <polygon style="fill: #88cc88; fill-opacity: 1; stroke-opacity: 1; stroke-width: 1; stroke: #000000" fill-rule="evenodd" points="154,156 146,140 162,148 170,164 "/>
  </g>
</svg>
