<?xml version="1.0" encoding="UTF-8" standalone="no"?>
<!DOCTYPE svg PUBLIC "-//W3C//DTD SVG 1.1//EN" "http://www.w3.org/Graphics/SVG/1.1/DTD/svg11.dtd">
<svg width="95mm" height="65mm" viewBox="-2 -3 372 245" xmlns="http://www.w3.org/2000/svg" xmlns:xlink="http://www.w3.org/1999/xlink">
  <!-- Copyright (C) 2020-2022 Rudy Matela -->
  <title>Odd an even numbers represented graphically (cscx.org/oddeven)</title>
  <desc>Odd an even numbers represented graphically (cscx.org/oddeven).  Copyright (C) 2020-2022 Rudy Matela  This image is available under the CC BY-SA 4.0 license.</desc>
  <g id="Background"/>
  <g id="Background">
    <path style="fill: none; stroke-opacity: 1; stroke-width: 2; stroke-dasharray: 10; stroke: #008000" d="M 0 60 C 0,20 60,30 70,40 C 80,50 140,40 140,80 C 140,120 80,110 70,100 C 60,90 0,100 0,60"/>
    <text font-size="2.25778" style="fill: #eeeeee; fill-opacity: 1; stroke: none;text-anchor:middle;font-family:sans-serif;font-style:normal;font-weight:normal" x="180" y="36.6417">
      <tspan x="180" y="36.6417">title: Odd an even numbers represented graphically (cscx.org/oddeven)</tspan>
      <tspan x="180" y="39.4639">Copyright (C) 2020-2022 Rudy Matela</tspan>
      <tspan x="180" y="42.2861">This image is available under the CC BY-SA 4.0 license.</tspan>
      <tspan x="180" y="45.1083">Originally available on https://cscx.org/oddeven.svg</tspan>
    </text>
    <g>
      <polygon style="fill: #eeeeee; fill-opacity: 1; stroke-opacity: 1; stroke-width: 1; stroke: #000000" fill-rule="evenodd" points="40,40 50,40 60,50 60,68 50,80 30,80 20,76 24,44 "/>
      <polyline style="fill: none; stroke-opacity: 1; stroke-width: 1; stroke: #000000" points="40,60 30,70 "/>
      <polyline style="fill: none; stroke-opacity: 1; stroke-width: 1; stroke: #000000" points="44,68 40,60 "/>
      <polyline style="fill: none; stroke-opacity: 1; stroke-width: 1; stroke: #000000" points="44,68 60,59 "/>
      <polyline style="fill: none; stroke-opacity: 1; stroke-width: 1; stroke: #000000" points="22,60 30,70 "/>
      <polyline style="fill: none; stroke-opacity: 1; stroke-width: 1; stroke: #000000" points="50,40 40,60 "/>
    </g>
    <g>
      <polygon style="fill: #eeeeee; fill-opacity: 1; stroke-opacity: 1; stroke-width: 1; stroke: #000000" fill-rule="evenodd" points="100,60 110,60 120,70 120,88 110,100 90,100 80,96 84,64 "/>
      <polyline style="fill: none; stroke-opacity: 1; stroke-width: 1; stroke: #000000" points="100,80 90,90 "/>
      <polyline style="fill: none; stroke-opacity: 1; stroke-width: 1; stroke: #000000" points="104,88 100,80 "/>
      <polyline style="fill: none; stroke-opacity: 1; stroke-width: 1; stroke: #000000" points="104,88 120,79 "/>
      <polyline style="fill: none; stroke-opacity: 1; stroke-width: 1; stroke: #000000" points="82,80 90,90 "/>
      <polyline style="fill: none; stroke-opacity: 1; stroke-width: 1; stroke: #000000" points="110,60 100,80 "/>
    </g>
    <g>
      <polygon style="fill: #eeeeee; fill-opacity: 1; stroke-opacity: 1; stroke-width: 1; stroke: #000000" fill-rule="evenodd" points="40,120 50,120 60,130 60,148 50,160 30,160 20,156 24,124 "/>
      <polyline style="fill: none; stroke-opacity: 1; stroke-width: 1; stroke: #000000" points="40,140 30,150 "/>
      <polyline style="fill: none; stroke-opacity: 1; stroke-width: 1; stroke: #000000" points="44,148 40,140 "/>
      <polyline style="fill: none; stroke-opacity: 1; stroke-width: 1; stroke: #000000" points="44,148 60,139 "/>
      <polyline style="fill: none; stroke-opacity: 1; stroke-width: 1; stroke: #000000" points="22,140 30,150 "/>
      <polyline style="fill: none; stroke-opacity: 1; stroke-width: 1; stroke: #000000" points="50,120 40,140 "/>
    </g>
    <g>
      <polygon style="fill: #eeeeee; fill-opacity: 1; stroke-opacity: 1; stroke-width: 1; stroke: #000000" fill-rule="evenodd" points="100,120 110,120 120,130 120,148 110,160 90,160 80,156 84,124 "/>
      <polyline style="fill: none; stroke-opacity: 1; stroke-width: 1; stroke: #000000" points="100,140 90,150 "/>
      <polyline style="fill: none; stroke-opacity: 1; stroke-width: 1; stroke: #000000" points="104,148 100,140 "/>
      <polyline style="fill: none; stroke-opacity: 1; stroke-width: 1; stroke: #000000" points="104,148 120,139 "/>
      <polyline style="fill: none; stroke-opacity: 1; stroke-width: 1; stroke: #000000" points="82,140 90,150 "/>
      <polyline style="fill: none; stroke-opacity: 1; stroke-width: 1; stroke: #000000" points="110,120 100,140 "/>
    </g>
    <g>
      <polygon style="fill: #eeeeee; fill-opacity: 1; stroke-opacity: 1; stroke-width: 1; stroke: #000000" fill-rule="evenodd" points="60,180 70,180 80,190 80,208 70,220 50,220 40,216 44,184 "/>
      <polyline style="fill: none; stroke-opacity: 1; stroke-width: 1; stroke: #000000" points="60,200 50,210 "/>
      <polyline style="fill: none; stroke-opacity: 1; stroke-width: 1; stroke: #000000" points="64,208 60,200 "/>
      <polyline style="fill: none; stroke-opacity: 1; stroke-width: 1; stroke: #000000" points="64,208 80,199 "/>
      <polyline style="fill: none; stroke-opacity: 1; stroke-width: 1; stroke: #000000" points="42,200 50,210 "/>
      <polyline style="fill: none; stroke-opacity: 1; stroke-width: 1; stroke: #000000" points="70,180 60,200 "/>
    </g>
    <g>
      <polygon style="fill: #eeeeee; fill-opacity: 1; stroke-opacity: 1; stroke-width: 1; stroke: #000000" fill-rule="evenodd" points="120,180 130,180 140,190 140,208 130,220 110,220 100,216 104,184 "/>
      <polyline style="fill: none; stroke-opacity: 1; stroke-width: 1; stroke: #000000" points="120,200 110,210 "/>
      <polyline style="fill: none; stroke-opacity: 1; stroke-width: 1; stroke: #000000" points="124,208 120,200 "/>
      <polyline style="fill: none; stroke-opacity: 1; stroke-width: 1; stroke: #000000" points="124,208 140,199 "/>
      <polyline style="fill: none; stroke-opacity: 1; stroke-width: 1; stroke: #000000" points="102,200 110,210 "/>
      <polyline style="fill: none; stroke-opacity: 1; stroke-width: 1; stroke: #000000" points="130,180 120,200 "/>
    </g>
    <text font-size="24.8356" style="fill: #000000; fill-opacity: 1; stroke: none;text-anchor:middle;font-family:sans-serif;font-style:normal;font-weight:normal" x="80" y="29.625">
      <tspan x="80" y="29.625">even</tspan>
    </text>
    <text font-size="24.8356" style="fill: #000000; fill-opacity: 1; stroke: none;text-anchor:middle;font-family:sans-serif;font-style:normal;font-weight:normal" x="260" y="29.625">
      <tspan x="260" y="29.625">odd</tspan>
    </text>
    <g>
      <polygon style="fill: #eeeeee; fill-opacity: 1; stroke-opacity: 1; stroke-width: 1; stroke: #000000" fill-rule="evenodd" points="240,60 250,60 260,70 260,88 250,100 230,100 220,96 224,64 "/>
      <polyline style="fill: none; stroke-opacity: 1; stroke-width: 1; stroke: #000000" points="240,80 230,90 "/>
      <polyline style="fill: none; stroke-opacity: 1; stroke-width: 1; stroke: #000000" points="244,88 240,80 "/>
      <polyline style="fill: none; stroke-opacity: 1; stroke-width: 1; stroke: #000000" points="244,88 260,79 "/>
      <polyline style="fill: none; stroke-opacity: 1; stroke-width: 1; stroke: #000000" points="222,80 230,90 "/>
      <polyline style="fill: none; stroke-opacity: 1; stroke-width: 1; stroke: #000000" points="250,60 240,80 "/>
    </g>
    <g>
      <polygon style="fill: #eeeeee; fill-opacity: 1; stroke-opacity: 1; stroke-width: 1; stroke: #000000" fill-rule="evenodd" points="300,60 310,60 320,70 320,88 310,100 290,100 280,96 284,64 "/>
      <polyline style="fill: none; stroke-opacity: 1; stroke-width: 1; stroke: #000000" points="300,80 290,90 "/>
      <polyline style="fill: none; stroke-opacity: 1; stroke-width: 1; stroke: #000000" points="304,88 300,80 "/>
      <polyline style="fill: none; stroke-opacity: 1; stroke-width: 1; stroke: #000000" points="304,88 320,79 "/>
      <polyline style="fill: none; stroke-opacity: 1; stroke-width: 1; stroke: #000000" points="282,80 290,90 "/>
      <polyline style="fill: none; stroke-opacity: 1; stroke-width: 1; stroke: #000000" points="310,60 300,80 "/>
    </g>
    <g>
      <polygon style="fill: #eeeeee; fill-opacity: 1; stroke-opacity: 1; stroke-width: 1; stroke: #000000" fill-rule="evenodd" points="240,120 250,120 260,130 260,148 250,160 230,160 220,156 224,124 "/>
      <polyline style="fill: none; stroke-opacity: 1; stroke-width: 1; stroke: #000000" points="240,140 230,150 "/>
      <polyline style="fill: none; stroke-opacity: 1; stroke-width: 1; stroke: #000000" points="244,148 240,140 "/>
      <polyline style="fill: none; stroke-opacity: 1; stroke-width: 1; stroke: #000000" points="244,148 260,139 "/>
      <polyline style="fill: none; stroke-opacity: 1; stroke-width: 1; stroke: #000000" points="222,140 230,150 "/>
      <polyline style="fill: none; stroke-opacity: 1; stroke-width: 1; stroke: #000000" points="250,120 240,140 "/>
    </g>
    <g>
      <polygon style="fill: #eeeeee; fill-opacity: 1; stroke-opacity: 1; stroke-width: 1; stroke: #000000" fill-rule="evenodd" points="320,120 330,120 340,130 340,148 330,160 310,160 300,156 304,124 "/>
      <polyline style="fill: none; stroke-opacity: 1; stroke-width: 1; stroke: #000000" points="320,140 310,150 "/>
      <polyline style="fill: none; stroke-opacity: 1; stroke-width: 1; stroke: #000000" points="324,148 320,140 "/>
      <polyline style="fill: none; stroke-opacity: 1; stroke-width: 1; stroke: #000000" points="324,148 340,139 "/>
      <polyline style="fill: none; stroke-opacity: 1; stroke-width: 1; stroke: #000000" points="302,140 310,150 "/>
      <polyline style="fill: none; stroke-opacity: 1; stroke-width: 1; stroke: #000000" points="330,120 320,140 "/>
    </g>
    <g>
      <polygon style="fill: #eeeeee; fill-opacity: 1; stroke-opacity: 1; stroke-width: 1; stroke: #000000" fill-rule="evenodd" points="260,180 270,180 280,190 280,208 270,220 250,220 240,216 244,184 "/>
      <polyline style="fill: none; stroke-opacity: 1; stroke-width: 1; stroke: #000000" points="260,200 250,210 "/>
      <polyline style="fill: none; stroke-opacity: 1; stroke-width: 1; stroke: #000000" points="264,208 260,200 "/>
      <polyline style="fill: none; stroke-opacity: 1; stroke-width: 1; stroke: #000000" points="264,208 280,199 "/>
      <polyline style="fill: none; stroke-opacity: 1; stroke-width: 1; stroke: #000000" points="242,200 250,210 "/>
      <polyline style="fill: none; stroke-opacity: 1; stroke-width: 1; stroke: #000000" points="270,180 260,200 "/>
    </g>
    <g>
      <line style="fill: none; stroke-opacity: 1; stroke-width: 2; stroke: #000000" x1="180" y1="40" x2="180" y2="200"/>
      <line style="fill: none; stroke-opacity: 1; stroke-width: 2; stroke: #000000" x1="180" y1="0" x2="180" y2="8"/>
      <line style="fill: none; stroke-opacity: 1; stroke-width: 2; stroke: #000000" x1="180" y1="13.3333" x2="180" y2="21.3333"/>
      <line style="fill: none; stroke-opacity: 1; stroke-width: 2; stroke: #000000" x1="180" y1="26.6667" x2="180" y2="34.6667"/>
      <line style="fill: none; stroke-opacity: 1; stroke-width: 2; stroke: #000000" x1="180" y1="240" x2="180" y2="232"/>
      <line style="fill: none; stroke-opacity: 1; stroke-width: 2; stroke: #000000" x1="180" y1="226.667" x2="180" y2="218.667"/>
      <line style="fill: none; stroke-opacity: 1; stroke-width: 2; stroke: #000000" x1="180" y1="213.333" x2="180" y2="205.333"/>
    </g>
    <path style="fill: none; stroke-opacity: 1; stroke-width: 2; stroke-dasharray: 10; stroke: #008000" d="M 0 140 C 0,100 60,120 70,120 C 80,120 140,100 140,140 C 140,180 80,160 70,160 C 60,160 0,180 0,140"/>
    <path style="fill: none; stroke-opacity: 1; stroke-width: 2; stroke-dasharray: 10; stroke: #008000" d="M 20 200 C 20,160 66.6666,180 90,180 C 113.333,180 160,160 160,200 C 160,240 20,240 20,200"/>
    <path style="fill: none; stroke-opacity: 1; stroke-width: 2; stroke-dasharray: 10; stroke: #008000" d="M 200 80 C 200,40 340,40 340,80 C 340,120 293.334,100 270,100 C 246.666,100 200,120 200,80"/>
    <path style="fill: none; stroke-opacity: 1; stroke-width: 2; stroke-dasharray: 10; stroke: #008000" d="M 200 140 C 200,100 260,120 280,120 C 300,120 360,100 360,140 C 360,180 300,160 280,160 C 260,160 200,180 200,140"/>
    <path style="fill: none; stroke-opacity: 1; stroke-width: 2; stroke-dasharray: 10; stroke: #bf0000" d="M 230 190 C 250,150 310,180 300,210 C 290,240 210,230 230,190"/>
    <text font-size="24.8356" style="fill: #008000; fill-opacity: 1; stroke: none;text-anchor:middle;font-family:sans-serif;font-style:normal;font-weight:normal" x="140" y="58.6">
      <tspan x="140" y="58.6">✓</tspan>
    </text>
    <text font-size="24.8356" style="fill: #008000; fill-opacity: 1; stroke: none;text-anchor:middle;font-family:sans-serif;font-style:normal;font-weight:normal" x="150" y="138.6">
      <tspan x="150" y="138.6">✓</tspan>
    </text>
    <text font-size="24.8356" style="fill: #008000; fill-opacity: 1; stroke: none;text-anchor:middle;font-family:sans-serif;font-style:normal;font-weight:normal" x="160" y="178.6">
      <tspan x="160" y="178.6">✓</tspan>
    </text>
    <text font-size="24.8356" style="fill: #008000; fill-opacity: 1; stroke: none;text-anchor:middle;font-family:sans-serif;font-style:normal;font-weight:normal" x="340" y="58.6">
      <tspan x="340" y="58.6">✓</tspan>
    </text>
    <text font-size="24.8356" style="fill: #008000; fill-opacity: 1; stroke: none;text-anchor:middle;font-family:sans-serif;font-style:normal;font-weight:normal" x="360" y="118.6">
      <tspan x="360" y="118.6">✓</tspan>
    </text>
    <text font-size="24.8356" style="fill: #bf0000; fill-opacity: 1; stroke: none;text-anchor:middle;font-family:sans-serif;font-style:normal;font-weight:normal" x="320" y="198.6">
      <tspan x="320" y="198.6">✕</tspan>
    </text>
  </g>
</svg>
