<?xml version="1.0" encoding="UTF-8" standalone="no"?>
<!DOCTYPE svg PUBLIC "-//W3C//DTD SVG 1.1//EN" "http://www.w3.org/Graphics/SVG/1.1/DTD/svg11.dtd">
<svg width="80mm" height="65mm" viewBox="-1 -1 302 242" xmlns="http://www.w3.org/2000/svg" xmlns:xlink="http://www.w3.org/1999/xlink">
  <!-- Copyright (C) 2020-2022 Rudy Matela -->
  <title>Order (cscx.org/order)</title>
  <desc>Order (cscx.org/order).  Copyright (C) 2020-2022 Rudy Matela  This image is available under the CC BY-SA 4.0 license.</desc>
  <defs/>
  <g id="Background"/>
  <g id="Background">
    <text font-size="2.25778" style="fill: #eeeeee; fill-opacity: 1; stroke: none;text-anchor:middle;font-family:sans-serif;font-style:normal;font-weight:normal" x="130" y="146.642">
      <tspan x="130" y="146.642">title: Order (cscx.org/order)</tspan>
      <tspan x="130" y="149.464">Copyright (C) 2020-2022 Rudy Matela</tspan>
      <tspan x="130" y="152.286">This image is available under the CC BY-SA 4.0 license.</tspan>
      <tspan x="130" y="155.108">Originally available on https://cscx.org/order.svg</tspan>
    </text>
    <text font-size="18.6267" style="fill: #003366; fill-opacity: 1; stroke: none;text-anchor:middle;font-family:sans-serif;font-style:normal;font-weight:normal" x="80" y="87.225">
      <tspan x="80" y="87.225">&lt;</tspan>
    </text>
    <rect style="fill: #ffffff; fill-opacity: 1; stroke-opacity: 1; stroke-width: 1; stroke: #000000" x="0" y="180" width="60" height="60" rx="0" ry="0"/>
    <rect style="fill: #ffffff; fill-opacity: 1; stroke-opacity: 1; stroke-width: 1; stroke: #000000" x="100" y="60" width="60" height="180" rx="0" ry="0"/>
    <text font-size="12.8" style="fill: #000000; fill-opacity: 1; stroke: none;text-anchor:middle;font-family:sans-serif;font-style:normal;font-weight:normal" x="30" y="214.95">
      <tspan x="30" y="214.95">1</tspan>
    </text>
    <text font-size="12.8" style="fill: #000000; fill-opacity: 1; stroke: none;text-anchor:middle;font-family:sans-serif;font-style:normal;font-weight:normal" x="130" y="154.95">
      <tspan x="130" y="154.95">3</tspan>
    </text>
    <g>
      <line style="fill: none; stroke-opacity: 1; stroke-width: 1; stroke: #003366" x1="30" y1="120" x2="128.569" y2="1.7178"/>
      <polyline style="fill: none; stroke-opacity: 1; stroke-width: 1; stroke: #003366" points="126.724,11.742 129.284,0.858898 119.041,5.34019 "/>
    </g>
    <text font-size="18.6267" style="fill: #663300; fill-opacity: 1; stroke: none;text-anchor:middle;font-family:sans-serif;font-style:normal;font-weight:normal" x="260" y="37.225">
      <tspan x="260" y="37.225">&gt;</tspan>
    </text>
    <rect style="fill: #ffffff; fill-opacity: 1; stroke-opacity: 1; stroke-width: 1; stroke: #000000" x="220" y="40" width="20" height="200" rx="0" ry="0"/>
    <rect style="fill: #ffffff; fill-opacity: 1; stroke-opacity: 1; stroke-width: 1; stroke: #000000" x="280" y="60" width="20" height="180" rx="0" ry="0"/>
    <text font-size="12.8" style="fill: #000000; fill-opacity: 1; stroke: none;text-anchor:middle;font-family:sans-serif;font-style:normal;font-weight:normal" x="230" y="144.95">
      <tspan x="230" y="144.95">10</tspan>
    </text>
    <text font-size="12.8" style="fill: #000000; fill-opacity: 1; stroke: none;text-anchor:middle;font-family:sans-serif;font-style:normal;font-weight:normal" x="290" y="154.95">
      <tspan x="290" y="154.95">9</tspan>
    </text>
    <g>
      <line style="fill: none; stroke-opacity: 1; stroke-width: 1; stroke: #663300" x1="230" y1="10" x2="287.879" y2="29.2929"/>
      <polyline style="fill: none; stroke-opacity: 1; stroke-width: 1; stroke: #663300" points="277.871,31.2276 288.939,29.6464 281.034,21.7408 "/>
    </g>
    <text font-size="12.8" style="fill: #003366; fill-opacity: 1; stroke: none;text-anchor:middle;font-family:sans-serif;font-style:normal;font-weight:normal" x="60" y="64.95">
      <tspan x="60" y="64.95">Yes</tspan>
    </text>
    <text font-size="12.8" style="fill: #663300; fill-opacity: 1; stroke: none;text-anchor:middle;font-family:sans-serif;font-style:normal;font-weight:normal" x="270" y="14.95">
      <tspan x="270" y="14.95">No</tspan>
    </text>
    <line style="fill: none; stroke-opacity: 1; stroke-width: 1; stroke: #888888" x1="100" y1="180" x2="110" y2="180"/>
    <line style="fill: none; stroke-opacity: 1; stroke-width: 1; stroke: #888888" x1="100" y1="120" x2="110" y2="120"/>
    <line style="fill: none; stroke-opacity: 1; stroke-width: 1; stroke: #888888" x1="150" y1="120" x2="160" y2="120"/>
    <line style="fill: none; stroke-opacity: 1; stroke-width: 1; stroke: #888888" x1="150" y1="180" x2="160" y2="180"/>
    <line style="fill: none; stroke-opacity: 1; stroke-width: 1; stroke: #888888" x1="220" y1="60" x2="230" y2="60"/>
    <line style="fill: none; stroke-opacity: 1; stroke-width: 1; stroke: #888888" x1="220" y1="80" x2="230" y2="80"/>
    <line style="fill: none; stroke-opacity: 1; stroke-width: 1; stroke: #888888" x1="220" y1="100" x2="230" y2="100"/>
    <line style="fill: none; stroke-opacity: 1; stroke-width: 1; stroke: #888888" x1="220" y1="120" x2="230" y2="120"/>
    <line style="fill: none; stroke-opacity: 1; stroke-width: 1; stroke: #888888" x1="220" y1="160" x2="230" y2="160"/>
    <line style="fill: none; stroke-opacity: 1; stroke-width: 1; stroke: #888888" x1="220" y1="180" x2="230" y2="180"/>
    <line style="fill: none; stroke-opacity: 1; stroke-width: 1; stroke: #888888" x1="220" y1="200" x2="230" y2="200"/>
    <line style="fill: none; stroke-opacity: 1; stroke-width: 1; stroke: #888888" x1="220" y1="220" x2="230" y2="220"/>
    <line style="fill: none; stroke-opacity: 1; stroke-width: 1; stroke: #888888" x1="280" y1="220" x2="290" y2="220"/>
    <line style="fill: none; stroke-opacity: 1; stroke-width: 1; stroke: #888888" x1="280" y1="200" x2="290" y2="200"/>
    <line style="fill: none; stroke-opacity: 1; stroke-width: 1; stroke: #888888" x1="280" y1="180" x2="290" y2="180"/>
    <line style="fill: none; stroke-opacity: 1; stroke-width: 1; stroke: #888888" x1="280" y1="160" x2="290" y2="160"/>
    <line style="fill: none; stroke-opacity: 1; stroke-width: 1; stroke: #888888" x1="280" y1="140" x2="290" y2="140"/>
    <line style="fill: none; stroke-opacity: 1; stroke-width: 1; stroke: #888888" x1="280" y1="120" x2="290" y2="120"/>
    <line style="fill: none; stroke-opacity: 1; stroke-width: 1; stroke: #888888" x1="280" y1="100" x2="290" y2="100"/>
    <line style="fill: none; stroke-opacity: 1; stroke-width: 1; stroke: #888888" x1="280" y1="80" x2="290" y2="80"/>
  </g>
</svg>
