<?xml version="1.0" encoding="UTF-8" standalone="no"?>
<!DOCTYPE svg PUBLIC "-//W3C//DTD SVG 1.1//EN" "http://www.w3.org/Graphics/SVG/1.1/DTD/svg11.dtd">
<svg width="60mm" height="50mm" viewBox="-1 -1 227 184" xmlns="http://www.w3.org/2000/svg" xmlns:xlink="http://www.w3.org/1999/xlink">
  <!-- Copyright (C) 2020-2021 Rudy Matela -->
  <title>A parrot repeating numbers (cscx.org/repeat1, cscx.org/repeat)</title>
  <desc>A parrot repeating numbers (cscx.org/repeat1, cscx.org/repeat).  Copyright (C) 2020-2021 Rudy Matela  This image is available under the CC BY-SA 4.0 license.</desc>
  <defs/>
  <g id="Background"/>
  <g id="Background">
    <text font-size="2.25778" style="fill: #eeeeee; fill-opacity: 1; stroke: none;text-anchor:middle;font-family:sans-serif;font-style:normal;font-weight:normal" x="100" y="126.642">
      <tspan x="100" y="126.642">title: A parrot repeating numbers (cscx.org/repeat1, cscx.org/repeat)</tspan>
      <tspan x="100" y="129.464">Copyright (C) 2020-2021 Rudy Matela</tspan>
      <tspan x="100" y="132.286">This image is available under the CC BY-SA 4.0 license.</tspan>
      <tspan x="100" y="135.108">Originally available on https://cscx.org/parrot.svg</tspan>
    </text>
    <path style="fill: #ffffff; fill-opacity: 1; stroke-opacity: 1; stroke-width: 1; stroke: #000000" fill-rule="evenodd" d="M 60 20 C 60,10 50,0 40,0 C 30,0 20,10 18,14 C 16,18 0,20 0,20 C 0,20 16,22 18,26 C 20,30 30,40 40,40 C 50,40 60,30 60,20z"/>
    <text font-size="12.8" style="fill: #000000; fill-opacity: 1; stroke: none;text-anchor:middle;font-family:sans-serif;font-style:normal;font-weight:normal" x="40" y="24.95">
      <tspan x="40" y="24.95">1</tspan>
    </text>
    <path style="fill: #ffffff; fill-opacity: 1; stroke-opacity: 1; stroke-width: 1; stroke: #000000" fill-rule="evenodd" d="M 90 60 C 100,60 108,50 110,46 C 112,42 130,40 130,40 C 130,40 112,38 110,34 C 108,30 100,20 90,20 C 80,20 70,30 70,40 C 70,50 80,60 90,60z"/>
    <text font-size="12.8" style="fill: #000000; fill-opacity: 1; stroke: none;text-anchor:middle;font-family:sans-serif;font-style:normal;font-weight:normal" x="90" y="44.95">
      <tspan x="90" y="44.95">1</tspan>
    </text>
    <path style="fill: #ffffff; fill-opacity: 1; stroke-opacity: 1; stroke-width: 1; stroke: #000000" fill-rule="evenodd" d="M 100 120 C 110,120 120,110 120,100 C 120,90 150,70 150,70 C 150,70 120,90 118,88 C 116,86 110,80 100,80 C 90,80 80,90 80,100 C 80,110 90,120 100,120z"/>
    <text font-size="12.8" style="fill: #000000; fill-opacity: 1; stroke: none;text-anchor:middle;font-family:sans-serif;font-style:normal;font-weight:normal" x="100" y="104.95">
      <tspan x="100" y="104.95">2</tspan>
    </text>
    <path style="fill: #ffffff; fill-opacity: 1; stroke-opacity: 1; stroke-width: 1; stroke: #000000" fill-rule="evenodd" d="M 60 80 C 60,70 50,60 40,60 C 30,60 26,64 26,64 C 26,64 0,60 0,60 C 0,60 20,70 20,70 C 20,70 20,70 20,80 C 20,90 30,100 40,100 C 50,100 60,90 60,80z"/>
    <text font-size="12.8" style="fill: #000000; fill-opacity: 1; stroke: none;text-anchor:middle;font-family:sans-serif;font-style:normal;font-weight:normal" x="40" y="84.95">
      <tspan x="40" y="84.95">2</tspan>
    </text>
    <path style="fill: #ffffff; fill-opacity: 1; stroke-opacity: 1; stroke-width: 1; stroke: #000000" fill-rule="evenodd" d="M 100 180 C 120,180 130,170 130,160 C 130,150 130,160 130,150 C 130,140 150,120 150,120 C 150,120 130,140 120,140 C 110,140 120,140 100,140 C 80,140 70,150 70,160 C 70,170 80,180 100,180z"/>
    <text font-size="12.8" style="fill: #000000; fill-opacity: 1; stroke: none;text-anchor:middle;font-family:sans-serif;font-style:normal;font-weight:normal" x="100" y="164.95">
      <tspan x="100" y="164.95">43</tspan>
    </text>
    <path style="fill: #ffffff; fill-opacity: 1; stroke-opacity: 1; stroke-width: 1; stroke: #000000" fill-rule="evenodd" d="M 60 140 C 60,130 50,120 30,120 C 10,120 20,120 16,120 C 12,120 0,112 0,112 C 0,112 6,124 4,128 C 2,132 0,130 0,140 C 0,150 10,160 30,160 C 50,160 60,150 60,140z"/>
    <text font-size="12.8" style="fill: #000000; fill-opacity: 1; stroke: none;text-anchor:middle;font-family:sans-serif;font-style:normal;font-weight:normal" x="30" y="144.95">
      <tspan x="30" y="144.95">43</tspan>
    </text>
    <g>
      <ellipse style="fill: none; stroke-opacity: 1; stroke-width: 1; stroke: #000000" cx="185" cy="107" rx="7" ry="7"/>
      <polygon style="fill: #888888; fill-opacity: 1; stroke-opacity: 1; stroke-width: 1; stroke: #000000" fill-rule="evenodd" points="146,40 142,28 154,28 150,36 154,48 "/>
      <polygon style="fill: #888888; fill-opacity: 1; stroke-opacity: 1; stroke-width: 1; stroke: #000000" fill-rule="evenodd" points="154,28 166,36 154,40 "/>
      <polygon style="fill: #ffffff; fill-opacity: 1; stroke-opacity: 1; stroke-width: 1; stroke: #000000" fill-rule="evenodd" points="154,28 142,28 154,16 166,16 170,24 166,36 "/>
      <ellipse style="fill: none; stroke-opacity: 1; stroke-width: 1; stroke: #000000" cx="185" cy="115" rx="7" ry="7"/>
      <polygon style="fill: #88cc88; fill-opacity: 1; stroke-opacity: 1; stroke-width: 1; stroke: #000000" fill-rule="evenodd" points="154,16 142,28 146,16 162,8 182,12 202,44 226,128 218,112 222,136 218,144 222,160 220,180 210,144 210,180 202,132 200,160 200,180 190,112 182,108 166,80 158,48 166,36 170,24 166,16 "/>
      <ellipse style="fill: #000000; fill-opacity: 1; stroke-opacity: 1; stroke-width: 1; stroke: #000000" cx="156" cy="22" rx="2" ry="2"/>
      <line style="fill: none; stroke-opacity: 1; stroke-width: 1; stroke: #000000" x1="174" y1="48" x2="198" y2="104"/>
      <line style="fill: none; stroke-opacity: 1; stroke-width: 1; stroke: #000000" x1="194" y1="48" x2="210" y2="116"/>
    </g>
  </g>
</svg>
