<?xml version="1.0" encoding="UTF-8" standalone="no"?>
<!DOCTYPE svg PUBLIC "-//W3C//DTD SVG 1.1//EN" "http://www.w3.org/Graphics/SVG/1.1/DTD/svg11.dtd">
<svg width="105mm" height="25mm" viewBox="-1 19 402 82" xmlns="http://www.w3.org/2000/svg" xmlns:xlink="http://www.w3.org/1999/xlink">
  <!-- Copyright (C) 2020-2022 Rudy Matela -->
  <title>Power, exponentiation is equivalent to the area of hypercubes of increasing dimensions (cscx.org/power)</title>
  <desc>Power, exponentiation is equivalent to the area of hypercubes of increasing dimensions (cscx.org/power).  Copyright (C) 2020-2022 Rudy Matela  This image is available under the CC BY-SA 4.0 license.</desc>
  <g id="Background"/>
  <g id="Background">
    <polygon style="fill: none; stroke-opacity: 1; stroke-width: 1; stroke: #000000" points="100,60 140,60 140,100 100,100 "/>
    <line style="fill: none; stroke-opacity: 1; stroke-width: 1; stroke: #000000" x1="0" y1="80" x2="40" y2="80"/>
    <polygon style="fill: none; stroke-opacity: 1; stroke-width: 1; stroke: #000000" points="200,60 240,60 240,100 200,100 "/>
    <polygon style="fill: none; stroke-opacity: 1; stroke-width: 1; stroke: #000000" points="220,40 260,40 260,80 220,80 "/>
    <line style="fill: none; stroke-opacity: 1; stroke-width: 1; stroke: #000000" x1="240" y1="60" x2="260" y2="40"/>
    <line style="fill: none; stroke-opacity: 1; stroke-width: 1; stroke: #000000" x1="200" y1="60" x2="220" y2="40"/>
    <line style="fill: none; stroke-opacity: 1; stroke-width: 1; stroke: #000000" x1="240" y1="100" x2="260" y2="80"/>
    <line style="fill: none; stroke-opacity: 1; stroke-width: 1; stroke: #000000" x1="200" y1="100" x2="220" y2="80"/>
    <polygon style="fill: none; stroke-opacity: 1; stroke-width: 1; stroke: #000000" points="330,50 370,50 370,90 330,90 "/>
    <polygon style="fill: none; stroke-opacity: 1; stroke-width: 1; stroke: #000000" points="350,30 390,30 390,70 350,70 "/>
    <line style="fill: none; stroke-opacity: 1; stroke-width: 1; stroke: #000000" x1="370" y1="50" x2="390" y2="30"/>
    <line style="fill: none; stroke-opacity: 1; stroke-width: 1; stroke: #000000" x1="330" y1="50" x2="350" y2="30"/>
    <line style="fill: none; stroke-opacity: 1; stroke-width: 1; stroke: #000000" x1="370" y1="90" x2="390" y2="70"/>
    <line style="fill: none; stroke-opacity: 1; stroke-width: 1; stroke: #000000" x1="330" y1="90" x2="350" y2="70"/>
    <polygon style="fill: none; stroke-opacity: 1; stroke-width: 1; stroke: #000000" points="320,40 380,40 380,100 320,100 "/>
    <polygon style="fill: none; stroke-opacity: 1; stroke-width: 1; stroke: #000000" points="340,20 400,20 400,80 340,80 "/>
    <line style="fill: none; stroke-opacity: 1; stroke-width: 1; stroke: #000000" x1="380" y1="40" x2="400" y2="20"/>
    <line style="fill: none; stroke-opacity: 1; stroke-width: 1; stroke: #000000" x1="320" y1="40" x2="340" y2="20"/>
    <line style="fill: none; stroke-opacity: 1; stroke-width: 1; stroke: #000000" x1="380" y1="100" x2="400" y2="80"/>
    <line style="fill: none; stroke-opacity: 1; stroke-width: 1; stroke: #000000" x1="320" y1="100" x2="340" y2="80"/>
    <line style="fill: none; stroke-opacity: 1; stroke-width: 1; stroke: #000000" x1="340" y1="20" x2="350" y2="30"/>
    <line style="fill: none; stroke-opacity: 1; stroke-width: 1; stroke: #000000" x1="320" y1="40" x2="330" y2="50"/>
    <line style="fill: none; stroke-opacity: 1; stroke-width: 1; stroke: #000000" x1="370" y1="90" x2="380" y2="100"/>
    <line style="fill: none; stroke-opacity: 1; stroke-width: 1; stroke: #000000" x1="390" y1="70" x2="400" y2="80"/>
    <polygon style="fill: #ffffff; fill-opacity: 1; stroke-opacity: 1; stroke-width: 1; stroke: #000000" fill-rule="evenodd" points="60,75 70,75 70,70 80,80 70,90 70,85 60,85 "/>
    <polygon style="fill: #ffffff; fill-opacity: 1; stroke-opacity: 1; stroke-width: 1; stroke: #000000" fill-rule="evenodd" points="160,75 170,75 170,70 180,80 170,90 170,85 160,85 "/>
    <polygon style="fill: #ffffff; fill-opacity: 1; stroke-opacity: 1; stroke-width: 1; stroke: #000000" fill-rule="evenodd" points="280,55 290,55 290,50 300,60 290,70 290,65 280,65 "/>
    <text font-size="2.25778" style="fill: #eeeeee; fill-opacity: 1; stroke: none;text-anchor:middle;font-family:sans-serif;font-style:normal;font-weight:normal" x="120" y="46.6417">
      <tspan x="120" y="46.6417">title: Power, exponentiation is equivalent to the area of hypercubes of increasing dimensions (cscx.org/power)</tspan>
      <tspan x="120" y="49.4639">Copyright (C) 2020-2022 Rudy Matela</tspan>
      <tspan x="120" y="52.2861">This image is available under the CC BY-SA 4.0 license.</tspan>
      <tspan x="120" y="55.1083">Originally available on https://cscx.org/power.svg</tspan>
    </text>
  </g>
</svg>
