<?xml version="1.0" encoding="UTF-8" standalone="no"?>
<!DOCTYPE svg PUBLIC "-//W3C//DTD SVG 1.1//EN" "http://www.w3.org/Graphics/SVG/1.1/DTD/svg11.dtd">
<svg width="55mm" height="65mm" viewBox="-2 -2 203 243" xmlns="http://www.w3.org/2000/svg" xmlns:xlink="http://www.w3.org/1999/xlink">
  <!-- Copyright (C) 2022 Rudy Matela -->
  <title>Primes up to 29 -- cscx.org/primes</title>
  <desc>Primes up to 29 -- cscx.org/primes.  Copyright (C) 2022 Rudy Matela  This image is available under the CC BY-SA 4.0 license.</desc>
  <defs/>
  <g id="Background"/>
  <g id="Background">
    <text font-size="3.38667" style="fill: #000000; fill-opacity: 1; stroke: none;text-anchor:middle;font-family:sans-serif;font-style:normal;font-weight:normal" x="100" y="14.975">
      <tspan x="100" y="14.975">title: Primes up to 29 -- cscx.org/primes</tspan>
      <tspan x="100" y="19.2083">Copyright (C) 2022 Rudy Matela</tspan>
      <tspan x="100" y="23.4417">This image is available under the CC BY-SA 4.0 license.</tspan>
      <tspan x="100" y="27.675">Originally available on https://cscx.org/primes.svg</tspan>
    </text>
    <rect style="fill: #ffddaa; fill-opacity: 1; stroke-opacity: 1; stroke-width: 1; stroke: #000000" x="40" y="0" width="40" height="40" rx="0" ry="0"/>
    <rect style="fill: #aaddff; fill-opacity: 1; stroke-opacity: 1; stroke-width: 1; stroke: #000000" x="80" y="0" width="40" height="40" rx="0" ry="0"/>
    <rect style="fill: #dddddd; fill-opacity: 1; stroke-opacity: 1; stroke-width: 1; stroke: #000000" x="120" y="0" width="40" height="40" rx="0" ry="0"/>
    <rect style="fill: #bbffdd; fill-opacity: 1; stroke-opacity: 1; stroke-width: 1; stroke: #000000" x="160" y="0" width="40" height="40" rx="0" ry="0"/>
    <rect style="fill: #dddddd; fill-opacity: 1; stroke-opacity: 1; stroke-width: 1; stroke: #000000" x="0" y="40" width="40" height="40" rx="0" ry="0"/>
    <rect style="fill: #ffbbdd; fill-opacity: 1; stroke-opacity: 1; stroke-width: 1; stroke: #000000" x="40" y="40" width="40" height="40" rx="0" ry="0"/>
    <rect style="fill: #dddddd; fill-opacity: 1; stroke-opacity: 1; stroke-width: 1; stroke: #000000" x="80" y="40" width="40" height="40" rx="0" ry="0"/>
    <rect style="fill: #dddddd; fill-opacity: 1; stroke-opacity: 1; stroke-width: 1; stroke: #000000" x="120" y="40" width="40" height="40" rx="0" ry="0"/>
    <rect style="fill: #dddddd; fill-opacity: 1; stroke-opacity: 1; stroke-width: 1; stroke: #000000" x="160" y="40" width="40" height="40" rx="0" ry="0"/>
    <rect style="fill: #ffffbb; fill-opacity: 1; stroke-opacity: 1; stroke-width: 1; stroke: #000000" x="0" y="80" width="40" height="40" rx="0" ry="0"/>
    <rect style="fill: #dddddd; fill-opacity: 1; stroke-opacity: 1; stroke-width: 1; stroke: #000000" x="40" y="80" width="40" height="40" rx="0" ry="0"/>
    <rect style="fill: #ddbbff; fill-opacity: 1; stroke-opacity: 1; stroke-width: 1; stroke: #000000" x="80" y="80" width="40" height="40" rx="0" ry="0"/>
    <rect style="fill: #dddddd; fill-opacity: 1; stroke-opacity: 1; stroke-width: 1; stroke: #000000" x="120" y="80" width="40" height="40" rx="0" ry="0"/>
    <rect style="fill: #dddddd; fill-opacity: 1; stroke-opacity: 1; stroke-width: 1; stroke: #000000" x="160" y="80" width="40" height="40" rx="0" ry="0"/>
    <rect style="fill: #dddddd; fill-opacity: 1; stroke-opacity: 1; stroke-width: 1; stroke: #000000" x="0" y="120" width="40" height="40" rx="0" ry="0"/>
    <rect style="fill: #bbffff; fill-opacity: 1; stroke-opacity: 1; stroke-width: 1; stroke: #000000" x="40" y="120" width="40" height="40" rx="0" ry="0"/>
    <rect style="fill: #dddddd; fill-opacity: 1; stroke-opacity: 1; stroke-width: 1; stroke: #000000" x="80" y="120" width="40" height="40" rx="0" ry="0"/>
    <rect style="fill: #ffbbbb; fill-opacity: 1; stroke-opacity: 1; stroke-width: 1; stroke: #000000" x="120" y="120" width="40" height="40" rx="0" ry="0"/>
    <rect style="fill: #dddddd; fill-opacity: 1; stroke-opacity: 1; stroke-width: 1; stroke: #000000" x="160" y="120" width="40" height="40" rx="0" ry="0"/>
    <rect style="fill: #dddddd; fill-opacity: 1; stroke-opacity: 1; stroke-width: 1; stroke: #000000" x="0" y="160" width="40" height="40" rx="0" ry="0"/>
    <rect style="fill: #dddddd; fill-opacity: 1; stroke-opacity: 1; stroke-width: 1; stroke: #000000" x="40" y="160" width="40" height="40" rx="0" ry="0"/>
    <rect style="fill: #ddffbb; fill-opacity: 1; stroke-opacity: 1; stroke-width: 1; stroke: #000000" x="80" y="160" width="40" height="40" rx="0" ry="0"/>
    <rect style="fill: #dddddd; fill-opacity: 1; stroke-opacity: 1; stroke-width: 1; stroke: #000000" x="120" y="160" width="40" height="40" rx="0" ry="0"/>
    <rect style="fill: #dddddd; fill-opacity: 1; stroke-opacity: 1; stroke-width: 1; stroke: #000000" x="160" y="160" width="40" height="40" rx="0" ry="0"/>
    <rect style="fill: #dddddd; fill-opacity: 1; stroke-opacity: 1; stroke-width: 1; stroke: #000000" x="0" y="200" width="40" height="40" rx="0" ry="0"/>
    <rect style="fill: #dddddd; fill-opacity: 1; stroke-opacity: 1; stroke-width: 1; stroke: #000000" x="40" y="200" width="40" height="40" rx="0" ry="0"/>
    <rect style="fill: #dddddd; fill-opacity: 1; stroke-opacity: 1; stroke-width: 1; stroke: #000000" x="80" y="200" width="40" height="40" rx="0" ry="0"/>
    <rect style="fill: #ddbbff; fill-opacity: 1; stroke-opacity: 1; stroke-width: 1; stroke: #000000" x="120" y="200" width="40" height="40" rx="0" ry="0"/>
    <text font-size="12.8" style="fill: #000000; fill-opacity: 1; stroke: none;text-anchor:middle;font-family:sans-serif;font-style:normal;font-weight:700" x="60" y="24.95">
      <tspan x="60" y="24.95">2</tspan>
    </text>
    <text font-size="12.8" style="fill: #000000; fill-opacity: 1; stroke: none;text-anchor:middle;font-family:sans-serif;font-style:normal;font-weight:700" x="100" y="24.95">
      <tspan x="100" y="24.95">3</tspan>
    </text>
    <text font-size="12.8" style="fill: #000000; fill-opacity: 1; stroke: none;text-anchor:middle;font-family:sans-serif;font-style:normal;font-weight:normal" x="140" y="24.95">
      <tspan x="140" y="24.95">4</tspan>
    </text>
    <text font-size="12.8" style="fill: #000000; fill-opacity: 1; stroke: none;text-anchor:middle;font-family:sans-serif;font-style:normal;font-weight:700" x="180" y="24.95">
      <tspan x="180" y="24.95">5</tspan>
    </text>
    <text font-size="12.8" style="fill: #000000; fill-opacity: 1; stroke: none;text-anchor:middle;font-family:sans-serif;font-style:normal;font-weight:normal" x="20" y="64.95">
      <tspan x="20" y="64.95">6</tspan>
    </text>
    <text font-size="12.8" style="fill: #000000; fill-opacity: 1; stroke: none;text-anchor:middle;font-family:sans-serif;font-style:normal;font-weight:700" x="60" y="64.95">
      <tspan x="60" y="64.95">7</tspan>
    </text>
    <text font-size="12.8" style="fill: #000000; fill-opacity: 1; stroke: none;text-anchor:middle;font-family:sans-serif;font-style:normal;font-weight:normal" x="100" y="64.95">
      <tspan x="100" y="64.95">8</tspan>
    </text>
    <text font-size="12.8" style="fill: #000000; fill-opacity: 1; stroke: none;text-anchor:middle;font-family:sans-serif;font-style:normal;font-weight:normal" x="140" y="64.95">
      <tspan x="140" y="64.95">9</tspan>
    </text>
    <text font-size="12.8" style="fill: #000000; fill-opacity: 1; stroke: none;text-anchor:middle;font-family:sans-serif;font-style:normal;font-weight:normal" x="180" y="64.95">
      <tspan x="180" y="64.95">10</tspan>
    </text>
    <text font-size="12.8" style="fill: #000000; fill-opacity: 1; stroke: none;text-anchor:middle;font-family:sans-serif;font-style:normal;font-weight:700" x="20" y="104.95">
      <tspan x="20" y="104.95">11</tspan>
    </text>
    <text font-size="12.8" style="fill: #000000; fill-opacity: 1; stroke: none;text-anchor:middle;font-family:sans-serif;font-style:normal;font-weight:normal" x="60" y="104.95">
      <tspan x="60" y="104.95">12</tspan>
    </text>
    <text font-size="12.8" style="fill: #000000; fill-opacity: 1; stroke: none;text-anchor:middle;font-family:sans-serif;font-style:normal;font-weight:700" x="100" y="104.95">
      <tspan x="100" y="104.95">13</tspan>
    </text>
    <text font-size="12.8" style="fill: #000000; fill-opacity: 1; stroke: none;text-anchor:middle;font-family:sans-serif;font-style:normal;font-weight:normal" x="140" y="104.95">
      <tspan x="140" y="104.95">14</tspan>
    </text>
    <text font-size="12.8" style="fill: #000000; fill-opacity: 1; stroke: none;text-anchor:middle;font-family:sans-serif;font-style:normal;font-weight:normal" x="180" y="104.95">
      <tspan x="180" y="104.95">15</tspan>
    </text>
    <text font-size="12.8" style="fill: #000000; fill-opacity: 1; stroke: none;text-anchor:middle;font-family:sans-serif;font-style:normal;font-weight:normal" x="20" y="144.95">
      <tspan x="20" y="144.95">16</tspan>
    </text>
    <text font-size="12.8" style="fill: #000000; fill-opacity: 1; stroke: none;text-anchor:middle;font-family:sans-serif;font-style:normal;font-weight:700" x="60" y="144.95">
      <tspan x="60" y="144.95">17</tspan>
    </text>
    <text font-size="12.8" style="fill: #000000; fill-opacity: 1; stroke: none;text-anchor:middle;font-family:sans-serif;font-style:normal;font-weight:normal" x="100" y="144.95">
      <tspan x="100" y="144.95">18</tspan>
    </text>
    <text font-size="12.8" style="fill: #000000; fill-opacity: 1; stroke: none;text-anchor:middle;font-family:sans-serif;font-style:normal;font-weight:700" x="140" y="144.95">
      <tspan x="140" y="144.95">19</tspan>
    </text>
    <text font-size="12.8" style="fill: #000000; fill-opacity: 1; stroke: none;text-anchor:middle;font-family:sans-serif;font-style:normal;font-weight:normal" x="180" y="144.95">
      <tspan x="180" y="144.95">20</tspan>
    </text>
    <text font-size="12.8" style="fill: #000000; fill-opacity: 1; stroke: none;text-anchor:middle;font-family:sans-serif;font-style:normal;font-weight:normal" x="20" y="184.95">
      <tspan x="20" y="184.95">21</tspan>
    </text>
    <text font-size="12.8" style="fill: #000000; fill-opacity: 1; stroke: none;text-anchor:middle;font-family:sans-serif;font-style:normal;font-weight:normal" x="60" y="184.95">
      <tspan x="60" y="184.95">22</tspan>
    </text>
    <text font-size="12.8" style="fill: #000000; fill-opacity: 1; stroke: none;text-anchor:middle;font-family:sans-serif;font-style:normal;font-weight:700" x="100" y="184.95">
      <tspan x="100" y="184.95">23</tspan>
    </text>
    <text font-size="12.8" style="fill: #000000; fill-opacity: 1; stroke: none;text-anchor:middle;font-family:sans-serif;font-style:normal;font-weight:normal" x="140" y="184.95">
      <tspan x="140" y="184.95">24</tspan>
    </text>
    <text font-size="12.8" style="fill: #000000; fill-opacity: 1; stroke: none;text-anchor:middle;font-family:sans-serif;font-style:normal;font-weight:normal" x="180" y="184.95">
      <tspan x="180" y="184.95">25</tspan>
    </text>
    <text font-size="12.8" style="fill: #000000; fill-opacity: 1; stroke: none;text-anchor:middle;font-family:sans-serif;font-style:normal;font-weight:normal" x="20" y="224.95">
      <tspan x="20" y="224.95">26</tspan>
    </text>
    <text font-size="12.8" style="fill: #000000; fill-opacity: 1; stroke: none;text-anchor:middle;font-family:sans-serif;font-style:normal;font-weight:normal" x="60" y="224.95">
      <tspan x="60" y="224.95">27</tspan>
    </text>
    <text font-size="12.8" style="fill: #000000; fill-opacity: 1; stroke: none;text-anchor:middle;font-family:sans-serif;font-style:normal;font-weight:normal" x="100" y="224.95">
      <tspan x="100" y="224.95">28</tspan>
    </text>
    <text font-size="12.8" style="fill: #000000; fill-opacity: 1; stroke: none;text-anchor:middle;font-family:sans-serif;font-style:normal;font-weight:700" x="140" y="224.95">
      <tspan x="140" y="224.95">29</tspan>
    </text>
    <line style="fill: none; stroke-opacity: 1; stroke-width: 2; stroke: #cc6600" x1="160" y1="0" x2="0" y2="160"/>
    <line style="fill: none; stroke-opacity: 1; stroke-width: 2; stroke: #cc6600" x1="50" y1="30" x2="0" y2="80"/>
    <line style="fill: none; stroke-opacity: 1; stroke-width: 2; stroke: #cc6600" x1="200" y1="40" x2="0" y2="240"/>
    <line style="fill: none; stroke-opacity: 1; stroke-width: 2; stroke: #cc6600" x1="200" y1="120" x2="80" y2="240"/>
    <line style="fill: none; stroke-opacity: 1; stroke-width: 2; stroke: #0066cc" x1="200" y1="120" x2="110" y2="30"/>
    <line style="fill: none; stroke-opacity: 1; stroke-width: 2; stroke: #0066cc" x1="80" y1="240" x2="0" y2="160"/>
    <line style="fill: none; stroke-opacity: 1; stroke-width: 2; stroke: #00cc66" x1="180" y1="200" x2="180" y2="30"/>
    <line style="fill: none; stroke-opacity: 1; stroke-width: 2; stroke: #cc0066" x1="160" y1="110" x2="120" y2="90"/>
    <line style="fill: none; stroke-opacity: 1; stroke-width: 2; stroke: #cc0066" x1="40" y1="190" x2="0" y2="170"/>
    <line style="fill: none; stroke-opacity: 1; stroke-width: 2; stroke: #cc0066" x1="120" y1="230" x2="80" y2="210"/>
    <line style="fill: none; stroke-opacity: 1; stroke-width: 2; stroke: #cc0066" x1="80" y1="70" x2="70" y2="65"/>
    <line style="fill: none; stroke-opacity: 1; stroke-width: 2; stroke: #cccc00" x1="70" y1="200" x2="50" y2="160"/>
    <line style="fill: none; stroke-opacity: 1; stroke-width: 2; stroke: #cccc00" x1="30" y1="120" x2="25" y2="110"/>
    <line style="fill: none; stroke-opacity: 1; stroke-width: 2; stroke: #330066" x1="87" y1="120" x2="94" y2="109.6"/>
    <line style="fill: none; stroke-opacity: 1; stroke-width: 2; stroke: #330066" x1="6" y1="240" x2="33" y2="200"/>
  </g>
</svg>
