<?xml version="1.0" encoding="UTF-8" standalone="no"?>
<!DOCTYPE svg PUBLIC "-//W3C//DTD SVG 1.1//EN" "http://www.w3.org/Graphics/SVG/1.1/DTD/svg11.dtd">
<svg width="135mm" height="70mm" viewBox="-2 1 531 280" xmlns="http://www.w3.org/2000/svg" xmlns:xlink="http://www.w3.org/1999/xlink">
  <!-- Copyright (C) 2020-2021 Rudy Matela -->
  <title>Relation properties (cscx.org/rel-properties)</title>
  <desc>Relation properties (cscx.org/rel-properties).  Copyright (C) 2020-2021 Rudy Matela  This image is available under the CC BY-SA 4.0 license.</desc>
  <g id="Background"/>
  <g id="Background">
    <g>
      <line style="fill: none; stroke-opacity: 1; stroke-width: 1; stroke-dasharray: 5; stroke: #aaaaaa" x1="299.968" y1="153.323" x2="337.91" y2="165.97"/>
      <polyline style="fill: none; stroke-opacity: 1; stroke-width: 1; stroke: #aaaaaa" points="333.437,167.114 338.971,166.324 335.018,162.371 "/>
    </g>
    <g>
      <line style="fill: none; stroke-opacity: 1; stroke-width: 1; stroke-dasharray: 5; stroke: #aaaaaa" x1="299.968" y1="146.677" x2="337.91" y2="134.03"/>
      <polyline style="fill: none; stroke-opacity: 1; stroke-width: 1; stroke: #aaaaaa" points="335.018,137.629 338.971,133.676 333.437,132.886 "/>
    </g>
    <g>
      <line style="fill: none; stroke-opacity: 1; stroke-width: 1; stroke-dasharray: 5; stroke: #aaaaaa" x1="300" y1="230" x2="337.764" y2="230"/>
      <polyline style="fill: none; stroke-opacity: 1; stroke-width: 1; stroke: #aaaaaa" points="333.882,232.5 338.882,230 333.882,227.5 "/>
    </g>
    <g>
      <line style="fill: none; stroke-opacity: 1; stroke-width: 1; stroke-dasharray: 5; stroke: #aaaaaa" x1="300" y1="270" x2="337.764" y2="270"/>
      <polyline style="fill: none; stroke-opacity: 1; stroke-width: 1; stroke: #aaaaaa" points="333.882,272.5 338.882,270 333.882,267.5 "/>
    </g>
    <g>
      <line style="fill: none; stroke-opacity: 1; stroke-width: 1; stroke-dasharray: 5; stroke: #aaaaaa" x1="300" y1="250" x2="337.764" y2="250"/>
      <polyline style="fill: none; stroke-opacity: 1; stroke-width: 1; stroke: #aaaaaa" points="333.882,252.5 338.882,250 333.882,247.5 "/>
    </g>
    <ellipse style="fill: none; stroke-opacity: 1; stroke-width: 1; stroke: #ffffff" cx="10" cy="70" rx="10" ry="10"/>
    <text font-size="3.38667" style="fill: #f8f8f8; fill-opacity: 1; stroke: none;text-anchor:middle;font-family:sans-serif;font-style:normal;font-weight:normal" x="200" y="34.975">
      <tspan x="200" y="34.975">title: Relation properties (cscx.org/rel-properties)</tspan>
      <tspan x="200" y="39.2083">Copyright (C) 2020-2021 Rudy Matela</tspan>
      <tspan x="200" y="43.4417">This image is available under the CC BY-SA 4.0 license.</tspan>
      <tspan x="200" y="47.675">Originally available on https://cscx.org/rel-properties.svg</tspan>
    </text>
    <text font-size="12.8" style="fill: #000000; fill-opacity: 1; stroke: none;text-anchor:middle;font-family:sans-serif;font-style:normal;font-weight:normal" x="10" y="34.95">
      <tspan x="10" y="34.95">0</tspan>
    </text>
    <text font-size="12.8" style="fill: #000000; fill-opacity: 1; stroke: none;text-anchor:middle;font-family:sans-serif;font-style:normal;font-weight:normal" x="10" y="54.95">
      <tspan x="10" y="54.95">1</tspan>
    </text>
    <text font-size="12.8" style="fill: #000000; fill-opacity: 1; stroke: none;text-anchor:middle;font-family:sans-serif;font-style:normal;font-weight:normal" x="10" y="74.95">
      <tspan x="10" y="74.95">2</tspan>
    </text>
    <text font-size="12.8" style="fill: #000000; fill-opacity: 1; stroke: none;text-anchor:middle;font-family:sans-serif;font-style:normal;font-weight:normal" x="70" y="34.95">
      <tspan x="70" y="34.95">0</tspan>
    </text>
    <text font-size="12.8" style="fill: #000000; fill-opacity: 1; stroke: none;text-anchor:middle;font-family:sans-serif;font-style:normal;font-weight:normal" x="70" y="54.95">
      <tspan x="70" y="54.95">1</tspan>
    </text>
    <text font-size="12.8" style="fill: #000000; fill-opacity: 1; stroke: none;text-anchor:middle;font-family:sans-serif;font-style:normal;font-weight:normal" x="70" y="74.95">
      <tspan x="70" y="74.95">2</tspan>
    </text>
    <g>
      <line style="fill: none; stroke-opacity: 1; stroke-width: 1; stroke: #000000" x1="20.5029" y1="30" x2="53.9971" y2="30"/>
      <polygon style="fill: #000000; fill-opacity: 1; stroke-opacity: 1; stroke-width: 1; stroke: #000000" fill-rule="evenodd" points="53.9971,32.5 58.9971,30 53.9971,27.5 "/>
    </g>
    <g>
      <line style="fill: none; stroke-opacity: 1; stroke-width: 1; stroke: #000000" x1="20.5029" y1="70" x2="53.9971" y2="70"/>
      <polygon style="fill: #000000; fill-opacity: 1; stroke-opacity: 1; stroke-width: 1; stroke: #000000" fill-rule="evenodd" points="53.9971,72.5 58.9971,70 53.9971,67.5 "/>
    </g>
    <g>
      <line style="fill: none; stroke-opacity: 1; stroke-width: 1; stroke: #000000" x1="20.5029" y1="50" x2="53.9971" y2="50"/>
      <polygon style="fill: #000000; fill-opacity: 1; stroke-opacity: 1; stroke-width: 1; stroke: #000000" fill-rule="evenodd" points="53.9971,52.5 58.9971,50 53.9971,47.5 "/>
    </g>
    <ellipse style="fill: none; stroke-opacity: 1; stroke-width: 1; stroke: #ffffff" cx="10" cy="50" rx="10" ry="10"/>
    <ellipse style="fill: none; stroke-opacity: 1; stroke-width: 1; stroke: #ffffff" cx="10" cy="30" rx="10" ry="10"/>
    <ellipse style="fill: none; stroke-opacity: 1; stroke-width: 1; stroke: #ffffff" cx="70" cy="30" rx="10" ry="10"/>
    <ellipse style="fill: none; stroke-opacity: 1; stroke-width: 1; stroke: #ffffff" cx="70" cy="50" rx="10" ry="10"/>
    <ellipse style="fill: none; stroke-opacity: 1; stroke-width: 1; stroke: #ffffff" cx="70" cy="70" rx="10" ry="10"/>
    <ellipse style="fill: none; stroke-opacity: 1; stroke-width: 1; stroke: #ffffff" cx="10" cy="170" rx="10" ry="10"/>
    <text font-size="12.8" style="fill: #000000; fill-opacity: 1; stroke: none;text-anchor:middle;font-family:sans-serif;font-style:normal;font-weight:normal" x="10" y="134.95">
      <tspan x="10" y="134.95">0</tspan>
    </text>
    <text font-size="12.8" style="fill: #000000; fill-opacity: 1; stroke: none;text-anchor:middle;font-family:sans-serif;font-style:normal;font-weight:normal" x="10" y="154.95">
      <tspan x="10" y="154.95">1</tspan>
    </text>
    <text font-size="12.8" style="fill: #000000; fill-opacity: 1; stroke: none;text-anchor:middle;font-family:sans-serif;font-style:normal;font-weight:normal" x="10" y="174.95">
      <tspan x="10" y="174.95">2</tspan>
    </text>
    <text font-size="12.8" style="fill: #000000; fill-opacity: 1; stroke: none;text-anchor:middle;font-family:sans-serif;font-style:normal;font-weight:normal" x="70" y="134.95">
      <tspan x="70" y="134.95">0</tspan>
    </text>
    <text font-size="12.8" style="fill: #000000; fill-opacity: 1; stroke: none;text-anchor:middle;font-family:sans-serif;font-style:normal;font-weight:normal" x="70" y="154.95">
      <tspan x="70" y="154.95">1</tspan>
    </text>
    <text font-size="12.8" style="fill: #000000; fill-opacity: 1; stroke: none;text-anchor:middle;font-family:sans-serif;font-style:normal;font-weight:normal" x="70" y="174.95">
      <tspan x="70" y="174.95">2</tspan>
    </text>
    <g>
      <line style="fill: none; stroke-opacity: 1; stroke-width: 1; stroke-dasharray: 5; stroke: #aaaaaa" x1="20.5029" y1="130" x2="57.261" y2="130"/>
      <polyline style="fill: none; stroke-opacity: 1; stroke-width: 1; stroke: #aaaaaa" points="53.379,132.5 58.379,130 53.379,127.5 "/>
    </g>
    <g>
      <line style="fill: none; stroke-opacity: 1; stroke-width: 1; stroke-dasharray: 5; stroke: #aaaaaa" x1="20.5029" y1="170" x2="57.261" y2="170"/>
      <polyline style="fill: none; stroke-opacity: 1; stroke-width: 1; stroke: #aaaaaa" points="53.379,172.5 58.379,170 53.379,167.5 "/>
    </g>
    <g>
      <line style="fill: none; stroke-opacity: 1; stroke-width: 1; stroke-dasharray: 5; stroke: #aaaaaa" x1="20.5029" y1="150" x2="57.261" y2="150"/>
      <polyline style="fill: none; stroke-opacity: 1; stroke-width: 1; stroke: #aaaaaa" points="53.379,152.5 58.379,150 53.379,147.5 "/>
    </g>
    <ellipse style="fill: none; stroke-opacity: 1; stroke-width: 1; stroke: #ffffff" cx="10" cy="150" rx="10" ry="10"/>
    <ellipse style="fill: none; stroke-opacity: 1; stroke-width: 1; stroke: #ffffff" cx="10" cy="130" rx="10" ry="10"/>
    <ellipse style="fill: none; stroke-opacity: 1; stroke-width: 1; stroke: #ffffff" cx="70" cy="130" rx="10" ry="10"/>
    <ellipse style="fill: none; stroke-opacity: 1; stroke-width: 1; stroke: #ffffff" cx="70" cy="150" rx="10" ry="10"/>
    <ellipse style="fill: none; stroke-opacity: 1; stroke-width: 1; stroke: #ffffff" cx="70" cy="170" rx="10" ry="10"/>
    <ellipse style="fill: none; stroke-opacity: 1; stroke-width: 1; stroke: #ffffff" cx="290" cy="70" rx="10" ry="10"/>
    <text font-size="12.8" style="fill: #000000; fill-opacity: 1; stroke: none;text-anchor:middle;font-family:sans-serif;font-style:normal;font-weight:normal" x="290" y="34.95">
      <tspan x="290" y="34.95">0</tspan>
    </text>
    <text font-size="12.8" style="fill: #000000; fill-opacity: 1; stroke: none;text-anchor:middle;font-family:sans-serif;font-style:normal;font-weight:normal" x="290" y="54.95">
      <tspan x="290" y="54.95">1</tspan>
    </text>
    <text font-size="12.8" style="fill: #000000; fill-opacity: 1; stroke: none;text-anchor:middle;font-family:sans-serif;font-style:normal;font-weight:normal" x="290" y="74.95">
      <tspan x="290" y="74.95">2</tspan>
    </text>
    <text font-size="12.8" style="fill: #000000; fill-opacity: 1; stroke: none;text-anchor:middle;font-family:sans-serif;font-style:normal;font-weight:normal" x="350" y="34.95">
      <tspan x="350" y="34.95">0</tspan>
    </text>
    <text font-size="12.8" style="fill: #000000; fill-opacity: 1; stroke: none;text-anchor:middle;font-family:sans-serif;font-style:normal;font-weight:normal" x="350" y="54.95">
      <tspan x="350" y="54.95">1</tspan>
    </text>
    <text font-size="12.8" style="fill: #000000; fill-opacity: 1; stroke: none;text-anchor:middle;font-family:sans-serif;font-style:normal;font-weight:normal" x="350" y="74.95">
      <tspan x="350" y="74.95">2</tspan>
    </text>
    <ellipse style="fill: none; stroke-opacity: 1; stroke-width: 1; stroke: #ffffff" cx="290" cy="50" rx="10" ry="10"/>
    <ellipse style="fill: none; stroke-opacity: 1; stroke-width: 1; stroke: #ffffff" cx="290" cy="30" rx="10" ry="10"/>
    <ellipse style="fill: none; stroke-opacity: 1; stroke-width: 1; stroke: #ffffff" cx="350" cy="30" rx="10" ry="10"/>
    <ellipse style="fill: none; stroke-opacity: 1; stroke-width: 1; stroke: #ffffff" cx="350" cy="50" rx="10" ry="10"/>
    <ellipse style="fill: none; stroke-opacity: 1; stroke-width: 1; stroke: #ffffff" cx="350" cy="70" rx="10" ry="10"/>
    <g>
      <line style="fill: none; stroke-opacity: 1; stroke-width: 1; stroke: #000000" x1="299.968" y1="33.3228" x2="334.814" y2="44.938"/>
      <polygon style="fill: #000000; fill-opacity: 1; stroke-opacity: 1; stroke-width: 1; stroke: #000000" fill-rule="evenodd" points="334.023,47.3097 339.557,46.5191 335.605,42.5663 "/>
    </g>
    <g>
      <line style="fill: none; stroke-opacity: 1; stroke-width: 1; stroke: #000000" x1="299.968" y1="46.6772" x2="334.814" y2="35.062"/>
      <polygon style="fill: #000000; fill-opacity: 1; stroke-opacity: 1; stroke-width: 1; stroke: #000000" fill-rule="evenodd" points="335.605,37.4337 339.557,33.4809 334.023,32.6903 "/>
    </g>
    <g>
      <line style="fill: none; stroke-opacity: 1; stroke-width: 1; stroke: #000000" x1="299.968" y1="53.3228" x2="334.814" y2="64.938"/>
      <polygon style="fill: #000000; fill-opacity: 1; stroke-opacity: 1; stroke-width: 1; stroke: #000000" fill-rule="evenodd" points="334.023,67.3097 339.557,66.5191 335.605,62.5663 "/>
    </g>
    <g>
      <line style="fill: none; stroke-opacity: 1; stroke-width: 1; stroke: #000000" x1="299.968" y1="66.6772" x2="334.814" y2="55.062"/>
      <polygon style="fill: #000000; fill-opacity: 1; stroke-opacity: 1; stroke-width: 1; stroke: #000000" fill-rule="evenodd" points="335.605,57.4337 339.557,53.4809 334.023,52.6903 "/>
    </g>
    <ellipse style="fill: none; stroke-opacity: 1; stroke-width: 1; stroke: #ffffff" cx="290" cy="170" rx="10" ry="10"/>
    <text font-size="12.8" style="fill: #000000; fill-opacity: 1; stroke: none;text-anchor:middle;font-family:sans-serif;font-style:normal;font-weight:normal" x="290" y="134.95">
      <tspan x="290" y="134.95">0</tspan>
    </text>
    <text font-size="12.8" style="fill: #000000; fill-opacity: 1; stroke: none;text-anchor:middle;font-family:sans-serif;font-style:normal;font-weight:normal" x="290" y="154.95">
      <tspan x="290" y="154.95">1</tspan>
    </text>
    <text font-size="12.8" style="fill: #000000; fill-opacity: 1; stroke: none;text-anchor:middle;font-family:sans-serif;font-style:normal;font-weight:normal" x="290" y="174.95">
      <tspan x="290" y="174.95">2</tspan>
    </text>
    <text font-size="12.8" style="fill: #000000; fill-opacity: 1; stroke: none;text-anchor:middle;font-family:sans-serif;font-style:normal;font-weight:normal" x="350" y="134.95">
      <tspan x="350" y="134.95">0</tspan>
    </text>
    <text font-size="12.8" style="fill: #000000; fill-opacity: 1; stroke: none;text-anchor:middle;font-family:sans-serif;font-style:normal;font-weight:normal" x="350" y="154.95">
      <tspan x="350" y="154.95">1</tspan>
    </text>
    <text font-size="12.8" style="fill: #000000; fill-opacity: 1; stroke: none;text-anchor:middle;font-family:sans-serif;font-style:normal;font-weight:normal" x="350" y="174.95">
      <tspan x="350" y="174.95">2</tspan>
    </text>
    <ellipse style="fill: none; stroke-opacity: 1; stroke-width: 1; stroke: #ffffff" cx="290" cy="150" rx="10" ry="10"/>
    <ellipse style="fill: none; stroke-opacity: 1; stroke-width: 1; stroke: #ffffff" cx="290" cy="130" rx="10" ry="10"/>
    <ellipse style="fill: none; stroke-opacity: 1; stroke-width: 1; stroke: #ffffff" cx="350" cy="130" rx="10" ry="10"/>
    <ellipse style="fill: none; stroke-opacity: 1; stroke-width: 1; stroke: #ffffff" cx="350" cy="150" rx="10" ry="10"/>
    <ellipse style="fill: none; stroke-opacity: 1; stroke-width: 1; stroke: #ffffff" cx="350" cy="170" rx="10" ry="10"/>
    <g>
      <line style="fill: none; stroke-opacity: 1; stroke-width: 1; stroke: #000000" x1="299.968" y1="133.323" x2="334.814" y2="144.938"/>
      <polygon style="fill: #000000; fill-opacity: 1; stroke-opacity: 1; stroke-width: 1; stroke: #000000" fill-rule="evenodd" points="334.023,147.31 339.557,146.519 335.605,142.566 "/>
    </g>
    <g>
      <line style="fill: none; stroke-opacity: 1; stroke-width: 1; stroke: #000000" x1="299.968" y1="166.677" x2="334.814" y2="155.062"/>
      <polygon style="fill: #000000; fill-opacity: 1; stroke-opacity: 1; stroke-width: 1; stroke: #000000" fill-rule="evenodd" points="335.605,157.434 339.557,153.481 334.023,152.69 "/>
    </g>
    <ellipse style="fill: none; stroke-opacity: 1; stroke-width: 1; stroke: #ffffff" cx="290" cy="270" rx="10" ry="10"/>
    <text font-size="12.8" style="fill: #000000; fill-opacity: 1; stroke: none;text-anchor:middle;font-family:sans-serif;font-style:normal;font-weight:normal" x="290" y="234.95">
      <tspan x="290" y="234.95">0</tspan>
    </text>
    <text font-size="12.8" style="fill: #000000; fill-opacity: 1; stroke: none;text-anchor:middle;font-family:sans-serif;font-style:normal;font-weight:normal" x="290" y="254.95">
      <tspan x="290" y="254.95">1</tspan>
    </text>
    <text font-size="12.8" style="fill: #000000; fill-opacity: 1; stroke: none;text-anchor:middle;font-family:sans-serif;font-style:normal;font-weight:normal" x="290" y="274.95">
      <tspan x="290" y="274.95">2</tspan>
    </text>
    <text font-size="12.8" style="fill: #000000; fill-opacity: 1; stroke: none;text-anchor:middle;font-family:sans-serif;font-style:normal;font-weight:normal" x="350" y="234.95">
      <tspan x="350" y="234.95">0</tspan>
    </text>
    <text font-size="12.8" style="fill: #000000; fill-opacity: 1; stroke: none;text-anchor:middle;font-family:sans-serif;font-style:normal;font-weight:normal" x="350" y="254.95">
      <tspan x="350" y="254.95">1</tspan>
    </text>
    <text font-size="12.8" style="fill: #000000; fill-opacity: 1; stroke: none;text-anchor:middle;font-family:sans-serif;font-style:normal;font-weight:normal" x="350" y="274.95">
      <tspan x="350" y="274.95">2</tspan>
    </text>
    <ellipse style="fill: none; stroke-opacity: 1; stroke-width: 1; stroke: #ffffff" cx="290" cy="250" rx="10" ry="10"/>
    <ellipse style="fill: none; stroke-opacity: 1; stroke-width: 1; stroke: #ffffff" cx="290" cy="230" rx="10" ry="10"/>
    <ellipse style="fill: none; stroke-opacity: 1; stroke-width: 1; stroke: #ffffff" cx="350" cy="230" rx="10" ry="10"/>
    <ellipse style="fill: none; stroke-opacity: 1; stroke-width: 1; stroke: #ffffff" cx="350" cy="250" rx="10" ry="10"/>
    <ellipse style="fill: none; stroke-opacity: 1; stroke-width: 1; stroke: #ffffff" cx="350" cy="270" rx="10" ry="10"/>
    <g>
      <line style="fill: none; stroke-opacity: 1; stroke-width: 1; stroke: #000000" x1="299.968" y1="233.323" x2="334.814" y2="244.938"/>
      <polygon style="fill: #000000; fill-opacity: 1; stroke-opacity: 1; stroke-width: 1; stroke: #000000" fill-rule="evenodd" points="334.023,247.31 339.557,246.519 335.605,242.566 "/>
    </g>
    <g>
      <line style="fill: none; stroke-opacity: 1; stroke-width: 1; stroke: #000000" x1="299.968" y1="266.677" x2="334.814" y2="255.062"/>
      <polygon style="fill: #000000; fill-opacity: 1; stroke-opacity: 1; stroke-width: 1; stroke: #000000" fill-rule="evenodd" points="335.605,257.434 339.557,253.481 334.023,252.69 "/>
    </g>
    <g>
      <line style="fill: none; stroke-opacity: 1; stroke-width: 2; stroke-dasharray: 4; stroke: #888888" x1="382.196" y1="26.0274" x2="418.196" y2="74.0274"/>
      <text font-size="12.8" style="fill: #000000; fill-opacity: 1; stroke: none;text-anchor:middle;font-family:sans-serif;font-style:normal;font-weight:normal" x="400.196" y="38.9774">
        <tspan x="400.196" y="38.9774">? 1 0</tspan>
        <tspan x="400.196" y="54.9774">1 ? 1</tspan>
        <tspan x="400.196" y="70.9774">0 1 ?</tspan>
      </text>
      <line style="fill: none; stroke-opacity: 1; stroke-width: 1; stroke: #000000" x1="420.196" y1="26.0274" x2="420.196" y2="74.0274"/>
      <line style="fill: none; stroke-opacity: 1; stroke-width: 1; stroke: #000000" x1="416.196" y1="26.0274" x2="420.196" y2="26.0274"/>
      <line style="fill: none; stroke-opacity: 1; stroke-width: 1; stroke: #000000" x1="416.196" y1="74.0274" x2="420.196" y2="74.0274"/>
      <line style="fill: none; stroke-opacity: 1; stroke-width: 1; stroke: #000000" x1="380.196" y1="26.0274" x2="380.196" y2="74.0274"/>
      <line style="fill: none; stroke-opacity: 1; stroke-width: 1; stroke: #000000" x1="384.196" y1="26.0274" x2="380.196" y2="26.0274"/>
      <line style="fill: none; stroke-opacity: 1; stroke-width: 1; stroke: #000000" x1="384.196" y1="74.0274" x2="380.196" y2="74.0274"/>
    </g>
    <g>
      <line style="fill: none; stroke-opacity: 1; stroke-width: 2; stroke-dasharray: 4; stroke: #888888" x1="382.292" y1="125.922" x2="418.292" y2="173.922"/>
      <text font-size="12.8" style="fill: #000000; fill-opacity: 1; stroke: none;text-anchor:middle;font-family:sans-serif;font-style:normal;font-weight:normal" x="400.292" y="138.872">
        <tspan x="400.292" y="138.872">? 1 0</tspan>
        <tspan x="400.292" y="154.872">0 ? 0</tspan>
        <tspan x="400.292" y="170.872">0 1 ?</tspan>
      </text>
      <line style="fill: none; stroke-opacity: 1; stroke-width: 1; stroke: #000000" x1="420.292" y1="125.922" x2="420.292" y2="173.922"/>
      <line style="fill: none; stroke-opacity: 1; stroke-width: 1; stroke: #000000" x1="416.292" y1="125.922" x2="420.292" y2="125.922"/>
      <line style="fill: none; stroke-opacity: 1; stroke-width: 1; stroke: #000000" x1="416.292" y1="173.922" x2="420.292" y2="173.922"/>
      <line style="fill: none; stroke-opacity: 1; stroke-width: 1; stroke: #000000" x1="380.292" y1="125.922" x2="380.292" y2="173.922"/>
      <line style="fill: none; stroke-opacity: 1; stroke-width: 1; stroke: #000000" x1="384.292" y1="125.922" x2="380.292" y2="125.922"/>
      <line style="fill: none; stroke-opacity: 1; stroke-width: 1; stroke: #000000" x1="384.292" y1="173.922" x2="380.292" y2="173.922"/>
    </g>
    <ellipse style="fill: none; stroke-opacity: 1; stroke-width: 1; stroke: #ffffff" cx="200" cy="70" rx="10" ry="10"/>
    <text font-size="12.8" style="fill: #000000; fill-opacity: 1; stroke: none;text-anchor:middle;font-family:sans-serif;font-style:normal;font-weight:normal" x="170" y="34.95">
      <tspan x="170" y="34.95">0</tspan>
    </text>
    <text font-size="12.8" style="fill: #000000; fill-opacity: 1; stroke: none;text-anchor:middle;font-family:sans-serif;font-style:normal;font-weight:normal" x="230" y="34.95">
      <tspan x="230" y="34.95">1</tspan>
    </text>
    <text font-size="12.8" style="fill: #000000; fill-opacity: 1; stroke: none;text-anchor:middle;font-family:sans-serif;font-style:normal;font-weight:normal" x="200" y="74.95">
      <tspan x="200" y="74.95">2</tspan>
    </text>
    <ellipse style="fill: none; stroke-opacity: 1; stroke-width: 1; stroke: #ffffff" cx="230" cy="30" rx="10" ry="10"/>
    <ellipse style="fill: none; stroke-opacity: 1; stroke-width: 1; stroke: #ffffff" cx="170" cy="30" rx="10" ry="10"/>
    <g>
      <path style="fill: none; stroke-opacity: 1; stroke-width: 1; stroke: #000000" d="M 180 30 C 190,40 180,50 173.889,43.8891"/>
      <polygon style="fill: #000000; fill-opacity: 1; stroke-opacity: 1; stroke-width: 1; stroke: #000000" fill-rule="evenodd" points="175.657,42.1213 170.354,40.3536 172.121,45.6569 "/>
    </g>
    <g>
      <path style="fill: none; stroke-opacity: 1; stroke-width: 1; stroke: #000000" d="M 230 40 C 220,50 210,40 216.111,33.8891"/>
      <polygon style="fill: #000000; fill-opacity: 1; stroke-opacity: 1; stroke-width: 1; stroke: #000000" fill-rule="evenodd" points="217.879,35.6569 219.646,30.3536 214.343,32.1213 "/>
    </g>
    <g>
      <path style="fill: none; stroke-opacity: 1; stroke-width: 1; stroke: #000000" d="M 200 60 C 210,50 220,60 213.889,66.1109"/>
      <polygon style="fill: #000000; fill-opacity: 1; stroke-opacity: 1; stroke-width: 1; stroke: #000000" fill-rule="evenodd" points="212.121,64.3431 210.354,69.6464 215.657,67.8787 "/>
    </g>
    <g>
      <path style="fill: none; stroke-opacity: 1; stroke-width: 2; stroke-dasharray: 4; stroke: #888888" d="M 140 80 C 150,80 110,20 100,20 C 90,20 130,80 140,80"/>
      <text font-size="12.8" style="fill: #000000; fill-opacity: 1; stroke: none;text-anchor:middle;font-family:sans-serif;font-style:normal;font-weight:normal" x="120" y="38.95">
        <tspan x="120" y="38.95">1 ? ?</tspan>
        <tspan x="120" y="54.95">? 1 ?</tspan>
        <tspan x="120" y="70.95">? ? 1</tspan>
      </text>
      <line style="fill: none; stroke-opacity: 1; stroke-width: 1; stroke: #000000" x1="140" y1="26" x2="140" y2="74"/>
      <line style="fill: none; stroke-opacity: 1; stroke-width: 1; stroke: #000000" x1="136" y1="26" x2="140" y2="26"/>
      <line style="fill: none; stroke-opacity: 1; stroke-width: 1; stroke: #000000" x1="136" y1="74" x2="140" y2="74"/>
      <line style="fill: none; stroke-opacity: 1; stroke-width: 1; stroke: #000000" x1="100" y1="26" x2="100" y2="74"/>
      <line style="fill: none; stroke-opacity: 1; stroke-width: 1; stroke: #000000" x1="104" y1="26" x2="100" y2="26"/>
      <line style="fill: none; stroke-opacity: 1; stroke-width: 1; stroke: #000000" x1="104" y1="74" x2="100" y2="74"/>
    </g>
    <g>
      <path style="fill: none; stroke-opacity: 1; stroke-width: 2; stroke-dasharray: 4; stroke: #888888" d="M 140 180 C 150,180 110,120 100,120 C 90,120 130,180 140,180"/>
      <text font-size="12.8" style="fill: #000000; fill-opacity: 1; stroke: none;text-anchor:middle;font-family:sans-serif;font-style:normal;font-weight:normal" x="120" y="138.95">
        <tspan x="120" y="138.95">0 ? ?</tspan>
        <tspan x="120" y="154.95">? 0 ?</tspan>
        <tspan x="120" y="170.95">? ? 0</tspan>
      </text>
      <line style="fill: none; stroke-opacity: 1; stroke-width: 1; stroke: #000000" x1="140" y1="126" x2="140" y2="174"/>
      <line style="fill: none; stroke-opacity: 1; stroke-width: 1; stroke: #000000" x1="136" y1="126" x2="140" y2="126"/>
      <line style="fill: none; stroke-opacity: 1; stroke-width: 1; stroke: #000000" x1="136" y1="174" x2="140" y2="174"/>
      <line style="fill: none; stroke-opacity: 1; stroke-width: 1; stroke: #000000" x1="100" y1="126" x2="100" y2="174"/>
      <line style="fill: none; stroke-opacity: 1; stroke-width: 1; stroke: #000000" x1="104" y1="126" x2="100" y2="126"/>
      <line style="fill: none; stroke-opacity: 1; stroke-width: 1; stroke: #000000" x1="104" y1="174" x2="100" y2="174"/>
    </g>
    <ellipse style="fill: none; stroke-opacity: 1; stroke-width: 1; stroke: #ffffff" cx="200" cy="170" rx="10" ry="10"/>
    <text font-size="12.8" style="fill: #000000; fill-opacity: 1; stroke: none;text-anchor:middle;font-family:sans-serif;font-style:normal;font-weight:normal" x="170" y="134.95">
      <tspan x="170" y="134.95">0</tspan>
    </text>
    <text font-size="12.8" style="fill: #000000; fill-opacity: 1; stroke: none;text-anchor:middle;font-family:sans-serif;font-style:normal;font-weight:normal" x="230" y="134.95">
      <tspan x="230" y="134.95">1</tspan>
    </text>
    <text font-size="12.8" style="fill: #000000; fill-opacity: 1; stroke: none;text-anchor:middle;font-family:sans-serif;font-style:normal;font-weight:normal" x="200" y="174.95">
      <tspan x="200" y="174.95">2</tspan>
    </text>
    <ellipse style="fill: none; stroke-opacity: 1; stroke-width: 1; stroke: #ffffff" cx="230" cy="130" rx="10" ry="10"/>
    <ellipse style="fill: none; stroke-opacity: 1; stroke-width: 1; stroke: #ffffff" cx="170" cy="130" rx="10" ry="10"/>
    <g>
      <path style="fill: none; stroke-opacity: 1; stroke-width: 1; stroke-dasharray: 5; stroke: #aaaaaa" d="M 180 130 C 200,140 180,160 171,142"/>
      <polyline style="fill: none; stroke-opacity: 1; stroke-width: 1; stroke: #aaaaaa" points="174.972,144.354 170.5,141 170.5,146.59 "/>
    </g>
    <g>
      <path style="fill: none; stroke-opacity: 1; stroke-width: 1; stroke-dasharray: 5; stroke: #aaaaaa" d="M 230 140 C 220,160 200,140 218,131"/>
      <polyline style="fill: none; stroke-opacity: 1; stroke-width: 1; stroke: #aaaaaa" points="215.646,134.972 219,130.5 213.41,130.5 "/>
    </g>
    <g>
      <path style="fill: none; stroke-opacity: 1; stroke-width: 1; stroke-dasharray: 5; stroke: #aaaaaa" d="M 200 160 C 210,140 230,160 212,169"/>
      <polyline style="fill: none; stroke-opacity: 1; stroke-width: 1; stroke: #aaaaaa" points="214.354,165.028 211,169.5 216.59,169.5 "/>
    </g>
    <ellipse style="fill: none; stroke-opacity: 1; stroke-width: 1; stroke: #ffffff" cx="480" cy="70" rx="10" ry="10"/>
    <text font-size="12.8" style="fill: #000000; fill-opacity: 1; stroke: none;text-anchor:middle;font-family:sans-serif;font-style:normal;font-weight:normal" x="450" y="34.95">
      <tspan x="450" y="34.95">0</tspan>
    </text>
    <text font-size="12.8" style="fill: #000000; fill-opacity: 1; stroke: none;text-anchor:middle;font-family:sans-serif;font-style:normal;font-weight:normal" x="510" y="34.95">
      <tspan x="510" y="34.95">1</tspan>
    </text>
    <text font-size="12.8" style="fill: #000000; fill-opacity: 1; stroke: none;text-anchor:middle;font-family:sans-serif;font-style:normal;font-weight:normal" x="480" y="74.95">
      <tspan x="480" y="74.95">2</tspan>
    </text>
    <ellipse style="fill: none; stroke-opacity: 1; stroke-width: 1; stroke: #ffffff" cx="510" cy="30" rx="10" ry="10"/>
    <ellipse style="fill: none; stroke-opacity: 1; stroke-width: 1; stroke: #ffffff" cx="450" cy="30" rx="10" ry="10"/>
    <g>
      <line style="fill: none; stroke-opacity: 1; stroke-width: 1; stroke: #000000" x1="499.497" y1="30" x2="466.003" y2="30"/>
      <polygon style="fill: #000000; fill-opacity: 1; stroke-opacity: 1; stroke-width: 1; stroke: #000000" fill-rule="evenodd" points="466.003,27.5 461.003,30 466.003,32.5 "/>
    </g>
    <g>
      <line style="fill: none; stroke-opacity: 1; stroke-width: 1; stroke: #000000" x1="456.302" y1="38.4033" x2="470.398" y2="57.1967"/>
      <polygon style="fill: #000000; fill-opacity: 1; stroke-opacity: 1; stroke-width: 1; stroke: #000000" fill-rule="evenodd" points="468.398,58.6967 473.398,61.1967 472.398,55.6967 "/>
    </g>
    <g>
      <line style="fill: none; stroke-opacity: 1; stroke-width: 1; stroke: #000000" x1="486.302" y1="61.5967" x2="500.398" y2="42.8033"/>
      <polygon style="fill: #000000; fill-opacity: 1; stroke-opacity: 1; stroke-width: 1; stroke: #000000" fill-rule="evenodd" points="502.398,44.3033 503.398,38.8033 498.398,41.3033 "/>
    </g>
    <g>
      <path style="fill: none; stroke-opacity: 1; stroke-width: 1; stroke: #000000" d="M 460.509,29.991 A 24.0068,24.0068 0 0 1 495.868,25.9924"/>
      <polygon style="fill: #000000; fill-opacity: 1; stroke-opacity: 1; stroke-width: 1; stroke: #000000" fill-rule="evenodd" points="494.25,26.9852 499.199,29.585 498.309,24.0661 "/>
    </g>
    <g>
      <path style="fill: none; stroke-opacity: 1; stroke-width: 1; stroke: #000000" d="M 503.707,38.4188 A 15.5065,15.5065 0 0 1 491.549,62.1732"/>
      <polygon style="fill: #000000; fill-opacity: 1; stroke-opacity: 1; stroke-width: 1; stroke: #000000" fill-rule="evenodd" points="492.296,60.7148 486.801,61.7396 490.918,65.5211 "/>
    </g>
    <g>
      <path style="fill: none; stroke-opacity: 1; stroke-width: 1; stroke: #000000" d="M 473.68,61.6017 A 15.5065,15.5065 0 0 1 454.28,43.2783"/>
      <polygon style="fill: #000000; fill-opacity: 1; stroke-opacity: 1; stroke-width: 1; stroke: #000000" fill-rule="evenodd" points="455.471,44.4041 456.026,38.8416 451.243,41.7352 "/>
    </g>
    <g>
      <path style="fill: none; stroke-opacity: 1; stroke-width: 2; stroke-dasharray: 4; stroke: #888888" d="M 420 280 C 430,280 390,220 380,220 C 370,220 410,280 420,280"/>
      <line style="fill: none; stroke-opacity: 1; stroke-width: 2; stroke-dasharray: 4; stroke: #888888" x1="382" y1="226" x2="418" y2="274"/>
      <text font-size="12.8" style="fill: #000000; fill-opacity: 1; stroke: none;text-anchor:middle;font-family:sans-serif;font-style:normal;font-weight:normal" x="400" y="238.95">
        <tspan x="400" y="238.95">0 1 0</tspan>
        <tspan x="400" y="254.95">0 0 0</tspan>
        <tspan x="400" y="270.95">0 1 0</tspan>
      </text>
      <line style="fill: none; stroke-opacity: 1; stroke-width: 1; stroke: #000000" x1="420" y1="226" x2="420" y2="274"/>
      <line style="fill: none; stroke-opacity: 1; stroke-width: 1; stroke: #000000" x1="416" y1="226" x2="420" y2="226"/>
      <line style="fill: none; stroke-opacity: 1; stroke-width: 1; stroke: #000000" x1="416" y1="274" x2="420" y2="274"/>
      <line style="fill: none; stroke-opacity: 1; stroke-width: 1; stroke: #000000" x1="380" y1="226" x2="380" y2="274"/>
      <line style="fill: none; stroke-opacity: 1; stroke-width: 1; stroke: #000000" x1="384" y1="226" x2="380" y2="226"/>
      <line style="fill: none; stroke-opacity: 1; stroke-width: 1; stroke: #000000" x1="384" y1="274" x2="380" y2="274"/>
    </g>
    <ellipse style="fill: none; stroke-opacity: 1; stroke-width: 1; stroke: #ffffff" cx="480" cy="170" rx="10" ry="10"/>
    <text font-size="12.8" style="fill: #000000; fill-opacity: 1; stroke: none;text-anchor:middle;font-family:sans-serif;font-style:normal;font-weight:normal" x="450" y="134.95">
      <tspan x="450" y="134.95">0</tspan>
    </text>
    <text font-size="12.8" style="fill: #000000; fill-opacity: 1; stroke: none;text-anchor:middle;font-family:sans-serif;font-style:normal;font-weight:normal" x="510" y="134.95">
      <tspan x="510" y="134.95">1</tspan>
    </text>
    <text font-size="12.8" style="fill: #000000; fill-opacity: 1; stroke: none;text-anchor:middle;font-family:sans-serif;font-style:normal;font-weight:normal" x="480" y="174.95">
      <tspan x="480" y="174.95">2</tspan>
    </text>
    <ellipse style="fill: none; stroke-opacity: 1; stroke-width: 1; stroke: #ffffff" cx="510" cy="130" rx="10" ry="10"/>
    <ellipse style="fill: none; stroke-opacity: 1; stroke-width: 1; stroke: #ffffff" cx="450" cy="130" rx="10" ry="10"/>
    <g>
      <line style="fill: none; stroke-opacity: 1; stroke-width: 1; stroke-dasharray: 5; stroke: #aaaaaa" x1="499.497" y1="130" x2="462.739" y2="130"/>
      <polyline style="fill: none; stroke-opacity: 1; stroke-width: 1; stroke: #aaaaaa" points="466.621,127.5 461.621,130 466.621,132.5 "/>
    </g>
    <g>
      <line style="fill: none; stroke-opacity: 1; stroke-width: 1; stroke: #000000" x1="486.302" y1="161.597" x2="500.398" y2="142.803"/>
      <polygon style="fill: #000000; fill-opacity: 1; stroke-opacity: 1; stroke-width: 1; stroke: #000000" fill-rule="evenodd" points="502.398,144.303 503.398,138.803 498.398,141.303 "/>
    </g>
    <g>
      <path style="fill: none; stroke-opacity: 1; stroke-width: 1; stroke: #000000" d="M 460.509,129.991 A 24.0068,24.0068 0 0 1 495.868,125.992"/>
      <polygon style="fill: #000000; fill-opacity: 1; stroke-opacity: 1; stroke-width: 1; stroke: #000000" fill-rule="evenodd" points="494.25,126.985 499.199,129.585 498.309,124.066 "/>
    </g>
    <g>
      <path style="fill: none; stroke-opacity: 1; stroke-width: 1; stroke-dasharray: 5; stroke: #aaaaaa" d="M 503.707,138.419 A 15.5065,15.5065 0 0 1 488.491,162.059"/>
      <polyline style="fill: none; stroke-opacity: 1; stroke-width: 1; stroke: #aaaaaa" points="492.89,160.885 487.395,161.91 491.512,165.691 "/>
    </g>
    <g>
      <line style="fill: none; stroke-opacity: 1; stroke-width: 1; stroke-dasharray: 5; stroke: #aaaaaa" x1="299.968" y1="253.323" x2="337.91" y2="265.97"/>
      <polyline style="fill: none; stroke-opacity: 1; stroke-width: 1; stroke: #aaaaaa" points="333.437,267.114 338.971,266.324 335.018,262.371 "/>
    </g>
    <g>
      <line style="fill: none; stroke-opacity: 1; stroke-width: 1; stroke-dasharray: 5; stroke: #aaaaaa" x1="299.968" y1="246.677" x2="337.91" y2="234.03"/>
      <polyline style="fill: none; stroke-opacity: 1; stroke-width: 1; stroke: #aaaaaa" points="335.018,237.629 338.971,233.676 333.437,232.886 "/>
    </g>
    <ellipse style="fill: none; stroke-opacity: 1; stroke-width: 1; stroke: #ffffff" cx="480" cy="270" rx="10" ry="10"/>
    <text font-size="12.8" style="fill: #000000; fill-opacity: 1; stroke: none;text-anchor:middle;font-family:sans-serif;font-style:normal;font-weight:normal" x="450" y="234.95">
      <tspan x="450" y="234.95">0</tspan>
    </text>
    <text font-size="12.8" style="fill: #000000; fill-opacity: 1; stroke: none;text-anchor:middle;font-family:sans-serif;font-style:normal;font-weight:normal" x="510" y="234.95">
      <tspan x="510" y="234.95">1</tspan>
    </text>
    <text font-size="12.8" style="fill: #000000; fill-opacity: 1; stroke: none;text-anchor:middle;font-family:sans-serif;font-style:normal;font-weight:normal" x="480" y="274.95">
      <tspan x="480" y="274.95">2</tspan>
    </text>
    <ellipse style="fill: none; stroke-opacity: 1; stroke-width: 1; stroke: #ffffff" cx="510" cy="230" rx="10" ry="10"/>
    <ellipse style="fill: none; stroke-opacity: 1; stroke-width: 1; stroke: #ffffff" cx="450" cy="230" rx="10" ry="10"/>
    <g>
      <line style="fill: none; stroke-opacity: 1; stroke-width: 1; stroke-dasharray: 5; stroke: #aaaaaa" x1="499.497" y1="230" x2="462.739" y2="230"/>
      <polyline style="fill: none; stroke-opacity: 1; stroke-width: 1; stroke: #aaaaaa" points="466.621,227.5 461.621,230 466.621,232.5 "/>
    </g>
    <g>
      <line style="fill: none; stroke-opacity: 1; stroke-width: 1; stroke: #000000" x1="486.302" y1="261.597" x2="500.398" y2="242.803"/>
      <polygon style="fill: #000000; fill-opacity: 1; stroke-opacity: 1; stroke-width: 1; stroke: #000000" fill-rule="evenodd" points="502.398,244.303 503.398,238.803 498.398,241.303 "/>
    </g>
    <g>
      <path style="fill: none; stroke-opacity: 1; stroke-width: 1; stroke: #000000" d="M 460.509,229.991 A 24.0068,24.0068 0 0 1 495.868,225.992"/>
      <polygon style="fill: #000000; fill-opacity: 1; stroke-opacity: 1; stroke-width: 1; stroke: #000000" fill-rule="evenodd" points="494.25,226.985 499.199,229.585 498.309,224.066 "/>
    </g>
    <g>
      <path style="fill: none; stroke-opacity: 1; stroke-width: 1; stroke-dasharray: 5; stroke: #aaaaaa" d="M 503.707,238.419 A 15.5065,15.5065 0 0 1 488.491,262.059"/>
      <polyline style="fill: none; stroke-opacity: 1; stroke-width: 1; stroke: #aaaaaa" points="492.89,260.885 487.395,261.91 491.512,265.691 "/>
    </g>
    <g>
      <path style="fill: none; stroke-opacity: 1; stroke-width: 1; stroke-dasharray: 5; stroke: #aaaaaa" d="M 450 220 C 440,200 420,220 438,229"/>
      <polyline style="fill: none; stroke-opacity: 1; stroke-width: 1; stroke: #aaaaaa" points="433.41,229.5 439,229.5 435.646,225.028 "/>
    </g>
    <g>
      <path style="fill: none; stroke-opacity: 1; stroke-width: 1; stroke-dasharray: 5; stroke: #aaaaaa" d="M 470 270 C 450,260 470,240 479,258"/>
      <polyline style="fill: none; stroke-opacity: 1; stroke-width: 1; stroke: #aaaaaa" points="475.028,255.646 479.5,259 479.5,253.41 "/>
    </g>
    <g>
      <path style="fill: none; stroke-opacity: 1; stroke-width: 1; stroke-dasharray: 5; stroke: #aaaaaa" d="M 510 220 C 520,200 540,220 522,229"/>
      <polyline style="fill: none; stroke-opacity: 1; stroke-width: 1; stroke: #aaaaaa" points="524.354,225.028 521,229.5 526.59,229.5 "/>
    </g>
    <text font-size="12.8" style="fill: #000000; fill-opacity: 1; stroke: none;text-anchor:middle;font-family:sans-serif;font-style:normal;font-weight:normal" x="120" y="14.95">
      <tspan x="120" y="14.95">reflexive</tspan>
    </text>
    <text font-size="12.8" style="fill: #000000; fill-opacity: 1; stroke: none;text-anchor:middle;font-family:sans-serif;font-style:normal;font-weight:normal" x="120" y="114.95">
      <tspan x="120" y="114.95">irreflexive</tspan>
    </text>
    <text font-size="12.8" style="fill: #000000; fill-opacity: 1; stroke: none;text-anchor:middle;font-family:sans-serif;font-style:normal;font-weight:normal" x="400" y="14.95">
      <tspan x="400" y="14.95">symmetric</tspan>
    </text>
    <text font-size="12.8" style="fill: #000000; fill-opacity: 1; stroke: none;text-anchor:middle;font-family:sans-serif;font-style:normal;font-weight:normal" x="400" y="114.95">
      <tspan x="400" y="114.95">antisymmetric</tspan>
    </text>
    <text font-size="12.8" style="fill: #000000; fill-opacity: 1; stroke: none;text-anchor:middle;font-family:sans-serif;font-style:normal;font-weight:normal" x="400" y="214.95">
      <tspan x="400" y="214.95">asymmetric</tspan>
    </text>
    <text font-size="12.8" style="fill: #000000; fill-opacity: 1; stroke: none;text-anchor:middle;font-family:sans-serif;font-style:normal;font-weight:normal" x="120" y="214.95">
      <tspan x="120" y="214.95">transitive</tspan>
    </text>
    <ellipse style="fill: none; stroke-opacity: 1; stroke-width: 1; stroke: #ffffff" cx="10" cy="270" rx="10" ry="10"/>
    <text font-size="12.8" style="fill: #000000; fill-opacity: 1; stroke: none;text-anchor:middle;font-family:sans-serif;font-style:normal;font-weight:normal" x="10" y="234.95">
      <tspan x="10" y="234.95">0</tspan>
    </text>
    <text font-size="12.8" style="fill: #000000; fill-opacity: 1; stroke: none;text-anchor:middle;font-family:sans-serif;font-style:normal;font-weight:normal" x="10" y="254.95">
      <tspan x="10" y="254.95">1</tspan>
    </text>
    <text font-size="12.8" style="fill: #000000; fill-opacity: 1; stroke: none;text-anchor:middle;font-family:sans-serif;font-style:normal;font-weight:normal" x="10" y="274.95">
      <tspan x="10" y="274.95">2</tspan>
    </text>
    <text font-size="12.8" style="fill: #000000; fill-opacity: 1; stroke: none;text-anchor:middle;font-family:sans-serif;font-style:normal;font-weight:normal" x="70" y="234.95">
      <tspan x="70" y="234.95">0</tspan>
    </text>
    <text font-size="12.8" style="fill: #000000; fill-opacity: 1; stroke: none;text-anchor:middle;font-family:sans-serif;font-style:normal;font-weight:normal" x="70" y="254.95">
      <tspan x="70" y="254.95">1</tspan>
    </text>
    <text font-size="12.8" style="fill: #000000; fill-opacity: 1; stroke: none;text-anchor:middle;font-family:sans-serif;font-style:normal;font-weight:normal" x="70" y="274.95">
      <tspan x="70" y="274.95">2</tspan>
    </text>
    <ellipse style="fill: none; stroke-opacity: 1; stroke-width: 1; stroke: #ffffff" cx="10" cy="250" rx="10" ry="10"/>
    <ellipse style="fill: none; stroke-opacity: 1; stroke-width: 1; stroke: #ffffff" cx="10" cy="230" rx="10" ry="10"/>
    <ellipse style="fill: none; stroke-opacity: 1; stroke-width: 1; stroke: #ffffff" cx="70" cy="230" rx="10" ry="10"/>
    <ellipse style="fill: none; stroke-opacity: 1; stroke-width: 1; stroke: #ffffff" cx="70" cy="250" rx="10" ry="10"/>
    <ellipse style="fill: none; stroke-opacity: 1; stroke-width: 1; stroke: #ffffff" cx="70" cy="270" rx="10" ry="10"/>
    <g>
      <line style="fill: none; stroke-opacity: 1; stroke-width: 1; stroke: #000000" x1="19.9683" y1="233.323" x2="54.814" y2="244.938"/>
      <polygon style="fill: #000000; fill-opacity: 1; stroke-opacity: 1; stroke-width: 1; stroke: #000000" fill-rule="evenodd" points="54.0234,247.31 59.5574,246.519 55.6045,242.566 "/>
    </g>
    <g>
      <line style="fill: none; stroke-opacity: 1; stroke-width: 1; stroke: #000000" x1="19.9683" y1="253.323" x2="54.814" y2="264.938"/>
      <polygon style="fill: #000000; fill-opacity: 1; stroke-opacity: 1; stroke-width: 1; stroke: #000000" fill-rule="evenodd" points="54.0234,267.31 59.5574,266.519 55.6045,262.566 "/>
    </g>
    <text font-size="12.8" style="fill: #000000; fill-opacity: 1; stroke: none;text-anchor:middle;font-family:sans-serif;font-style:normal;font-weight:normal" x="120" y="238.95">
      <tspan x="120" y="238.95">? 1 1</tspan>
      <tspan x="120" y="254.95">? ? 1</tspan>
      <tspan x="120" y="270.95">? ? ?</tspan>
    </text>
    <line style="fill: none; stroke-opacity: 1; stroke-width: 1; stroke: #000000" x1="140" y1="226" x2="140" y2="274"/>
    <line style="fill: none; stroke-opacity: 1; stroke-width: 1; stroke: #000000" x1="136" y1="226" x2="140" y2="226"/>
    <line style="fill: none; stroke-opacity: 1; stroke-width: 1; stroke: #000000" x1="136" y1="274" x2="140" y2="274"/>
    <line style="fill: none; stroke-opacity: 1; stroke-width: 1; stroke: #000000" x1="100" y1="226" x2="100" y2="274"/>
    <line style="fill: none; stroke-opacity: 1; stroke-width: 1; stroke: #000000" x1="104" y1="226" x2="100" y2="226"/>
    <line style="fill: none; stroke-opacity: 1; stroke-width: 1; stroke: #000000" x1="104" y1="274" x2="100" y2="274"/>
    <ellipse style="fill: none; stroke-opacity: 1; stroke-width: 1; stroke: #ffffff" cx="200" cy="270" rx="10" ry="10"/>
    <text font-size="12.8" style="fill: #000000; fill-opacity: 1; stroke: none;text-anchor:middle;font-family:sans-serif;font-style:normal;font-weight:normal" x="170" y="234.95">
      <tspan x="170" y="234.95">0</tspan>
    </text>
    <text font-size="12.8" style="fill: #000000; fill-opacity: 1; stroke: none;text-anchor:middle;font-family:sans-serif;font-style:normal;font-weight:normal" x="230" y="234.95">
      <tspan x="230" y="234.95">1</tspan>
    </text>
    <text font-size="12.8" style="fill: #000000; fill-opacity: 1; stroke: none;text-anchor:middle;font-family:sans-serif;font-style:normal;font-weight:normal" x="200" y="274.95">
      <tspan x="200" y="274.95">2</tspan>
    </text>
    <ellipse style="fill: none; stroke-opacity: 1; stroke-width: 1; stroke: #ffffff" cx="230" cy="230" rx="10" ry="10"/>
    <ellipse style="fill: none; stroke-opacity: 1; stroke-width: 1; stroke: #ffffff" cx="170" cy="230" rx="10" ry="10"/>
    <g>
      <path style="fill: none; stroke-opacity: 1; stroke-width: 1; stroke: #000000" d="M 180.509,229.991 A 24.0068,24.0068 0 0 1 215.868,225.992"/>
      <polygon style="fill: #000000; fill-opacity: 1; stroke-opacity: 1; stroke-width: 1; stroke: #000000" fill-rule="evenodd" points="214.25,226.985 219.199,229.585 218.309,224.066 "/>
    </g>
    <g>
      <path style="fill: none; stroke-opacity: 1; stroke-width: 1; stroke: #000000" d="M 180.504 230 C 210.504,230 225.827,231.26 208.878,256.684"/>
      <polygon style="fill: #000000; fill-opacity: 1; stroke-opacity: 1; stroke-width: 1; stroke: #000000" fill-rule="evenodd" points="206.797,255.297 206.104,260.844 210.958,258.07 "/>
    </g>
    <g>
      <path style="fill: none; stroke-opacity: 1; stroke-width: 1; stroke: #000000" d="M 223.707,238.419 A 15.5065,15.5065 0 0 1 211.549,262.173"/>
      <polygon style="fill: #000000; fill-opacity: 1; stroke-opacity: 1; stroke-width: 1; stroke: #000000" fill-rule="evenodd" points="212.296,260.715 206.801,261.74 210.918,265.521 "/>
    </g>
    <g>
      <line style="fill: none; stroke-opacity: 1; stroke-width: 1; stroke: #000000" x1="18.7378" y1="235.825" x2="56.6859" y2="261.124"/>
      <polygon style="fill: #000000; fill-opacity: 1; stroke-opacity: 1; stroke-width: 1; stroke: #000000" fill-rule="evenodd" points="55.2992,263.204 60.8462,263.897 58.0727,259.044 "/>
    </g>
  </g>
</svg>
