<?xml version="1.0" encoding="UTF-8" standalone="no"?>
<!DOCTYPE svg PUBLIC "-//W3C//DTD SVG 1.1//EN" "http://www.w3.org/Graphics/SVG/1.1/DTD/svg11.dtd">
<svg width="95mm" height="75mm" viewBox="-2 1 363 300" xmlns="http://www.w3.org/2000/svg" xmlns:xlink="http://www.w3.org/1999/xlink">
  <!-- Copyright (C) 2020-2021 Rudy Matela -->
  <title>Relation properties (cscx.org/rel-properties)</title>
  <desc>Relation properties (cscx.org/rel-properties).  Copyright (C) 2020-2021 Rudy Matela  This image is available under the CC BY-SA 4.0 license.</desc>
  <g id="Background"/>
  <g id="Background">
    <ellipse style="fill: none; stroke-opacity: 1; stroke-width: 1; stroke: #ffffff" cx="10" cy="110" rx="10" ry="10"/>
    <text font-size="2.25778" style="fill: #f0f0f0; fill-opacity: 1; stroke: none;text-anchor:middle;font-family:sans-serif;font-style:normal;font-weight:normal" x="70" y="136.642">
      <tspan x="70" y="136.642">title: Relation properties (cscx.org/rel-properties)</tspan>
      <tspan x="70" y="139.464">Copyright (C) 2020-2021 Rudy Matela</tspan>
      <tspan x="70" y="142.286">This image is available under the CC BY-SA 4.0 license.</tspan>
      <tspan x="70" y="145.108">Originally available on https://cscx.org/rel-composition.svg</tspan>
    </text>
    <text font-size="12.8" style="fill: #000000; fill-opacity: 1; stroke: none;text-anchor:middle;font-family:sans-serif;font-style:normal;font-weight:normal" x="10" y="34.95">
      <tspan x="10" y="34.95">0</tspan>
    </text>
    <text font-size="12.8" style="fill: #000000; fill-opacity: 1; stroke: none;text-anchor:middle;font-family:sans-serif;font-style:normal;font-weight:normal" x="10" y="74.95">
      <tspan x="10" y="74.95">1</tspan>
    </text>
    <text font-size="12.8" style="fill: #000000; fill-opacity: 1; stroke: none;text-anchor:middle;font-family:sans-serif;font-style:normal;font-weight:normal" x="10" y="114.95">
      <tspan x="10" y="114.95">2</tspan>
    </text>
    <text font-size="12.8" style="fill: #000000; fill-opacity: 1; stroke: none;text-anchor:middle;font-family:sans-serif;font-style:normal;font-weight:normal" x="70" y="34.95">
      <tspan x="70" y="34.95">0</tspan>
    </text>
    <text font-size="12.8" style="fill: #000000; fill-opacity: 1; stroke: none;text-anchor:middle;font-family:sans-serif;font-style:normal;font-weight:normal" x="70" y="74.95">
      <tspan x="70" y="74.95">1</tspan>
    </text>
    <text font-size="12.8" style="fill: #000000; fill-opacity: 1; stroke: none;text-anchor:middle;font-family:sans-serif;font-style:normal;font-weight:normal" x="70" y="114.95">
      <tspan x="70" y="114.95">2</tspan>
    </text>
    <g>
      <line style="fill: none; stroke-opacity: 1; stroke-width: 1; stroke: #000000" x1="18.7378" y1="35.8252" x2="56.6859" y2="61.124"/>
      <polygon style="fill: #000000; fill-opacity: 1; stroke-opacity: 1; stroke-width: 1; stroke: #000000" fill-rule="evenodd" points="55.2992,63.2041 60.8462,63.8975 58.0727,59.0438 "/>
    </g>
    <g>
      <line style="fill: none; stroke-opacity: 1; stroke-width: 1; stroke: #000000" x1="16.3025" y1="38.4033" x2="60.3975" y2="97.1967"/>
      <polygon style="fill: #000000; fill-opacity: 1; stroke-opacity: 1; stroke-width: 1; stroke: #000000" fill-rule="evenodd" points="58.3975,98.6967 63.3975,101.197 62.3975,95.6967 "/>
    </g>
    <g>
      <line style="fill: none; stroke-opacity: 1; stroke-width: 1; stroke: #000000" x1="18.7378" y1="75.8252" x2="56.6859" y2="101.124"/>
      <polygon style="fill: #000000; fill-opacity: 1; stroke-opacity: 1; stroke-width: 1; stroke: #000000" fill-rule="evenodd" points="55.2992,103.204 60.8462,103.897 58.0727,99.0438 "/>
    </g>
    <ellipse style="fill: none; stroke-opacity: 1; stroke-width: 1; stroke: #ffffff" cx="10" cy="70" rx="10" ry="10"/>
    <ellipse style="fill: none; stroke-opacity: 1; stroke-width: 1; stroke: #ffffff" cx="10" cy="30" rx="10" ry="10"/>
    <ellipse style="fill: none; stroke-opacity: 1; stroke-width: 1; stroke: #ffffff" cx="70" cy="30" rx="10" ry="10"/>
    <ellipse style="fill: none; stroke-opacity: 1; stroke-width: 1; stroke: #ffffff" cx="70" cy="70" rx="10" ry="10"/>
    <ellipse style="fill: none; stroke-opacity: 1; stroke-width: 1; stroke: #ffffff" cx="70" cy="110" rx="10" ry="10"/>
    <ellipse style="fill: none; stroke-opacity: 1; stroke-width: 1; stroke: #ffffff" cx="10" cy="250" rx="10" ry="10"/>
    <text font-size="12.8" style="fill: #000000; fill-opacity: 1; stroke: none;text-anchor:middle;font-family:sans-serif;font-style:normal;font-weight:normal" x="10" y="175.137">
      <tspan x="10" y="175.137">0</tspan>
    </text>
    <text font-size="12.8" style="fill: #000000; fill-opacity: 1; stroke: none;text-anchor:middle;font-family:sans-serif;font-style:normal;font-weight:normal" x="10" y="215.138">
      <tspan x="10" y="215.138">1</tspan>
    </text>
    <text font-size="12.8" style="fill: #000000; fill-opacity: 1; stroke: none;text-anchor:middle;font-family:sans-serif;font-style:normal;font-weight:normal" x="10" y="254.95">
      <tspan x="10" y="254.95">2</tspan>
    </text>
    <ellipse style="fill: none; stroke-opacity: 1; stroke-width: 1; stroke: #ffffff" cx="10" cy="210.188" rx="10" ry="10"/>
    <ellipse style="fill: none; stroke-opacity: 1; stroke-width: 1; stroke: #ffffff" cx="10" cy="170.187" rx="10" ry="10"/>
    <ellipse style="fill: none; stroke-opacity: 1; stroke-width: 1; stroke: #ffffff" cx="10" cy="290" rx="10" ry="10"/>
    <text font-size="12.8" style="fill: #000000; fill-opacity: 1; stroke: none;text-anchor:middle;font-family:sans-serif;font-style:normal;font-weight:normal" x="10" y="294.95">
      <tspan x="10" y="294.95">3</tspan>
    </text>
    <ellipse style="fill: none; stroke-opacity: 1; stroke-width: 1; stroke: #ffffff" cx="70" cy="250" rx="10" ry="10"/>
    <text font-size="12.8" style="fill: #000000; fill-opacity: 1; stroke: none;text-anchor:middle;font-family:sans-serif;font-style:normal;font-weight:normal" x="70" y="174.95">
      <tspan x="70" y="174.95">0</tspan>
    </text>
    <text font-size="12.8" style="fill: #000000; fill-opacity: 1; stroke: none;text-anchor:middle;font-family:sans-serif;font-style:normal;font-weight:normal" x="70" y="214.95">
      <tspan x="70" y="214.95">1</tspan>
    </text>
    <text font-size="12.8" style="fill: #000000; fill-opacity: 1; stroke: none;text-anchor:middle;font-family:sans-serif;font-style:normal;font-weight:normal" x="70" y="254.95">
      <tspan x="70" y="254.95">2</tspan>
    </text>
    <ellipse style="fill: none; stroke-opacity: 1; stroke-width: 1; stroke: #ffffff" cx="70" cy="210" rx="10" ry="10"/>
    <ellipse style="fill: none; stroke-opacity: 1; stroke-width: 1; stroke: #ffffff" cx="70" cy="170" rx="10" ry="10"/>
    <ellipse style="fill: none; stroke-opacity: 1; stroke-width: 1; stroke: #ffffff" cx="70" cy="290" rx="10" ry="10"/>
    <text font-size="12.8" style="fill: #000000; fill-opacity: 1; stroke: none;text-anchor:middle;font-family:sans-serif;font-style:normal;font-weight:normal" x="70" y="294.95">
      <tspan x="70" y="294.95">3</tspan>
    </text>
    <g>
      <line style="fill: none; stroke-opacity: 1; stroke-width: 1; stroke: #000000" x1="20.5029" y1="210.155" x2="53.9971" y2="210.05"/>
      <polygon style="fill: #000000; fill-opacity: 1; stroke-opacity: 1; stroke-width: 1; stroke: #000000" fill-rule="evenodd" points="54.0049,212.55 58.9971,210.034 53.9893,207.55 "/>
    </g>
    <g>
      <line style="fill: none; stroke-opacity: 1; stroke-width: 1; stroke: #000000" x1="20.5029" y1="250" x2="53.9971" y2="250"/>
      <polygon style="fill: #000000; fill-opacity: 1; stroke-opacity: 1; stroke-width: 1; stroke: #000000" fill-rule="evenodd" points="53.9971,252.5 58.9971,250 53.9971,247.5 "/>
    </g>
    <g>
      <line style="fill: none; stroke-opacity: 1; stroke-width: 1; stroke: #000000" x1="20.5029" y1="170.154" x2="53.9971" y2="170.05"/>
      <polygon style="fill: #000000; fill-opacity: 1; stroke-opacity: 1; stroke-width: 1; stroke: #000000" fill-rule="evenodd" points="54.0049,172.55 58.9971,170.034 53.9893,167.55 "/>
    </g>
    <g>
      <line style="fill: none; stroke-opacity: 1; stroke-width: 1; stroke: #000000" x1="20.5029" y1="290" x2="53.9971" y2="290"/>
      <polygon style="fill: #000000; fill-opacity: 1; stroke-opacity: 1; stroke-width: 1; stroke: #000000" fill-rule="evenodd" points="53.9971,292.5 58.9971,290 53.9971,287.5 "/>
    </g>
    <text font-size="12.8" style="fill: #000000; fill-opacity: 1; stroke: none;text-anchor:middle;font-family:sans-serif;font-style:normal;font-weight:normal" x="130" y="34.95">
      <tspan x="130" y="34.95">0</tspan>
    </text>
    <text font-size="12.8" style="fill: #000000; fill-opacity: 1; stroke: none;text-anchor:middle;font-family:sans-serif;font-style:normal;font-weight:normal" x="130" y="74.95">
      <tspan x="130" y="74.95">1</tspan>
    </text>
    <text font-size="12.8" style="fill: #000000; fill-opacity: 1; stroke: none;text-anchor:middle;font-family:sans-serif;font-style:normal;font-weight:normal" x="130" y="114.95">
      <tspan x="130" y="114.95">2</tspan>
    </text>
    <ellipse style="fill: none; stroke-opacity: 1; stroke-width: 1; stroke: #ffffff" cx="130" cy="30" rx="10" ry="10"/>
    <ellipse style="fill: none; stroke-opacity: 1; stroke-width: 1; stroke: #ffffff" cx="130" cy="70" rx="10" ry="10"/>
    <ellipse style="fill: none; stroke-opacity: 1; stroke-width: 1; stroke: #ffffff" cx="130" cy="110" rx="10" ry="10"/>
    <g>
      <line style="fill: none; stroke-opacity: 1; stroke-width: 1; stroke: #000000" x1="78.7378" y1="104.175" x2="116.686" y2="78.876"/>
      <polygon style="fill: #000000; fill-opacity: 1; stroke-opacity: 1; stroke-width: 1; stroke: #000000" fill-rule="evenodd" points="118.073,80.9562 120.846,76.1025 115.299,76.7959 "/>
    </g>
    <g>
      <line style="fill: none; stroke-opacity: 1; stroke-width: 1; stroke: #000000" x1="76.3025" y1="101.597" x2="120.398" y2="42.8033"/>
      <polygon style="fill: #000000; fill-opacity: 1; stroke-opacity: 1; stroke-width: 1; stroke: #000000" fill-rule="evenodd" points="122.398,44.3033 123.398,38.8033 118.398,41.3033 "/>
    </g>
    <g>
      <line style="fill: none; stroke-opacity: 1; stroke-width: 1; stroke: #000000" x1="78.7378" y1="64.1748" x2="116.686" y2="38.876"/>
      <polygon style="fill: #000000; fill-opacity: 1; stroke-opacity: 1; stroke-width: 1; stroke: #000000" fill-rule="evenodd" points="118.073,40.9562 120.846,36.1025 115.299,36.7959 "/>
    </g>
    <ellipse style="fill: none; stroke-opacity: 1; stroke-width: 1; stroke: #ffffff" cx="130" cy="250" rx="10" ry="10"/>
    <text font-size="12.8" style="fill: #000000; fill-opacity: 1; stroke: none;text-anchor:middle;font-family:sans-serif;font-style:normal;font-weight:normal" x="130" y="174.95">
      <tspan x="130" y="174.95">0</tspan>
    </text>
    <text font-size="12.8" style="fill: #000000; fill-opacity: 1; stroke: none;text-anchor:middle;font-family:sans-serif;font-style:normal;font-weight:normal" x="130" y="214.95">
      <tspan x="130" y="214.95">1</tspan>
    </text>
    <text font-size="12.8" style="fill: #000000; fill-opacity: 1; stroke: none;text-anchor:middle;font-family:sans-serif;font-style:normal;font-weight:normal" x="130" y="254.95">
      <tspan x="130" y="254.95">2</tspan>
    </text>
    <ellipse style="fill: none; stroke-opacity: 1; stroke-width: 1; stroke: #ffffff" cx="130" cy="210" rx="10" ry="10"/>
    <ellipse style="fill: none; stroke-opacity: 1; stroke-width: 1; stroke: #ffffff" cx="130" cy="170" rx="10" ry="10"/>
    <ellipse style="fill: none; stroke-opacity: 1; stroke-width: 1; stroke: #ffffff" cx="130" cy="290" rx="10" ry="10"/>
    <text font-size="12.8" style="fill: #000000; fill-opacity: 1; stroke: none;text-anchor:middle;font-family:sans-serif;font-style:normal;font-weight:normal" x="130" y="294.95">
      <tspan x="130" y="294.95">3</tspan>
    </text>
    <g>
      <line style="fill: none; stroke-opacity: 1; stroke-width: 1; stroke: #000000" x1="80.5029" y1="210" x2="113.997" y2="210"/>
      <polygon style="fill: #000000; fill-opacity: 1; stroke-opacity: 1; stroke-width: 1; stroke: #000000" fill-rule="evenodd" points="113.997,212.5 118.997,210 113.997,207.5 "/>
    </g>
    <g>
      <line style="fill: none; stroke-opacity: 1; stroke-width: 1; stroke: #000000" x1="80.5029" y1="250" x2="113.997" y2="250"/>
      <polygon style="fill: #000000; fill-opacity: 1; stroke-opacity: 1; stroke-width: 1; stroke: #000000" fill-rule="evenodd" points="113.997,252.5 118.997,250 113.997,247.5 "/>
    </g>
    <g>
      <line style="fill: none; stroke-opacity: 1; stroke-width: 1; stroke: #000000" x1="80.5029" y1="170" x2="113.997" y2="170"/>
      <polygon style="fill: #000000; fill-opacity: 1; stroke-opacity: 1; stroke-width: 1; stroke: #000000" fill-rule="evenodd" points="113.997,172.5 118.997,170 113.997,167.5 "/>
    </g>
    <g>
      <line style="fill: none; stroke-opacity: 1; stroke-width: 1; stroke: #000000" x1="80.5029" y1="290" x2="113.997" y2="290"/>
      <polygon style="fill: #000000; fill-opacity: 1; stroke-opacity: 1; stroke-width: 1; stroke: #000000" fill-rule="evenodd" points="113.997,292.5 118.997,290 113.997,287.5 "/>
    </g>
    <g>
      <line style="fill: none; stroke-opacity: 1; stroke-width: 1; stroke: #000000" x1="18.7451" y1="175.99" x2="56.672" y2="201.156"/>
      <polygon style="fill: #000000; fill-opacity: 1; stroke-opacity: 1; stroke-width: 1; stroke: #000000" fill-rule="evenodd" points="55.2898,203.239 60.8383,203.921 58.0543,199.073 "/>
    </g>
    <g>
      <line style="fill: none; stroke-opacity: 1; stroke-width: 1; stroke: #000000" x1="16.3062" y1="178.576" x2="60.3889" y2="237.215"/>
      <polygon style="fill: #000000; fill-opacity: 1; stroke-opacity: 1; stroke-width: 1; stroke: #000000" fill-rule="evenodd" points="58.3906,238.717 63.3934,241.212 62.3872,235.713 "/>
    </g>
    <g>
      <line style="fill: none; stroke-opacity: 1; stroke-width: 1; stroke: #000000" x1="14.6948" y1="179.562" x2="62.8424" y2="275.707"/>
      <polygon style="fill: #000000; fill-opacity: 1; stroke-opacity: 1; stroke-width: 1; stroke: #000000" fill-rule="evenodd" points="60.6071,276.827 65.0813,280.178 65.0778,274.588 "/>
    </g>
    <g>
      <line style="fill: none; stroke-opacity: 1; stroke-width: 1; stroke: #000000" x1="18.7378" y1="284.175" x2="56.6859" y2="258.876"/>
      <polygon style="fill: #000000; fill-opacity: 1; stroke-opacity: 1; stroke-width: 1; stroke: #000000" fill-rule="evenodd" points="58.0727,260.956 60.8462,256.103 55.2992,256.796 "/>
    </g>
    <g>
      <line style="fill: none; stroke-opacity: 1; stroke-width: 1; stroke: #000000" x1="16.3025" y1="281.597" x2="60.3975" y2="222.803"/>
      <polygon style="fill: #000000; fill-opacity: 1; stroke-opacity: 1; stroke-width: 1; stroke: #000000" fill-rule="evenodd" points="62.3975,224.303 63.3975,218.803 58.3975,221.303 "/>
    </g>
    <g>
      <line style="fill: none; stroke-opacity: 1; stroke-width: 1; stroke: #000000" x1="14.6948" y1="280.61" x2="62.8455" y2="184.309"/>
      <polygon style="fill: #000000; fill-opacity: 1; stroke-opacity: 1; stroke-width: 1; stroke: #000000" fill-rule="evenodd" points="65.0816,185.427 65.0816,179.837 60.6094,183.191 "/>
    </g>
    <g>
      <line style="fill: none; stroke-opacity: 1; stroke-width: 1; stroke: #000000" x1="74.6948" y1="280.61" x2="122.846" y2="184.309"/>
      <polygon style="fill: #000000; fill-opacity: 1; stroke-opacity: 1; stroke-width: 1; stroke: #000000" fill-rule="evenodd" points="125.082,185.427 125.082,179.837 120.609,183.191 "/>
    </g>
    <g>
      <line style="fill: none; stroke-opacity: 1; stroke-width: 1; stroke: #000000" x1="76.3025" y1="241.597" x2="120.398" y2="182.803"/>
      <polygon style="fill: #000000; fill-opacity: 1; stroke-opacity: 1; stroke-width: 1; stroke: #000000" fill-rule="evenodd" points="122.398,184.303 123.398,178.803 118.398,181.303 "/>
    </g>
    <g>
      <line style="fill: none; stroke-opacity: 1; stroke-width: 1; stroke: #000000" x1="78.7378" y1="204.175" x2="116.686" y2="178.876"/>
      <polygon style="fill: #000000; fill-opacity: 1; stroke-opacity: 1; stroke-width: 1; stroke: #000000" fill-rule="evenodd" points="118.073,180.956 120.846,176.103 115.299,176.796 "/>
    </g>
    <g>
      <line style="fill: none; stroke-opacity: 1; stroke-width: 1; stroke: #000000" x1="78.7378" y1="255.825" x2="116.686" y2="281.124"/>
      <polygon style="fill: #000000; fill-opacity: 1; stroke-opacity: 1; stroke-width: 1; stroke: #000000" fill-rule="evenodd" points="115.299,283.204 120.846,283.897 118.073,279.044 "/>
    </g>
    <g>
      <line style="fill: none; stroke-opacity: 1; stroke-width: 1; stroke: #000000" x1="76.3025" y1="218.403" x2="120.398" y2="277.197"/>
      <polygon style="fill: #000000; fill-opacity: 1; stroke-opacity: 1; stroke-width: 1; stroke: #000000" fill-rule="evenodd" points="118.398,278.697 123.398,281.197 122.398,275.697 "/>
    </g>
    <g>
      <line style="fill: none; stroke-opacity: 1; stroke-width: 1; stroke: #000000" x1="74.6948" y1="179.39" x2="122.846" y2="275.691"/>
      <polygon style="fill: #000000; fill-opacity: 1; stroke-opacity: 1; stroke-width: 1; stroke: #000000" fill-rule="evenodd" points="120.609,276.809 125.082,280.163 125.082,274.573 "/>
    </g>
    <ellipse style="fill: none; stroke-opacity: 1; stroke-width: 1; stroke: #ffffff" cx="230" cy="249.812" rx="10" ry="10"/>
    <text font-size="12.8" style="fill: #000000; fill-opacity: 1; stroke: none;text-anchor:middle;font-family:sans-serif;font-style:normal;font-weight:normal" x="230" y="174.95">
      <tspan x="230" y="174.95">0</tspan>
    </text>
    <text font-size="12.8" style="fill: #000000; fill-opacity: 1; stroke: none;text-anchor:middle;font-family:sans-serif;font-style:normal;font-weight:normal" x="230" y="214.95">
      <tspan x="230" y="214.95">1</tspan>
    </text>
    <text font-size="12.8" style="fill: #000000; fill-opacity: 1; stroke: none;text-anchor:middle;font-family:sans-serif;font-style:normal;font-weight:normal" x="230" y="254.762">
      <tspan x="230" y="254.762">2</tspan>
    </text>
    <ellipse style="fill: none; stroke-opacity: 1; stroke-width: 1; stroke: #ffffff" cx="230" cy="210" rx="10" ry="10"/>
    <ellipse style="fill: none; stroke-opacity: 1; stroke-width: 1; stroke: #ffffff" cx="230" cy="170" rx="10" ry="10"/>
    <ellipse style="fill: none; stroke-opacity: 1; stroke-width: 1; stroke: #ffffff" cx="230" cy="289.812" rx="10" ry="10"/>
    <text font-size="12.8" style="fill: #000000; fill-opacity: 1; stroke: none;text-anchor:middle;font-family:sans-serif;font-style:normal;font-weight:normal" x="230" y="294.762">
      <tspan x="230" y="294.762">3</tspan>
    </text>
    <ellipse style="fill: none; stroke-opacity: 1; stroke-width: 1; stroke: #ffffff" cx="350" cy="250" rx="10" ry="10"/>
    <text font-size="12.8" style="fill: #000000; fill-opacity: 1; stroke: none;text-anchor:middle;font-family:sans-serif;font-style:normal;font-weight:normal" x="350" y="174.95">
      <tspan x="350" y="174.95">0</tspan>
    </text>
    <text font-size="12.8" style="fill: #000000; fill-opacity: 1; stroke: none;text-anchor:middle;font-family:sans-serif;font-style:normal;font-weight:normal" x="350" y="214.95">
      <tspan x="350" y="214.95">1</tspan>
    </text>
    <text font-size="12.8" style="fill: #000000; fill-opacity: 1; stroke: none;text-anchor:middle;font-family:sans-serif;font-style:normal;font-weight:normal" x="350" y="254.95">
      <tspan x="350" y="254.95">2</tspan>
    </text>
    <ellipse style="fill: none; stroke-opacity: 1; stroke-width: 1; stroke: #ffffff" cx="350" cy="210" rx="10" ry="10"/>
    <ellipse style="fill: none; stroke-opacity: 1; stroke-width: 1; stroke: #ffffff" cx="350" cy="170" rx="10" ry="10"/>
    <ellipse style="fill: none; stroke-opacity: 1; stroke-width: 1; stroke: #ffffff" cx="350" cy="290" rx="10" ry="10"/>
    <text font-size="12.8" style="fill: #000000; fill-opacity: 1; stroke: none;text-anchor:middle;font-family:sans-serif;font-style:normal;font-weight:normal" x="350" y="294.95">
      <tspan x="350" y="294.95">3</tspan>
    </text>
    <g>
      <line style="fill: none; stroke-opacity: 1; stroke-width: 1; stroke: #000000" x1="240.503" y1="210" x2="333.997" y2="210"/>
      <polygon style="fill: #000000; fill-opacity: 1; stroke-opacity: 1; stroke-width: 1; stroke: #000000" fill-rule="evenodd" points="333.997,212.5 338.997,210 333.997,207.5 "/>
    </g>
    <g>
      <line style="fill: none; stroke-opacity: 1; stroke-width: 1; stroke: #000000" x1="240.503" y1="249.828" x2="333.997" y2="249.975"/>
      <polygon style="fill: #000000; fill-opacity: 1; stroke-opacity: 1; stroke-width: 1; stroke: #000000" fill-rule="evenodd" points="333.993,252.475 338.997,249.983 334.001,247.475 "/>
    </g>
    <g>
      <line style="fill: none; stroke-opacity: 1; stroke-width: 1; stroke: #000000" x1="240.503" y1="170" x2="333.997" y2="170"/>
      <polygon style="fill: #000000; fill-opacity: 1; stroke-opacity: 1; stroke-width: 1; stroke: #000000" fill-rule="evenodd" points="333.997,172.5 338.997,170 333.997,167.5 "/>
    </g>
    <g>
      <line style="fill: none; stroke-opacity: 1; stroke-width: 1; stroke: #000000" x1="240.503" y1="289.828" x2="333.997" y2="289.975"/>
      <polygon style="fill: #000000; fill-opacity: 1; stroke-opacity: 1; stroke-width: 1; stroke: #000000" fill-rule="evenodd" points="333.993,292.475 338.997,289.983 334.001,287.475 "/>
    </g>
    <g>
      <line style="fill: none; stroke-opacity: 1; stroke-width: 1; stroke: #000000" x1="239.968" y1="173.323" x2="334.814" y2="204.938"/>
      <polygon style="fill: #000000; fill-opacity: 1; stroke-opacity: 1; stroke-width: 1; stroke: #000000" fill-rule="evenodd" points="334.023,207.31 339.557,206.519 335.605,202.566 "/>
    </g>
    <g>
      <line style="fill: none; stroke-opacity: 1; stroke-width: 1; stroke: #000000" x1="238.738" y1="175.825" x2="336.686" y2="241.124"/>
      <polygon style="fill: #000000; fill-opacity: 1; stroke-opacity: 1; stroke-width: 1; stroke: #000000" fill-rule="evenodd" points="335.299,243.204 340.846,243.897 338.073,239.044 "/>
    </g>
    <g>
      <line style="fill: none; stroke-opacity: 1; stroke-width: 1; stroke: #000000" x1="237.419" y1="177.419" x2="338.691" y2="278.691"/>
      <polygon style="fill: #000000; fill-opacity: 1; stroke-opacity: 1; stroke-width: 1; stroke: #000000" fill-rule="evenodd" points="336.924,280.459 342.227,282.227 340.459,276.924 "/>
    </g>
    <g>
      <line style="fill: none; stroke-opacity: 1; stroke-width: 1; stroke: #000000" x1="239.968" y1="286.505" x2="334.812" y2="255.039"/>
      <polygon style="fill: #000000; fill-opacity: 1; stroke-opacity: 1; stroke-width: 1; stroke: #000000" fill-rule="evenodd" points="335.599,257.412 339.557,253.465 334.024,252.666 "/>
    </g>
    <g>
      <line style="fill: none; stroke-opacity: 1; stroke-width: 1; stroke: #000000" x1="238.738" y1="284" x2="336.683" y2="218.857"/>
      <polygon style="fill: #000000; fill-opacity: 1; stroke-opacity: 1; stroke-width: 1; stroke: #000000" fill-rule="evenodd" points="338.067,220.939 340.846,216.088 335.298,216.776 "/>
    </g>
    <g>
      <line style="fill: none; stroke-opacity: 1; stroke-width: 1; stroke: #000000" x1="237.412" y1="282.412" x2="338.696" y2="181.287"/>
      <polygon style="fill: #000000; fill-opacity: 1; stroke-opacity: 1; stroke-width: 1; stroke: #000000" fill-rule="evenodd" points="340.462,183.056 342.234,177.754 336.929,179.517 "/>
    </g>
    <g>
      <line style="fill: none; stroke-opacity: 1; stroke-width: 1; stroke: #000000" x1="239.902" y1="253.128" x2="334.882" y2="284.937"/>
      <polygon style="fill: #000000; fill-opacity: 1; stroke-opacity: 1; stroke-width: 1; stroke: #000000" fill-rule="evenodd" points="334.088,287.308 339.624,286.525 335.676,282.567 "/>
    </g>
    <g>
      <line style="fill: none; stroke-opacity: 1; stroke-width: 1; stroke: #000000" x1="238.738" y1="215.825" x2="336.686" y2="281.124"/>
      <polygon style="fill: #000000; fill-opacity: 1; stroke-opacity: 1; stroke-width: 1; stroke: #000000" fill-rule="evenodd" points="335.299,283.204 340.846,283.897 338.073,279.044 "/>
    </g>
    <g>
      <line style="fill: none; stroke-opacity: 1; stroke-width: 1; stroke: #000000" x1="238.738" y1="244" x2="336.683" y2="178.857"/>
      <polygon style="fill: #000000; fill-opacity: 1; stroke-opacity: 1; stroke-width: 1; stroke: #000000" fill-rule="evenodd" points="338.067,180.939 340.846,176.088 335.298,176.776 "/>
    </g>
    <g>
      <line style="fill: none; stroke-opacity: 1; stroke-width: 1; stroke: #000000" x1="239.968" y1="206.677" x2="334.814" y2="175.062"/>
      <polygon style="fill: #000000; fill-opacity: 1; stroke-opacity: 1; stroke-width: 1; stroke: #000000" fill-rule="evenodd" points="335.605,177.434 339.557,173.481 334.023,172.69 "/>
    </g>
    <ellipse style="fill: none; stroke-opacity: 1; stroke-width: 1; stroke: #ffffff" cx="230" cy="110" rx="10" ry="10"/>
    <text font-size="12.8" style="fill: #000000; fill-opacity: 1; stroke: none;text-anchor:middle;font-family:sans-serif;font-style:normal;font-weight:normal" x="230" y="34.95">
      <tspan x="230" y="34.95">0</tspan>
    </text>
    <text font-size="12.8" style="fill: #000000; fill-opacity: 1; stroke: none;text-anchor:middle;font-family:sans-serif;font-style:normal;font-weight:normal" x="230" y="74.95">
      <tspan x="230" y="74.95">1</tspan>
    </text>
    <text font-size="12.8" style="fill: #000000; fill-opacity: 1; stroke: none;text-anchor:middle;font-family:sans-serif;font-style:normal;font-weight:normal" x="230" y="114.95">
      <tspan x="230" y="114.95">2</tspan>
    </text>
    <g>
      <line style="fill: none; stroke-opacity: 1; stroke-width: 1; stroke: #000000" x1="239.968" y1="33.3228" x2="334.814" y2="64.938"/>
      <polygon style="fill: #000000; fill-opacity: 1; stroke-opacity: 1; stroke-width: 1; stroke: #000000" fill-rule="evenodd" points="334.023,67.3097 339.557,66.5191 335.605,62.5663 "/>
    </g>
    <g>
      <line style="fill: none; stroke-opacity: 1; stroke-width: 1; stroke: #000000" x1="239.968" y1="66.6772" x2="334.814" y2="35.062"/>
      <polygon style="fill: #000000; fill-opacity: 1; stroke-opacity: 1; stroke-width: 1; stroke: #000000" fill-rule="evenodd" points="335.605,37.4337 339.557,33.4809 334.023,32.6903 "/>
    </g>
    <ellipse style="fill: none; stroke-opacity: 1; stroke-width: 1; stroke: #ffffff" cx="230" cy="70" rx="10" ry="10"/>
    <ellipse style="fill: none; stroke-opacity: 1; stroke-width: 1; stroke: #ffffff" cx="230" cy="30" rx="10" ry="10"/>
    <text font-size="12.8" style="fill: #000000; fill-opacity: 1; stroke: none;text-anchor:middle;font-family:sans-serif;font-style:normal;font-weight:normal" x="350" y="34.95">
      <tspan x="350" y="34.95">0</tspan>
    </text>
    <text font-size="12.8" style="fill: #000000; fill-opacity: 1; stroke: none;text-anchor:middle;font-family:sans-serif;font-style:normal;font-weight:normal" x="350" y="74.95">
      <tspan x="350" y="74.95">1</tspan>
    </text>
    <text font-size="12.8" style="fill: #000000; fill-opacity: 1; stroke: none;text-anchor:middle;font-family:sans-serif;font-style:normal;font-weight:normal" x="350" y="114.95">
      <tspan x="350" y="114.95">2</tspan>
    </text>
    <ellipse style="fill: none; stroke-opacity: 1; stroke-width: 1; stroke: #ffffff" cx="350" cy="30" rx="10" ry="10"/>
    <ellipse style="fill: none; stroke-opacity: 1; stroke-width: 1; stroke: #ffffff" cx="350" cy="70" rx="10" ry="10"/>
    <ellipse style="fill: none; stroke-opacity: 1; stroke-width: 1; stroke: #ffffff" cx="350" cy="110" rx="10" ry="10"/>
    <g>
      <line style="fill: none; stroke-opacity: 1; stroke-width: 1; stroke: #000000" x1="240.503" y1="70" x2="333.997" y2="70"/>
      <polygon style="fill: #000000; fill-opacity: 1; stroke-opacity: 1; stroke-width: 1; stroke: #000000" fill-rule="evenodd" points="333.997,72.5 338.997,70 333.997,67.5 "/>
    </g>
    <g>
      <line style="fill: none; stroke-opacity: 1; stroke-width: 1; stroke: #000000" x1="240.503" y1="30" x2="333.997" y2="30"/>
      <polygon style="fill: #000000; fill-opacity: 1; stroke-opacity: 1; stroke-width: 1; stroke: #000000" fill-rule="evenodd" points="333.997,32.5 338.997,30 333.997,27.5 "/>
    </g>
    <polygon style="fill: #ffffff; fill-opacity: 1; stroke-opacity: 1; stroke-width: 1; stroke: #000000" fill-rule="evenodd" points="160,70 180,70 180,60 200,80 180,100 180,90 160,90 "/>
    <polygon style="fill: #ffffff; fill-opacity: 1; stroke-opacity: 1; stroke-width: 1; stroke: #000000" fill-rule="evenodd" points="160,220 180,220 180,210 200,230 180,250 180,240 160,240 "/>
    <text font-size="12.8" style="fill: #000000; fill-opacity: 1; stroke: none;text-anchor:middle;font-family:sans-serif;font-style:normal;font-weight:normal" x="40" y="14.95">
      <tspan x="40" y="14.95">R</tspan>
    </text>
    <text font-size="12.8" style="fill: #000000; fill-opacity: 1; stroke: none;text-anchor:middle;font-family:sans-serif;font-style:normal;font-weight:normal" x="100" y="14.95">
      <tspan x="100" y="14.95">S</tspan>
    </text>
    <text font-size="12.8" style="fill: #000000; fill-opacity: 1; stroke: none;text-anchor:middle;font-family:sans-serif;font-style:normal;font-weight:normal" x="290" y="14.95">
      <tspan x="290" y="14.95">RS</tspan>
    </text>
    <text font-size="12.8" style="fill: #000000; fill-opacity: 1; stroke: none;text-anchor:middle;font-family:sans-serif;font-style:normal;font-weight:normal" x="290" y="154.95">
      <tspan x="290" y="154.95">RS</tspan>
    </text>
    <text font-size="12.8" style="fill: #000000; fill-opacity: 1; stroke: none;text-anchor:middle;font-family:sans-serif;font-style:normal;font-weight:normal" x="40" y="154.95">
      <tspan x="40" y="154.95">R</tspan>
    </text>
    <text font-size="12.8" style="fill: #000000; fill-opacity: 1; stroke: none;text-anchor:middle;font-family:sans-serif;font-style:normal;font-weight:normal" x="100" y="154.95">
      <tspan x="100" y="154.95">S</tspan>
    </text>
  </g>
</svg>
