<?xml version="1.0" encoding="UTF-8" standalone="no"?>
<!DOCTYPE svg PUBLIC "-//W3C//DTD SVG 1.1//EN" "http://www.w3.org/Graphics/SVG/1.1/DTD/svg11.dtd">
<svg width="90mm" height="35mm" viewBox="-1 -3 342 135" xmlns="http://www.w3.org/2000/svg" xmlns:xlink="http://www.w3.org/1999/xlink">
  <!-- Copyright (C) 2020-2021 Rudy Matela -->
  <title>Euler diagrams / Venn diagrams for set union and intersection</title>
  <desc>Euler diagrams / Venn diagrams for set union and intersection.  Copyright (C) 2020-2021 Rudy Matela  This image is available under the CC BY-SA 4.0 license.</desc>
  <g id="Background"/>
  <g id="Background">
    <text font-size="3.38667" style="fill: #cccccc; fill-opacity: 1; stroke: none;text-anchor:middle;font-family:sans-serif;font-style:normal;font-weight:normal" x="80" y="34.975">
      <tspan x="80" y="34.975">title: Euler diagrams / Venn diagrams for set union and intersection</tspan>
      <tspan x="80" y="39.2083">Copyright (C) 2020-2021 Rudy Matela</tspan>
      <tspan x="80" y="43.4417">This image is available under the CC BY-SA 4.0 license.</tspan>
      <tspan x="80" y="47.675">Originally available on https://cscx.org/set-ui.svg</tspan>
    </text>
    <ellipse style="fill: #cccccc; fill-opacity: 1; stroke-opacity: 1; stroke-width: 0.2; stroke: #000000" cx="50" cy="50" rx="50" ry="50"/>
    <ellipse style="fill: #cccccc; fill-opacity: 1; stroke-opacity: 1; stroke-width: 0.2; stroke: #000000" cx="110" cy="50" rx="50" ry="50"/>
    <text font-size="12.8" style="fill: #000000; fill-opacity: 1; stroke: none;text-anchor:middle;font-family:sans-serif;font-style:normal;font-weight:normal" x="80" y="80.95">
      <tspan x="80" y="80.95"></tspan>
      <tspan x="80" y="96.95"></tspan>
      <tspan x="80" y="112.95">A∪B</tspan>
      <tspan x="80" y="128.95">union</tspan>
    </text>
    <ellipse style="fill: none; stroke-opacity: 1; stroke-width: 1; stroke: #000000" cx="50" cy="50" rx="50" ry="50"/>
    <ellipse style="fill: none; stroke-opacity: 1; stroke-width: 1; stroke: #000000" cx="110" cy="50" rx="50" ry="50"/>
    <text font-size="12.8" style="fill: #000000; fill-opacity: 1; stroke: none;text-anchor:end;font-family:sans-serif;font-style:normal;font-weight:normal" x="14.6447" y="11.5947">
      <tspan x="14.6447" y="11.5947">A</tspan>
      <tspan x="14.6447" y="27.5947"></tspan>
    </text>
    <text font-size="12.8" style="fill: #000000; fill-opacity: 1; stroke: none;text-anchor:start;font-family:sans-serif;font-style:normal;font-weight:normal" x="145.355" y="11.5947">
      <tspan x="145.355" y="11.5947">B</tspan>
      <tspan x="145.355" y="27.5947"></tspan>
    </text>
    <polygon style="fill: #cccccc; fill-opacity: 1; stroke-opacity: 1; stroke-width: 2.35099e-37; stroke: #000000" fill-rule="evenodd" points="240,50 241,40 244,30 250,20 254.8,14.4 260,10 265.2,14.4 270,20 276,30 279,40 280,50 279,60 276,70 270,80 265.6,85.2 260,90 254.4,85.2 250,80 244,70 241,60 "/>
    <text font-size="12.8" style="fill: #000000; fill-opacity: 1; stroke: none;text-anchor:middle;font-family:sans-serif;font-style:normal;font-weight:normal" x="260" y="80.95">
      <tspan x="260" y="80.95"></tspan>
      <tspan x="260" y="96.95"></tspan>
      <tspan x="260" y="112.95">A∩B</tspan>
      <tspan x="260" y="128.95">intersection</tspan>
    </text>
    <ellipse style="fill: none; stroke-opacity: 1; stroke-width: 1; stroke: #000000" cx="230" cy="50" rx="50" ry="50"/>
    <ellipse style="fill: none; stroke-opacity: 1; stroke-width: 1; stroke: #000000" cx="290" cy="50" rx="50" ry="50"/>
    <text font-size="12.8" style="fill: #000000; fill-opacity: 1; stroke: none;text-anchor:end;font-family:sans-serif;font-style:normal;font-weight:normal" x="194.645" y="11.5947">
      <tspan x="194.645" y="11.5947">A</tspan>
      <tspan x="194.645" y="27.5947"></tspan>
    </text>
    <text font-size="12.8" style="fill: #000000; fill-opacity: 1; stroke: none;text-anchor:start;font-family:sans-serif;font-style:normal;font-weight:normal" x="325.356" y="11.5947">
      <tspan x="325.356" y="11.5947">B</tspan>
      <tspan x="325.356" y="27.5947"></tspan>
    </text>
  </g>
</svg>
